{"glyphs":{"0":{"ha":768,"x_min":-23,"x_max":769,"o":"m 456 981 q 753 769 673 981 q 769 573 769 681 q 566 73 769 254 q 289 -9 459 -9 q 13 307 70 -7 q 185 856 -23 665 q 456 981 338 981 m 252 402 q 368 275 265 275 q 525 433 474 275 q 458 722 590 695 q 252 402 270 713 z "},"1":{"ha":393,"x_min":-9,"x_max":397,"o":"m 397 987 l 348 -12 l 59 33 l 115 709 l -9 701 l 24 962 l 397 987 z "},"2":{"ha":694,"x_min":-8,"x_max":703,"o":"m 402 976 q 658 760 633 966 q 358 257 675 585 l 703 274 l 675 16 l 31 -9 l 40 224 q 412 662 320 524 q 347 739 429 735 q 136 566 274 732 l -8 715 q 402 976 147 976 z "},"3":{"ha":680,"x_min":-9,"x_max":686,"o":"m 352 969 q 616 845 526 969 q 654 689 654 772 q 578 484 654 588 q 686 274 686 411 q 352 -6 686 -6 q -9 123 163 -6 l 88 320 q 361 218 262 218 q 452 290 452 228 q 319 359 452 359 l 229 361 l 234 553 l 340 561 q 414 662 414 591 q 324 734 414 724 q 110 646 235 734 l 13 835 q 352 969 167 969 z "},"4":{"ha":684,"x_min":4,"x_max":693,"o":"m 625 968 l 600 488 l 693 490 l 660 278 l 594 278 l 573 -16 l 334 28 l 350 278 l 9 275 l 4 483 l 390 972 l 625 968 m 379 668 l 254 488 l 378 488 l 393 668 l 379 668 z "},"5":{"ha":694,"x_min":-6,"x_max":694,"o":"m 641 979 l 620 768 q 267 742 304 753 l 271 633 q 441 641 372 644 q 641 503 572 628 q 694 294 694 406 q 491 16 694 87 q 357 0 414 0 q -6 128 200 0 l 90 332 q 357 214 207 214 q 459 310 459 225 q 331 433 459 420 l 250 433 q 68 421 180 433 l 68 954 l 641 979 z "},"6":{"ha":718,"x_min":-6,"x_max":720,"o":"m 600 976 l 679 979 l 644 755 q 242 571 345 745 q 447 631 341 627 q 685 501 618 637 q 715 380 713 448 q 613 117 720 260 q 304 -5 501 1 q 19 260 109 -12 q 5 382 7 302 q 269 880 -6 689 q 600 976 425 970 m 255 304 q 361 199 258 209 q 488 380 494 233 q 404 444 486 435 q 255 304 281 439 z "},"7":{"ha":737,"x_min":-4,"x_max":751,"o":"m 98 972 l 751 972 l 734 737 l 236 -5 l -4 93 l 407 725 l 22 725 l 98 972 z "},"8":{"ha":647,"x_min":-26,"x_max":694,"o":"m 405 993 q 663 814 591 1003 q 677 734 671 786 q 588 496 694 575 q 663 292 661 420 q 549 36 679 148 q 359 -22 467 -11 q -10 189 16 -58 q 111 490 -26 341 q 49 613 57 534 q 130 872 37 760 q 405 993 216 984 m 271 669 q 369 614 277 605 q 459 738 448 623 q 376 805 439 812 q 271 669 271 788 m 215 218 q 319 163 221 162 q 424 300 409 174 q 324 371 417 364 q 215 218 204 320 z "},"9":{"ha":711,"x_min":-30,"x_max":729,"o":"m 415 987 q 720 583 710 970 q 533 125 729 313 q 28 -10 338 -17 l 77 209 q 479 397 363 219 q 281 342 371 345 q 18 516 75 335 q 165 919 -30 757 q 415 987 260 982 m 229 618 q 358 540 239 524 q 473 667 467 576 q 370 783 469 775 q 229 618 234 768 z "},"\u0000":{"ha":0,"x_min":0,"x_max":0,"o":""}," ":{"ha":345,"x_min":0,"x_max":0,"o":""},"!":{"ha":322,"x_min":27,"x_max":303,"o":"m 62 991 q 303 906 293 916 q 228 273 238 292 q 42 233 212 273 q 37 238 42 238 q 52 987 42 330 l 62 991 m 178 198 l 188 198 q 263 127 263 176 q 113 -8 263 28 l 98 -8 q 27 62 27 -8 l 27 77 q 178 198 27 175 z "},"\"":{"ha":496,"x_min":57,"x_max":443,"o":"m 195 745 l 93 751 l 57 1067 l 231 1077 l 195 745 m 407 745 l 304 751 l 269 1068 l 443 1077 l 407 745 z "},"#":{"ha":1012,"x_min":73,"x_max":960,"o":"m 454 543 l 412 420 l 532 420 l 576 543 l 454 543 m 390 972 l 557 959 l 489 698 l 610 698 l 686 972 l 859 952 l 784 698 l 960 698 l 932 547 l 749 547 l 708 423 l 897 423 l 848 278 l 665 278 l 584 -7 l 417 7 l 491 278 l 372 278 l 282 0 l 122 20 l 197 278 l 73 278 l 108 423 l 237 423 l 281 547 l 142 547 l 170 698 l 315 698 l 390 972 z "},"$":{"ha":714,"x_min":-9,"x_max":749,"o":"m 585 694 q 260 667 254 772 q 396 572 281 620 q 740 245 749 445 q 584 36 743 118 q 495 7 550 18 l 497 -64 l 309 -74 l 302 -5 q 18 41 172 1 l 112 248 q 420 280 422 191 q 155 425 400 353 q -7 679 -9 515 q 250 970 -3 899 l 250 1074 l 450 1079 l 452 976 q 703 910 578 965 l 585 694 z "},"%":{"ha":1069,"x_min":39,"x_max":1070,"o":"m 311 -41 l 172 -14 l 740 979 l 879 952 l 311 -41 m 321 972 q 511 848 465 972 q 519 774 521 819 q 399 509 519 630 q 230 455 340 452 q 48 658 65 460 q 178 928 39 837 q 321 972 254 972 m 197 677 q 255 614 207 614 q 364 735 359 633 q 311 821 368 819 q 197 677 199 800 m 870 498 q 1061 374 1015 498 q 1069 299 1070 345 q 949 34 1069 155 q 779 -20 889 -22 q 597 183 614 -15 q 727 453 589 362 q 870 498 803 498 m 765 205 q 814 142 773 142 q 908 264 904 161 q 863 349 912 347 q 765 205 766 329 z "},"&":{"ha":762,"x_min":-38,"x_max":790,"o":"m 397 988 q 613 741 589 960 q 452 520 621 613 q 568 268 528 342 l 655 307 l 790 238 l 630 115 l 652 73 l 500 -47 l 466 24 q 359 -3 410 2 q 3 201 56 -61 q 186 572 -38 454 q 142 857 98 722 q 397 988 192 995 m 371 666 q 439 756 444 698 q 366 806 427 829 q 371 666 311 760 m 199 237 q 388 196 220 159 l 275 438 q 199 237 161 363 z "},"'":{"ha":203,"x_min":23,"x_max":184,"o":"m 147 745 l 59 745 l 23 1074 l 184 1077 l 147 745 z "},"(":{"ha":586,"x_min":137,"x_max":547,"o":"m 137 408 q 175 677 138 549 q 290 931 212 810 q 374 1048 336 1005 l 398 1074 l 547 1074 q 528 1048 541 1063 q 498 1013 507 1025 q 387 762 423 899 q 350 461 350 626 q 351 408 350 434 q 350 354 350 382 q 387 54 350 189 q 498 -195 423 -81 q 528 -231 507 -208 q 547 -258 541 -246 l 398 -258 l 374 -231 q 290 -115 336 -188 q 174 139 212 5 q 137 408 138 267 z "},")":{"ha":586,"x_min":39,"x_max":449,"o":"m 412 138 q 296 -115 374 5 q 212 -231 250 -189 l 188 -258 l 39 -258 q 58 -232 45 -247 q 87 -196 79 -208 q 199 53 163 -82 q 236 353 236 189 q 235 408 236 381 q 236 461 236 434 q 199 762 236 626 q 87 1013 163 898 q 58 1048 79 1025 q 39 1074 45 1063 l 188 1074 l 212 1048 q 296 931 250 1004 q 411 677 374 810 q 449 408 448 549 q 412 138 448 267 z "},"*":{"ha":741,"x_min":114,"x_max":663,"o":"m 570 1053 l 663 905 l 465 829 l 621 720 l 488 587 l 376 743 l 268 593 l 118 712 l 267 825 l 114 874 l 163 1027 l 309 949 l 286 1125 l 441 1113 l 420 951 l 570 1053 z "},"+":{"ha":751,"x_min":149,"x_max":629,"o":"m 300 418 l 149 425 l 156 547 l 307 547 l 313 724 l 458 737 l 458 547 l 616 547 l 629 405 l 458 412 l 458 249 l 293 242 l 300 418 z "},",":{"ha":269,"x_min":18,"x_max":257,"o":"m 66 140 l 257 136 l 240 0 q 41 -210 165 -156 l 18 -164 q 55 4 52 -65 l 66 140 z "},"-":{"ha":525,"x_min":53,"x_max":478,"o":"m 53 230 l 60 413 l 478 433 l 458 223 l 53 230 z "},".":{"ha":269,"x_min":28,"x_max":243,"o":"m 39 154 l 243 149 l 224 -8 l 28 4 l 39 154 z "},"/":{"ha":435,"x_min":-32,"x_max":479,"o":"m 107 -41 l -32 -14 l 340 979 l 479 952 l 107 -41 z "},":":{"ha":262,"x_min":28,"x_max":243,"o":"m 39 154 l 243 149 l 224 -8 l 28 4 l 39 154 m 39 579 l 243 574 l 224 417 l 28 429 l 39 579 z "},";":{"ha":269,"x_min":5,"x_max":250,"o":"m 52 140 l 243 136 l 227 0 q 28 -210 151 -156 l 5 -164 q 41 4 38 -65 l 52 140 m 45 579 l 250 574 l 231 417 l 35 429 l 45 579 z "},"<":{"ha":751,"x_min":54,"x_max":697,"o":"m 697 654 l 265 485 l 697 317 l 629 110 l 54 395 l 54 575 l 629 863 l 697 654 z "},"=":{"ha":751,"x_min":47,"x_max":684,"o":"m 54 414 l 677 414 l 670 245 l 47 258 l 54 414 m 68 653 l 684 673 l 677 504 l 61 497 l 68 653 z "},">":{"ha":751,"x_min":54,"x_max":697,"o":"m 122 863 l 697 575 l 697 395 l 122 110 l 54 317 l 486 485 l 54 654 l 122 863 z "},"?":{"ha":597,"x_min":-12,"x_max":604,"o":"m 363 982 q -12 736 132 982 l 117 602 l 122 602 q 296 762 237 762 q 373 700 362 762 l 373 694 q 327 618 373 667 q 142 315 142 429 q 153 222 142 249 l 342 279 q 378 372 352 347 q 604 766 604 623 l 604 787 l 599 818 q 383 982 543 982 l 363 982 m 322 202 q 163 74 191 202 q 230 -8 172 -8 l 250 -8 q 404 125 404 28 l 404 136 q 327 202 404 180 l 322 202 z "},"@":{"ha":1244,"x_min":-7,"x_max":1264,"o":"m 496 222 q 672 201 507 169 l 668 285 q 496 222 489 301 m 968 142 q 1121 443 1122 207 q 953 781 1112 667 q 633 863 819 868 q 292 733 454 863 q 130 357 130 603 q 307 -32 130 112 q 667 -176 484 -176 q 1071 -73 858 -176 l 1071 -110 l 1071 -155 q 652 -290 857 -290 q 318 -201 476 -290 q 76 36 159 -113 q -7 345 -7 184 q 78 656 -7 505 q 321 893 162 807 q 652 979 479 979 q 1091 817 918 979 q 1264 433 1264 656 q 1140 111 1264 254 q 924 3 1050 9 q 785 77 836 16 q 524 10 689 -4 q 338 220 352 43 q 431 407 328 336 q 656 425 532 462 q 593 564 650 571 q 439 434 509 550 l 294 522 q 691 722 479 789 q 844 503 809 696 l 867 190 q 968 142 889 132 z "},"A":{"ha":795,"x_min":-34,"x_max":822,"o":"m 262 972 l 538 972 l 822 163 l 541 -1 l 502 133 l 283 133 l 231 4 l -34 136 l 262 972 m 333 312 l 486 317 l 434 490 l 392 490 l 333 312 z "},"B":{"ha":796,"x_min":-14,"x_max":819,"o":"m 449 955 q 637 719 650 894 q 532 568 618 640 l 587 555 q 812 317 798 481 q 766 122 819 208 q 105 -3 628 -36 l -14 881 q 449 955 238 998 m 309 747 l 319 654 q 427 743 418 680 q 403 767 424 760 q 309 747 363 776 m 351 227 q 531 303 527 243 q 500 346 538 336 q 346 334 427 363 l 351 227 z "},"C":{"ha":757,"x_min":-54,"x_max":776,"o":"m 414 972 q 764 803 643 1004 l 564 637 q 436 688 500 697 q 267 463 268 654 q 418 323 298 309 q 544 410 473 332 l 776 311 q 389 -2 689 35 q 42 225 173 -24 q -4 391 2 311 q 298 938 -54 745 q 414 972 336 961 z "},"D":{"ha":844,"x_min":-9,"x_max":864,"o":"m 527 953 q 857 602 826 854 q 842 443 864 525 q 500 49 792 217 q 130 -21 309 -26 l -9 910 q 527 953 246 1008 m 354 713 l 401 285 q 592 517 555 351 q 517 690 610 627 q 354 713 430 732 z "},"E":{"ha":765,"x_min":-1,"x_max":779,"o":"m 773 972 l 741 696 l 331 659 l 344 570 l 629 578 l 607 392 l 362 372 l 372 267 l 779 293 l 738 24 q 89 -1 736 11 l -1 915 l 773 972 z "},"F":{"ha":756,"x_min":-15,"x_max":768,"o":"m 768 977 l 736 702 l 336 664 l 342 576 l 625 585 l 604 399 l 360 380 l 397 41 l 98 1 l -15 919 l 768 977 z "},"G":{"ha":754,"x_min":-9,"x_max":768,"o":"m 452 979 q 768 818 671 979 l 563 646 q 429 684 501 684 q 232 488 256 681 q 390 317 238 323 q 474 362 443 323 l 368 385 l 386 507 l 713 551 q 729 390 729 464 q 413 1 729 83 q 301 -4 379 -5 q 12 273 111 -4 q -9 451 -9 342 q 273 945 -4 798 q 452 979 392 979 z "},"H":{"ha":826,"x_min":-1,"x_max":830,"o":"m 515 949 l 769 891 l 830 118 l 553 9 l 543 278 l 288 278 l 271 4 l -1 103 l 58 903 l 326 967 l 310 557 l 524 557 l 515 949 z "},"I":{"ha":572,"x_min":-11,"x_max":559,"o":"m 515 972 l 538 699 q 397 704 466 704 l 418 257 l 559 241 l 532 -5 l 5 -5 l -11 235 l 123 257 l 123 710 l 1 703 l 34 956 l 515 972 z "},"J":{"ha":644,"x_min":-19,"x_max":663,"o":"m 663 994 q 608 309 646 422 q 277 -3 522 20 q -7 234 28 -6 q 64 520 -19 378 l 237 390 q 288 327 240 326 q 362 912 376 335 l 663 994 z "},"K":{"ha":751,"x_min":-7,"x_max":774,"o":"m 519 974 l 652 787 l 460 559 l 774 251 l 530 28 l 301 315 l 285 -5 l -7 96 l 56 920 q 285 963 75 920 l 301 719 l 519 974 z "},"L":{"ha":686,"x_min":-4,"x_max":699,"o":"m 326 974 l 275 287 l 699 292 q 688 30 688 85 l -4 -1 l 33 936 l 326 974 z "},"M":{"ha":1022,"x_min":-8,"x_max":1044,"o":"m 201 972 l 380 972 l 498 753 l 597 972 l 786 972 l 1044 222 l 737 22 l 593 430 l 504 302 l 409 419 l 303 1 l -8 168 l 201 972 z "},"N":{"ha":785,"x_min":4,"x_max":800,"o":"m 800 972 q 690 -1 707 43 l 510 -1 l 290 384 l 251 -1 l 7 -1 q 42 935 4 363 l 279 935 l 434 627 l 524 951 l 800 972 z "},"O":{"ha":825,"x_min":-13,"x_max":843,"o":"m 481 972 q 815 760 720 967 q 838 576 843 676 q 671 134 838 341 q 327 1 536 1 q 9 269 83 21 q -12 450 -13 349 q 326 946 16 817 q 481 972 408 972 m 258 427 q 378 294 273 294 q 574 433 475 294 q 602 582 606 493 q 488 714 602 714 q 275 541 369 714 q 258 427 254 483 z "},"P":{"ha":774,"x_min":-15,"x_max":799,"o":"m 484 964 q 782 750 696 934 q 791 645 799 705 q 543 398 766 473 q 378 375 448 374 l 395 28 l 90 -5 l -15 931 q 484 964 350 983 m 353 695 l 361 589 q 532 647 526 602 q 483 707 538 692 q 353 695 420 715 z "},"Q":{"ha":827,"x_min":-8,"x_max":848,"o":"m 509 972 q 819 760 744 959 q 842 576 842 669 q 725 189 848 358 l 777 131 l 630 1 l 566 53 q 342 1 456 1 q 9 306 88 16 q -8 450 -8 380 q 371 956 -8 810 q 509 972 434 976 m 262 427 q 382 294 277 294 q 440 306 412 297 l 406 438 l 486 501 l 561 410 q 607 582 607 489 q 492 714 607 714 q 279 541 374 714 q 262 427 259 488 z "},"R":{"ha":830,"x_min":-21,"x_max":851,"o":"m 464 966 q 776 775 663 954 q 793 667 796 727 q 628 432 787 543 q 851 155 656 407 l 623 3 l 401 320 l 415 42 l 119 1 l -21 913 q 393 970 62 942 l 464 966 m 365 695 l 376 592 q 538 658 535 605 q 495 699 540 691 q 365 695 443 705 z "},"S":{"ha":714,"x_min":-21,"x_max":749,"o":"m 193 954 q 703 842 450 1021 l 585 627 q 260 667 254 772 q 399 589 281 620 q 740 245 749 445 q 584 36 743 118 q 382 -7 520 3 q 18 109 222 -12 l 112 316 q 420 280 422 191 q 155 425 409 323 q -7 679 -9 515 q 193 954 -21 846 z "},"T":{"ha":726,"x_min":-9,"x_max":743,"o":"m 694 976 q 743 688 724 814 q 509 693 614 693 q 509 1 520 293 l 258 1 q 241 589 236 176 l 240 691 q -9 681 121 691 q 35 970 9 860 q 694 976 312 976 z "},"U":{"ha":714,"x_min":-3,"x_max":725,"o":"m -3 972 l 278 934 q 280 385 269 666 q 353 342 300 329 q 415 907 465 338 l 717 962 q 634 254 725 617 q 321 1 551 16 q 6 456 6 1 l -3 972 z "},"V":{"ha":777,"x_min":-14,"x_max":802,"o":"m 496 972 l 802 811 l 547 0 l 273 -1 l -14 800 q 292 945 40 833 q 405 549 303 925 l 496 972 z "},"W":{"ha":1000,"x_min":-14,"x_max":1023,"o":"m 300 972 l 466 498 l 566 603 l 642 476 l 742 911 l 1023 758 l 814 -1 l 593 -1 l 550 151 l 461 -1 l 274 -1 l -14 823 l 300 972 z "},"X":{"ha":974,"x_min":-22,"x_max":998,"o":"m 859 972 l 998 747 l 773 506 l 950 264 l 692 23 l 494 280 q 253 1 345 93 q -22 163 42 130 q 333 527 172 364 l 108 817 l 387 967 l 574 726 l 859 972 z "},"Y":{"ha":709,"x_min":-20,"x_max":739,"o":"m 177 959 l 386 683 l 522 969 l 739 792 l 346 -5 l 79 186 l 252 475 l -20 788 l 177 959 z "},"Z":{"ha":779,"x_min":-9,"x_max":791,"o":"m 68 970 l 715 970 l 720 834 l 366 267 q 791 319 507 278 l 749 12 l 11 -5 l 5 142 l 366 722 l -9 722 l 68 970 z "},"[":{"ha":751,"x_min":324,"x_max":674,"o":"m 338 -168 l 324 1075 l 674 1068 l 667 985 l 509 985 l 507 -85 l 667 -79 l 674 -161 l 338 -168 z "},"\\":{"ha":435,"x_min":-20,"x_max":460,"o":"m 460 34 l 321 -27 l -20 918 l 119 972 l 460 34 z "},"]":{"ha":3228,"x_min":80,"x_max":430,"o":"m 416 -168 l 80 -161 l 87 -72 l 247 -79 l 245 985 l 87 985 l 80 1068 l 430 1075 l 416 -168 z "},"^":{"ha":688,"x_min":-19,"x_max":734,"o":"m 526 313 l 356 745 l 189 313 l -19 381 l 267 956 l 446 956 l 734 381 l 526 313 z "},"_":{"ha":694,"x_min":0,"x_max":701,"o":"m 7 0 l 701 0 l 694 -149 l 0 -149 l 7 0 z "},"`":{"ha":694,"x_min":200,"x_max":504,"o":"m 504 780 l 456 711 l 200 847 l 215 886 l 357 973 l 504 780 z "},"a":{"ha":597,"x_min":-1,"x_max":614,"o":"m 359 705 q 570 456 530 712 q 614 56 602 227 l 391 -9 l 384 34 q 184 -2 290 -3 q 0 205 13 28 q 195 377 0 353 q 354 378 279 388 q 313 500 349 495 q 145 385 249 502 l -1 501 q 359 705 139 709 m 205 193 q 267 169 216 170 q 368 182 309 170 l 361 248 l 302 248 q 205 193 200 247 z "},"b":{"ha":670,"x_min":-4,"x_max":687,"o":"m 255 981 l 260 622 q 473 675 349 675 q 656 520 601 675 q 666 184 687 373 q 397 -2 629 3 q 236 41 326 -2 l 232 -13 l -4 26 l 12 361 q 7 921 12 609 l 255 981 m 255 204 q 440 265 418 189 q 349 481 461 462 q 262 472 305 484 l 255 204 z "},"c":{"ha":569,"x_min":1,"x_max":602,"o":"m 311 697 q 602 588 492 705 l 465 445 q 350 490 412 491 q 236 370 251 488 q 322 239 229 257 q 454 296 382 228 l 574 181 q 242 -2 455 -4 q 36 136 100 -2 q 1 313 1 212 q 116 634 4 545 q 311 697 183 697 z "},"d":{"ha":692,"x_min":-3,"x_max":692,"o":"m 440 985 q 692 918 684 933 q 681 18 644 349 l 446 -22 l 440 34 q 289 -5 360 -5 l 256 -5 q 21 163 77 -5 q 4 288 9 210 l 0 351 q 81 595 -3 525 q 274 659 165 665 q 408 606 347 656 q 429 979 406 692 l 440 985 m 233 361 l 233 328 q 340 197 239 197 l 413 201 l 406 427 q 294 442 366 450 q 233 361 231 426 z "},"e":{"ha":648,"x_min":-5,"x_max":654,"o":"m 537 639 q 648 405 645 551 l 258 228 q 375 196 284 198 q 602 311 467 194 l 654 137 q 222 -8 456 -61 q -1 296 31 68 q 40 537 -5 441 q 309 691 143 693 q 537 639 444 700 m 203 393 l 431 494 q 267 528 374 562 q 203 393 193 488 z "},"f":{"ha":493,"x_min":-6,"x_max":627,"o":"m 344 977 q 627 948 534 979 l 547 762 q 429 779 488 779 q 271 645 271 779 l 457 639 l 412 438 l 264 437 q 260 39 256 237 l -6 -17 q 62 756 16 484 q 344 977 134 977 z "},"g":{"ha":652,"x_min":-9,"x_max":655,"o":"m 655 707 q 637 172 640 364 q 605 -159 635 -20 q 361 -296 575 -298 q 85 -158 193 -288 l 184 -28 q 339 -71 249 -68 q 409 93 412 -65 q 195 39 325 37 q 10 201 62 39 q -5 399 -9 266 q 75 618 -1 538 q 275 673 146 673 q 425 630 342 673 l 431 682 l 655 707 m 234 392 q 325 250 224 268 q 414 275 387 250 l 414 464 q 330 473 366 475 q 234 392 243 475 z "},"h":{"ha":597,"x_min":9,"x_max":618,"o":"m 222 982 l 218 627 q 485 652 389 693 q 602 383 618 608 q 591 -1 598 267 l 389 0 q 389 336 393 104 q 326 390 378 397 q 237 310 251 390 l 228 -1 l 20 -1 l 15 480 l 9 939 l 222 982 z "},"i":{"ha":387,"x_min":-16,"x_max":418,"o":"m 257 943 q 348 878 336 941 q 159 704 355 707 q 79 787 87 709 q 257 943 67 921 m 288 598 q 242 304 231 426 q 330 269 256 218 l 418 85 q 227 4 349 13 q 3 243 16 -7 q 53 651 -16 415 l 288 598 z "},"j":{"ha":307,"x_min":-192,"x_max":316,"o":"m 300 687 q 311 446 313 568 q 165 -264 316 -180 q 24 -292 132 -290 q -192 -194 -134 -292 l -67 -47 q 22 -47 -33 -79 q 75 195 77 -15 q 58 648 72 404 l 300 687 m 219 930 q 307 860 298 924 q 132 696 309 726 l 109 696 q 33 784 37 705 q 219 930 28 918 z "},"k":{"ha":610,"x_min":5,"x_max":618,"o":"m 347 892 q 306 523 314 668 l 560 648 l 618 473 l 420 350 q 611 153 508 275 l 451 3 l 264 197 q 227 -1 243 89 l 5 -1 q 100 978 62 576 l 347 892 z "},"l":{"ha":393,"x_min":-7,"x_max":432,"o":"m 343 986 q 222 323 222 468 q 271 230 222 230 q 330 263 306 232 l 432 125 q 206 0 368 -3 q 26 104 61 0 q -1 285 -1 172 q 98 970 -7 581 l 343 986 z "},"m":{"ha":963,"x_min":-5,"x_max":964,"o":"m 214 708 l 220 663 q 381 680 320 687 q 526 634 463 673 q 745 703 589 703 q 941 576 867 703 q 964 438 964 509 q 947 -1 964 156 l 741 -1 q 741 382 742 131 q 673 450 735 444 q 599 328 591 448 l 600 -1 l 399 -1 l 397 133 l 396 351 q 335 408 391 400 q 250 324 252 408 l 245 -1 l 12 -1 l 14 323 q -5 669 14 524 l 214 708 z "},"n":{"ha":636,"x_min":-7,"x_max":640,"o":"m 214 718 l 220 666 q 406 698 326 697 q 598 604 530 691 q 638 424 640 531 l 623 -1 l 407 -1 l 411 353 q 350 456 413 450 q 251 393 275 463 q 239 -1 237 321 l 11 -1 l 6 439 q -7 672 6 539 l 214 718 z "},"o":{"ha":641,"x_min":-12,"x_max":646,"o":"m 373 701 q 633 532 570 701 q 644 431 646 492 q 480 69 644 235 q 249 -4 399 -8 q 1 273 24 2 q 178 640 -12 517 q 373 701 281 701 m 224 302 q 295 231 235 231 q 431 368 425 253 q 366 465 436 462 q 224 302 227 441 z "},"p":{"ha":675,"x_min":-4,"x_max":689,"o":"m 244 710 q 255 644 250 705 q 431 688 359 688 q 663 532 603 688 q 679 307 689 439 q 547 87 679 178 q 282 92 425 14 q 244 -281 267 -281 q -4 -216 4 -231 q 33 396 34 168 l 29 677 q 244 710 58 688 m 271 490 l 277 313 l 277 263 l 343 252 q 457 372 453 252 l 458 418 q 354 500 453 503 l 271 490 z "},"q":{"ha":658,"x_min":-16,"x_max":663,"o":"m 433 693 l 657 660 q 663 -254 630 287 l 408 -304 l 402 51 q 248 45 344 43 q 4 233 65 50 q -7 417 -16 341 q 258 665 -1 633 q 430 637 368 671 l 433 693 m 319 483 q 225 391 227 478 q 333 236 228 254 q 408 244 372 233 l 410 467 q 319 483 356 483 z "},"r":{"ha":536,"x_min":-1,"x_max":558,"o":"m 266 705 l 259 527 q 460 654 383 648 l 558 470 q 265 257 348 415 l 273 -1 l -1 -1 l 24 654 l 266 705 z "},"s":{"ha":530,"x_min":-27,"x_max":544,"o":"m 258 705 q 534 548 398 708 l 414 427 q 236 519 295 519 q 196 486 197 512 q 379 384 205 454 q 532 146 544 285 q 357 -3 503 14 q 219 -7 304 -14 q -27 141 78 14 l 81 279 q 242 193 195 193 q 282 216 273 193 q 138 301 282 252 q -4 507 -4 372 q 258 705 2 693 z "},"t":{"ha":457,"x_min":-33,"x_max":484,"o":"m 391 981 l 359 739 l 439 732 l 457 556 l 317 551 q 326 223 237 247 q 380 239 357 220 l 484 87 q 260 -6 391 -6 q 75 114 111 -6 q 81 553 36 280 l -33 557 l -2 736 l 113 744 l 139 955 l 391 981 z "},"u":{"ha":573,"x_min":-4,"x_max":594,"o":"m 235 705 l 216 431 q 286 260 214 254 q 344 511 353 248 l 334 694 l 564 642 q 528 128 594 208 q 264 -3 441 4 q 64 94 148 -3 q 1 340 1 198 q 12 671 -4 464 l 235 705 z "},"v":{"ha":554,"x_min":0,"x_max":555,"o":"m 220 710 l 273 340 q 335 693 307 583 l 555 600 q 393 -1 410 39 l 156 -1 q 0 669 132 20 l 220 710 z "},"w":{"ha":785,"x_min":-7,"x_max":794,"o":"m 222 723 q 285 328 247 643 l 381 402 l 468 328 q 554 683 519 574 q 794 574 775 594 l 667 0 l 478 0 l 388 110 l 295 0 l 146 0 l 56 351 l -7 608 l 222 723 z "},"x":{"ha":723,"x_min":-3,"x_max":736,"o":"m 554 711 l 720 558 l 526 362 l 736 169 l 553 -14 l 360 185 l 153 -14 l -3 142 l 215 362 l 58 557 l 218 686 l 374 524 l 554 711 z "},"y":{"ha":612,"x_min":-1,"x_max":631,"o":"m 604 664 l 628 446 q 464 -94 631 78 q 176 -292 296 -267 l 40 -101 q 345 144 233 2 l 251 144 q 5 362 34 143 q 7 638 -1 502 l 203 687 l 203 633 q 264 355 203 389 q 385 355 342 326 q 361 705 388 536 l 604 664 z "},"z":{"ha":593,"x_min":-2,"x_max":602,"o":"m 568 692 l 573 681 l 573 556 q 311 248 534 506 l 311 243 l 323 248 q 590 260 564 260 q 596 265 590 265 l 602 254 q 562 -2 573 16 q 15 -14 109 -14 l 9 -2 l 9 106 q 3 197 9 139 l 243 459 l 9 459 q -2 471 -2 459 q 66 675 52 655 q 568 692 113 681 z "},"{":{"ha":751,"x_min":231,"x_max":671,"o":"m 231 490 q 318 499 287 494 q 349 557 349 505 l 349 1072 l 671 1075 l 671 1006 l 510 1006 l 506 498 l 429 454 l 429 452 l 507 409 l 510 -99 l 671 -99 l 671 -168 l 349 -170 l 349 349 q 318 407 349 401 q 231 416 287 412 l 231 490 z "},"|":{"ha":751,"x_min":289,"x_max":463,"o":"m 289 1060 l 463 1074 l 463 -274 l 289 -288 l 289 1060 z "},"}":{"ha":751,"x_min":80,"x_max":521,"o":"m 521 416 q 434 407 465 412 q 403 349 403 401 l 403 -170 l 80 -168 l 80 -99 l 245 -100 l 245 409 l 323 452 l 323 454 l 245 498 l 243 1004 l 80 1006 l 80 1075 l 403 1078 l 403 557 q 434 499 403 505 q 521 490 465 494 l 521 416 z "},"~":{"ha":751,"x_min":20,"x_max":724,"o":"m 643 595 l 724 485 q 602 390 654 408 q 509 372 550 372 q 373 405 466 372 q 242 438 280 438 q 174 420 210 438 q 95 343 138 402 l 20 447 q 153 569 104 551 q 242 588 202 588 q 380 554 288 588 q 509 521 473 521 q 577 539 541 521 q 643 595 614 557 z "},"¡":{"ha":267,"x_min":-27,"x_max":249,"o":"m 214 -305 q -27 -220 -17 -230 q 48 413 38 395 q 234 453 64 413 q 239 448 234 448 q 224 -300 234 356 l 214 -305 m 98 488 l 88 488 q 13 559 13 510 q 163 694 13 658 l 178 694 q 249 624 249 694 l 249 609 q 98 488 249 511 z "},"¢":{"ha":569,"x_min":1,"x_max":602,"o":"m 465 445 q 350 490 412 491 q 236 370 251 488 q 322 239 229 257 q 454 296 382 228 l 574 181 q 308 0 496 10 l 292 -72 l 113 -47 l 125 28 q 36 136 70 63 q 1 313 1 212 q 116 634 4 545 q 270 695 172 687 l 283 772 l 430 747 l 423 688 q 602 588 528 666 l 465 445 z "},"£":{"ha":697,"x_min":-2,"x_max":720,"o":"m 359 969 q 699 835 545 969 l 602 646 q 387 734 477 734 q 288 548 241 730 l 477 553 l 483 361 l 311 359 q 275 218 313 277 q 644 239 449 218 l 720 1 q 41 -6 549 -6 q 32 155 26 45 q 97 351 100 296 l -2 358 q 3 547 5 487 l 93 551 q 58 689 56 613 q 95 845 58 772 q 359 969 186 969 z "},"¤":{"ha":751,"x_min":92,"x_max":660,"o":"m 314 413 q 355 391 332 397 q 378 389 368 389 q 402 391 390 389 q 443 413 425 397 q 473 460 464 431 q 478 489 478 475 q 473 517 478 503 q 443 564 464 546 q 401 586 425 580 q 378 589 389 589 q 355 585 366 589 q 314 564 332 579 q 284 518 294 547 q 279 488 279 503 q 283 460 279 475 q 314 413 293 431 m 171 613 l 92 692 l 169 770 l 254 686 q 304 703 261 691 q 377 715 340 715 q 446 705 411 715 q 498 686 490 692 l 583 770 l 660 692 l 581 614 q 616 541 605 578 q 624 486 624 514 q 616 431 624 459 q 581 359 605 394 l 660 280 l 583 202 l 498 286 q 446 267 490 280 q 376 258 411 258 q 307 267 342 258 q 253 286 262 280 l 169 202 l 92 280 l 171 359 q 136 432 146 394 q 128 486 128 459 q 136 543 128 515 q 171 613 147 579 z "},"¥":{"ha":788,"x_min":-13,"x_max":807,"o":"m 191 972 l 399 717 l 603 962 l 807 826 l 502 530 l 501 414 l 610 411 l 602 288 l 500 288 l 500 241 l 602 239 l 608 118 l 499 117 l 498 -5 l 282 -4 l 277 115 l 161 111 l 170 237 l 271 237 l 270 286 l 167 284 l 163 414 l 264 414 l 258 549 l -13 863 l 191 972 z "},"¦":{"ha":751,"x_min":289,"x_max":463,"o":"m 289 252 l 463 252 l 463 -283 l 289 -283 l 289 252 m 289 972 l 463 972 l 463 437 l 289 437 l 289 972 z "},"§":{"ha":751,"x_min":121,"x_max":630,"o":"m 406 225 q 489 365 489 275 l 489 369 q 444 462 488 431 q 350 493 399 493 q 286 467 313 493 q 259 387 259 441 q 406 225 259 300 m 348 -230 q 448 -191 408 -227 q 496 -76 496 -149 q 289 111 496 12 q 163 208 199 158 q 127 324 127 258 q 188 480 127 420 q 308 542 239 530 q 162 644 203 588 q 121 766 121 700 q 183 926 121 862 q 366 990 245 989 q 513 977 457 990 q 570 947 570 964 l 570 811 l 517 811 q 473 904 514 875 q 353 935 433 933 q 280 909 307 935 q 253 829 253 884 q 440 647 253 736 q 586 546 547 599 q 624 422 624 494 q 555 236 624 311 q 481 188 520 206 q 595 99 561 146 q 630 -19 630 52 q 549 -208 630 -130 q 322 -286 467 -286 q 191 -273 247 -286 q 135 -243 135 -260 l 135 -107 l 194 -107 q 237 -199 197 -170 q 348 -230 277 -228 z "},"¨":{"ha":694,"x_min":130,"x_max":594,"o":"m 140 927 l 332 936 l 313 779 l 130 791 l 140 927 m 403 926 l 594 935 l 575 777 l 392 789 l 403 926 z "},"©":{"ha":1135,"x_min":64,"x_max":1072,"o":"m 570 991 q 767 950 673 991 q 932 836 861 909 q 1035 674 999 766 q 1072 487 1072 583 q 1035 300 1072 391 q 929 138 999 210 q 764 23 858 63 q 565 -16 671 -16 q 369 24 461 -16 q 205 139 277 64 q 99 300 135 210 q 64 487 64 389 q 99 674 64 584 q 203 836 135 765 q 368 950 273 909 q 570 991 463 991 m 250 800 q 158 664 194 745 q 123 489 123 582 q 158 315 123 395 q 260 171 194 234 q 400 80 323 111 q 560 50 476 50 q 722 80 645 50 q 863 170 800 111 q 965 315 928 233 q 1001 489 1001 397 q 965 664 1001 581 q 865 808 928 747 q 725 899 803 867 q 563 930 646 930 q 399 899 478 930 q 250 800 320 867 m 560 896 q 846 755 747 922 l 707 675 q 565 724 643 732 q 395 471 399 696 q 557 269 416 272 q 685 341 627 275 l 855 343 q 541 82 785 113 q 257 271 363 63 q 220 410 224 343 q 412 844 178 706 q 560 896 496 887 z "},"ª":{"ha":444,"x_min":-1,"x_max":448,"o":"m 262 976 q 416 794 387 981 q 448 503 439 627 l 286 455 l 280 486 q 134 460 212 460 q -1 611 9 482 q 142 736 -1 720 q 258 737 203 745 q 228 827 254 823 q 106 743 181 828 l -1 827 q 262 976 101 979 m 149 602 q 194 585 157 585 q 268 594 225 586 l 263 643 l 220 642 q 149 602 146 642 z "},"«":{"ha":669,"x_min":118,"x_max":601,"o":"m 118 325 l 290 537 l 390 437 l 251 325 l 390 212 l 290 113 l 118 325 m 329 325 l 500 537 l 601 437 l 462 325 l 601 212 l 500 113 l 329 325 z "},"¬":{"ha":751,"x_min":58,"x_max":680,"o":"m 72 551 l 680 558 l 673 197 l 672 196 l 527 182 l 534 421 l 58 414 l 72 551 z "},"®":{"ha":1135,"x_min":64,"x_max":1072,"o":"m 570 991 q 767 950 673 991 q 932 836 861 909 q 1035 674 999 766 q 1072 487 1072 583 q 1035 300 1072 391 q 929 138 999 210 q 764 23 858 63 q 565 -16 671 -16 q 369 24 461 -16 q 205 139 277 64 q 99 300 135 210 q 64 487 64 389 q 99 674 64 584 q 203 836 135 765 q 368 950 273 909 q 570 991 463 991 m 258 794 q 169 660 204 740 q 134 488 134 579 q 169 317 134 397 q 268 176 204 238 q 406 87 331 117 q 563 57 481 57 q 722 87 646 57 q 860 175 798 117 q 960 318 924 237 q 996 488 996 398 q 960 660 996 578 q 863 801 924 741 q 724 890 801 860 q 566 921 647 921 q 405 890 483 921 q 258 794 328 860 m 604 875 q 860 718 768 865 q 874 629 877 678 q 691 435 869 507 q 925 286 715 415 l 750 125 l 493 407 l 503 128 l 320 81 q 210 831 310 160 q 545 878 279 855 l 604 875 m 466 696 l 479 567 q 678 646 675 583 q 627 701 681 692 q 466 696 566 708 z "},"¯":{"ha":525,"x_min":53,"x_max":478,"o":"m 53 793 l 60 976 l 478 996 l 458 786 l 53 793 z "},"°":{"ha":465,"x_min":-8,"x_max":473,"o":"m 273 972 q 464 848 418 972 q 472 774 473 819 q 352 509 472 630 q 182 455 292 452 q 1 658 18 460 q 130 928 -8 837 q 273 972 206 972 m 130 669 q 204 595 142 595 q 346 737 340 617 q 277 838 351 835 q 130 669 132 814 z "},"±":{"ha":751,"x_min":102,"x_max":663,"o":"m 300 418 l 149 425 l 156 547 l 307 547 l 313 724 l 458 737 l 458 547 l 616 547 l 629 405 l 458 412 l 458 249 l 293 242 l 300 418 m 102 0 l 115 136 l 663 136 l 650 0 l 102 0 z "},"²":{"ha":356,"x_min":-8,"x_max":361,"o":"m 205 976 q 337 864 324 971 q 182 603 346 773 l 361 612 l 347 478 l 12 465 l 17 586 q 210 813 162 741 q 176 852 218 851 q 66 763 138 849 l -8 841 q 205 976 73 976 z "},"³":{"ha":344,"x_min":-9,"x_max":350,"o":"m 178 976 q 314 912 267 976 q 333 831 333 874 q 294 726 333 779 q 350 617 350 688 q 178 473 350 473 q -9 539 80 473 l 41 641 q 182 588 131 588 q 229 625 229 593 q 160 661 229 661 l 114 662 l 117 761 l 171 765 q 210 817 210 781 q 163 854 210 849 q 52 809 117 854 l 3 907 q 178 976 82 976 z "},"´":{"ha":694,"x_min":144,"x_max":479,"o":"m 364 959 l 409 964 l 479 810 l 208 718 l 144 772 l 364 959 z "},"µ":{"ha":588,"x_min":10,"x_max":608,"o":"m 235 705 l 216 431 q 286 260 214 254 q 344 511 353 248 l 334 694 l 557 642 q 555 215 586 345 q 608 196 572 197 q 555 -7 582 61 q 437 35 469 -10 q 234 14 342 -20 l 232 -273 l 10 -269 l 14 340 l 12 671 l 235 705 z "},"¶":{"ha":795,"x_min":66,"x_max":807,"o":"m 807 977 l 793 766 l 748 766 l 748 -11 l 580 -4 l 580 752 l 492 745 l 492 -4 l 322 -18 l 322 457 q 140 537 213 462 q 66 709 66 612 q 144 894 66 825 q 359 964 222 964 l 807 977 z "},"·":{"ha":375,"x_min":100,"x_max":276,"o":"m 100 486 q 125 549 100 523 q 188 574 151 574 q 250 549 224 574 q 276 486 276 523 q 250 424 276 450 q 188 398 224 398 q 125 424 151 398 q 100 486 100 450 z "},"¸":{"ha":724,"x_min":234,"x_max":547,"o":"m 261 -168 q 359 -209 319 -209 q 412 -197 396 -209 q 427 -170 427 -186 q 399 -138 427 -149 q 330 -130 379 -130 q 293 -132 313 -130 l 330 0 l 422 0 l 399 -59 q 422 -58 400 -58 q 511 -88 475 -58 q 547 -169 547 -119 q 504 -255 547 -222 q 384 -288 460 -288 q 234 -248 306 -288 l 261 -168 z "},"¹":{"ha":212,"x_min":-3,"x_max":211,"o":"m 211 987 l 185 461 l 33 485 l 62 840 l -3 836 l 15 974 l 211 987 z "},"º":{"ha":465,"x_min":-8,"x_max":473,"o":"m 273 972 q 464 848 418 972 q 472 774 473 819 q 352 509 472 630 q 182 455 292 452 q 1 658 18 460 q 130 928 -8 837 q 273 972 206 972 m 164 680 q 216 628 173 628 q 317 728 312 644 q 268 799 320 797 q 164 680 166 782 z "},"»":{"ha":669,"x_min":68,"x_max":551,"o":"m 380 113 l 279 212 l 418 325 l 279 437 l 380 537 l 551 325 l 380 113 m 169 113 l 68 212 l 208 325 l 68 437 l 169 537 l 340 325 l 169 113 z "},"¼":{"ha":783,"x_min":-32,"x_max":795,"o":"m 211 987 l 185 461 l 33 485 l 62 840 l -3 836 l 15 974 l 211 987 m 107 -41 l -32 -14 l 611 979 l 750 952 l 107 -41 m 758 448 l 743 192 l 795 193 l 777 80 l 741 80 l 728 -77 l 595 -54 l 604 80 l 414 79 l 411 189 l 627 450 l 758 448 m 621 288 l 550 192 l 619 192 l 628 288 l 621 288 z "},"½":{"ha":781,"x_min":-32,"x_max":789,"o":"m 211 987 l 185 461 l 33 485 l 62 840 l -3 836 l 15 974 l 211 987 m 107 -41 l -32 -14 l 611 979 l 750 952 l 107 -41 m 637 488 q 766 378 753 483 q 614 123 775 290 l 789 132 l 775 2 l 449 -11 l 454 107 q 642 329 595 258 q 609 368 650 366 q 503 280 572 364 l 429 356 q 637 488 508 488 z "},"¾":{"ha":870,"x_min":-9,"x_max":877,"o":"m 189 -41 l 50 -14 l 692 979 l 831 952 l 189 -41 m 839 448 l 825 192 l 877 193 l 859 80 l 822 80 l 810 -77 l 676 -54 l 686 80 l 495 79 l 492 189 l 708 450 l 839 448 m 702 288 l 631 192 l 701 192 l 709 288 l 702 288 m 178 976 q 314 912 267 976 q 333 831 333 874 q 294 726 333 779 q 350 617 350 688 q 178 473 350 473 q -9 539 80 473 l 41 641 q 182 588 131 588 q 229 625 229 593 q 160 661 229 661 l 114 662 l 117 761 l 171 765 q 210 817 210 781 q 163 854 210 849 q 52 809 117 854 l 3 907 q 178 976 82 976 z "},"¿":{"ha":628,"x_min":2,"x_max":618,"o":"m 243 -296 q 618 -50 474 -296 l 490 84 l 484 84 q 310 -75 369 -75 q 233 -14 244 -75 l 233 -8 q 279 68 233 20 q 464 371 464 258 q 454 464 464 437 l 264 407 q 228 315 254 339 q 2 -80 2 64 l 2 -101 l 7 -132 q 223 -296 63 -296 l 243 -296 m 284 484 q 444 612 415 484 q 376 694 434 694 l 356 694 q 202 561 202 659 l 202 551 q 279 484 202 506 l 284 484 z "},"À":{"ha":795,"x_min":-34,"x_max":822,"o":"m 262 972 l 538 972 l 822 163 l 541 -1 l 502 133 l 283 133 l 231 4 l -34 136 l 262 972 m 333 312 l 486 317 l 434 490 l 392 490 l 333 312 m 500 1058 l 452 989 l 196 1125 l 211 1164 l 353 1251 l 500 1058 z "},"Á":{"ha":795,"x_min":-34,"x_max":822,"o":"m 262 972 l 538 972 l 822 163 l 541 -1 l 502 133 l 283 133 l 231 4 l -34 136 l 262 972 m 333 312 l 486 317 l 434 490 l 392 490 l 333 312 m 515 1237 l 559 1242 l 629 1088 l 359 996 l 294 1050 l 515 1237 z "},"Â":{"ha":795,"x_min":-34,"x_max":822,"o":"m 262 972 l 538 972 l 822 163 l 541 -1 l 502 133 l 283 133 l 231 4 l -34 136 l 262 972 m 333 312 l 486 317 l 434 490 l 392 490 l 333 312 m 191 1030 l 357 1253 l 458 1253 l 625 1030 l 456 1010 l 408 1088 l 353 1010 l 191 1030 z "},"Ã":{"ha":795,"x_min":-34,"x_max":822,"o":"m 262 972 l 538 972 l 822 163 l 541 -1 l 502 133 l 283 133 l 231 4 l -34 136 l 262 972 m 333 312 l 486 317 l 434 490 l 392 490 l 333 312 m 646 1221 l 652 1168 q 487 1011 650 1011 q 368 1060 417 1014 q 285 1096 319 1106 q 210 1038 244 1089 l 139 1103 q 323 1215 224 1215 q 409 1176 355 1215 q 516 1137 464 1137 q 551 1204 555 1144 l 646 1221 z "},"Ä":{"ha":795,"x_min":-34,"x_max":822,"o":"m 262 972 l 538 972 l 822 163 l 541 -1 l 502 133 l 283 133 l 231 4 l -34 136 l 262 972 m 333 312 l 486 317 l 434 490 l 392 490 l 333 312 m 182 1205 l 373 1214 l 354 1057 l 171 1069 l 182 1205 m 444 1204 l 635 1213 l 616 1055 l 433 1067 l 444 1204 z "},"Å":{"ha":795,"x_min":-34,"x_max":822,"o":"m 262 972 l 538 972 l 822 163 l 541 -1 l 502 133 l 283 133 l 231 4 l -34 136 l 262 972 m 333 312 l 486 317 l 434 490 l 392 490 l 333 312 m 349 1142 q 367 1099 349 1116 q 408 1083 385 1083 q 448 1099 429 1083 q 466 1142 466 1116 q 447 1184 466 1168 q 408 1200 429 1200 q 367 1184 386 1200 q 349 1142 349 1168 m 273 1142 q 310 1234 273 1195 q 407 1274 348 1274 q 505 1234 467 1274 q 543 1142 543 1194 q 505 1049 543 1088 q 407 1010 467 1010 q 310 1049 348 1010 q 273 1142 273 1088 z "},"Æ":{"ha":1215,"x_min":-34,"x_max":1257,"o":"m 262 972 l 538 972 l 822 163 l 541 -1 l 502 133 l 283 133 l 231 4 l -34 136 l 262 972 m 333 312 l 486 317 l 434 490 l 392 490 l 333 312 m 1251 972 l 1219 696 l 808 659 l 821 570 l 1106 578 l 1084 392 l 840 372 l 850 267 l 1257 293 l 1215 24 q 566 -1 1213 11 l 476 915 l 1251 972 z "},"Ç":{"ha":757,"x_min":-54,"x_max":776,"o":"m 414 972 q 764 803 643 1004 l 564 637 q 436 688 500 697 q 267 463 268 654 q 418 323 298 309 q 544 410 473 332 l 776 311 q 389 -2 689 35 q 42 225 173 -24 q -4 391 2 311 q 298 938 -54 745 q 414 972 336 961 m 250 -168 q 347 -209 308 -209 q 400 -197 385 -209 q 416 -170 416 -186 q 388 -138 416 -149 q 318 -130 368 -130 q 281 -132 302 -130 l 318 0 l 411 0 l 387 -59 q 410 -58 389 -58 q 499 -88 463 -58 q 536 -169 536 -119 q 492 -255 536 -222 q 372 -288 449 -288 q 222 -248 294 -288 l 250 -168 z "},"È":{"ha":765,"x_min":-1,"x_max":779,"o":"m 773 972 l 741 696 l 331 659 l 344 570 l 629 578 l 607 392 l 362 372 l 372 267 l 779 293 l 738 24 q 89 -1 736 11 l -1 915 l 773 972 m 479 1058 l 432 989 l 176 1125 l 191 1164 l 332 1251 l 479 1058 z "},"É":{"ha":765,"x_min":-1,"x_max":779,"o":"m 773 972 l 741 696 l 331 659 l 344 570 l 629 578 l 607 392 l 362 372 l 372 267 l 779 293 l 738 24 q 89 -1 736 11 l -1 915 l 773 972 m 495 1237 l 540 1242 l 610 1088 l 339 996 l 275 1050 l 495 1237 z "},"Ê":{"ha":765,"x_min":-1,"x_max":779,"o":"m 773 972 l 741 696 l 331 659 l 344 570 l 629 578 l 607 392 l 362 372 l 372 267 l 779 293 l 738 24 q 89 -1 736 11 l -1 915 l 773 972 m 171 1030 l 337 1253 l 438 1253 l 604 1030 l 435 1010 l 388 1088 l 333 1010 l 171 1030 z "},"Ë":{"ha":765,"x_min":-1,"x_max":779,"o":"m 773 972 l 741 696 l 331 659 l 344 570 l 629 578 l 607 392 l 362 372 l 372 267 l 779 293 l 738 24 q 89 -1 736 11 l -1 915 l 773 972 m 162 1205 l 353 1214 l 334 1057 l 151 1069 l 162 1205 m 425 1204 l 616 1213 l 597 1055 l 414 1067 l 425 1204 z "},"Ì":{"ha":572,"x_min":-11,"x_max":559,"o":"m 515 972 l 538 699 q 397 704 466 704 l 418 257 l 559 241 l 532 -5 l 5 -5 l -11 235 l 123 257 l 123 710 l 1 703 l 34 956 l 515 972 m 366 1058 l 319 989 l 62 1125 l 77 1164 l 219 1251 l 366 1058 z "},"Í":{"ha":572,"x_min":-11,"x_max":559,"o":"m 515 972 l 538 699 q 397 704 466 704 l 418 257 l 559 241 l 532 -5 l 5 -5 l -11 235 l 123 257 l 123 710 l 1 703 l 34 956 l 515 972 m 382 1237 l 427 1242 l 496 1088 l 226 996 l 161 1050 l 382 1237 z "},"Î":{"ha":572,"x_min":-11,"x_max":559,"o":"m 515 972 l 538 699 q 397 704 466 704 l 418 257 l 559 241 l 532 -5 l 5 -5 l -11 235 l 123 257 l 123 710 l 1 703 l 34 956 l 515 972 m 58 1030 l 224 1253 l 325 1253 l 491 1030 l 322 1010 l 275 1088 l 220 1010 l 58 1030 z "},"Ï":{"ha":572,"x_min":-11,"x_max":559,"o":"m 515 972 l 538 699 q 397 704 466 704 l 418 257 l 559 241 l 532 -5 l 5 -5 l -11 235 l 123 257 l 123 710 l 1 703 l 34 956 l 515 972 m 49 1205 l 240 1214 l 221 1057 l 38 1069 l 49 1205 m 311 1204 l 503 1213 l 484 1055 l 300 1067 l 311 1204 z "},"Ð":{"ha":874,"x_min":-28,"x_max":898,"o":"m 403 389 l 414 285 q 606 517 569 351 q 531 690 624 627 q 368 713 444 732 l 382 585 l 467 596 l 481 410 l 403 389 m 80 541 l 25 910 q 561 953 280 1008 q 890 602 860 854 q 876 443 898 525 q 534 49 826 217 q 163 -21 343 -26 l 115 307 l 27 283 l -28 527 l 80 541 z "},"Ñ":{"ha":785,"x_min":4,"x_max":800,"o":"m 800 972 q 690 -1 707 43 l 510 -1 l 290 384 l 251 -1 l 7 -1 q 42 935 4 363 l 279 935 l 434 627 l 524 951 l 800 972 m 639 1221 l 645 1168 q 480 1011 644 1011 q 361 1060 410 1014 q 278 1096 312 1106 q 203 1038 237 1089 l 132 1103 q 317 1215 217 1215 q 402 1176 348 1215 q 509 1137 457 1137 q 545 1204 549 1144 l 639 1221 z "},"Ò":{"ha":825,"x_min":-13,"x_max":843,"o":"m 481 972 q 815 760 720 967 q 838 576 843 676 q 671 134 838 341 q 327 1 536 1 q 9 269 83 21 q -12 450 -13 349 q 326 946 16 817 q 481 972 408 972 m 258 427 q 378 294 273 294 q 574 433 475 294 q 602 582 606 493 q 488 714 602 714 q 275 541 369 714 q 258 427 254 483 m 505 1058 l 458 989 l 201 1125 l 216 1164 l 358 1251 l 505 1058 z "},"Ó":{"ha":825,"x_min":-13,"x_max":843,"o":"m 481 972 q 815 760 720 967 q 838 576 843 676 q 671 134 838 341 q 327 1 536 1 q 9 269 83 21 q -12 450 -13 349 q 326 946 16 817 q 481 972 408 972 m 258 427 q 378 294 273 294 q 574 433 475 294 q 602 582 606 493 q 488 714 602 714 q 275 541 369 714 q 258 427 254 483 m 520 1237 l 565 1242 l 635 1088 l 364 996 l 300 1050 l 520 1237 z "},"Ô":{"ha":825,"x_min":-13,"x_max":843,"o":"m 481 972 q 815 760 720 967 q 838 576 843 676 q 671 134 838 341 q 327 1 536 1 q 9 269 83 21 q -12 450 -13 349 q 326 946 16 817 q 481 972 408 972 m 258 427 q 378 294 273 294 q 574 433 475 294 q 602 582 606 493 q 488 714 602 714 q 275 541 369 714 q 258 427 254 483 m 197 1030 l 363 1253 l 464 1253 l 630 1030 l 461 1010 l 414 1088 l 359 1010 l 197 1030 z "},"Õ":{"ha":825,"x_min":-13,"x_max":843,"o":"m 481 972 q 815 760 720 967 q 838 576 843 676 q 671 134 838 341 q 327 1 536 1 q 9 269 83 21 q -12 450 -13 349 q 326 946 16 817 q 481 972 408 972 m 258 427 q 378 294 273 294 q 574 433 475 294 q 602 582 606 493 q 488 714 602 714 q 275 541 369 714 q 258 427 254 483 m 651 1221 l 657 1168 q 492 1011 656 1011 q 373 1060 422 1014 q 290 1096 324 1106 q 216 1038 250 1089 l 144 1103 q 329 1215 229 1215 q 415 1176 360 1215 q 522 1137 469 1137 q 557 1204 561 1144 l 651 1221 z "},"Ö":{"ha":825,"x_min":-13,"x_max":843,"o":"m 481 972 q 815 760 720 967 q 838 576 843 676 q 671 134 838 341 q 327 1 536 1 q 9 269 83 21 q -12 450 -13 349 q 326 946 16 817 q 481 972 408 972 m 258 427 q 378 294 273 294 q 574 433 475 294 q 602 582 606 493 q 488 714 602 714 q 275 541 369 714 q 258 427 254 483 m 187 1205 l 378 1214 l 359 1057 l 176 1069 l 187 1205 m 450 1204 l 641 1213 l 622 1055 l 439 1067 l 450 1204 z "},"×":{"ha":751,"x_min":109,"x_max":635,"o":"m 369 376 l 206 213 l 109 344 l 258 486 l 109 622 l 213 766 l 376 604 l 538 766 l 622 622 l 486 493 l 635 351 l 538 206 l 369 376 z "},"Ø":{"ha":825,"x_min":-82,"x_max":916,"o":"m 481 972 q 661 927 575 970 l 749 1000 l 916 825 l 829 749 q 838 576 843 676 q 671 134 838 341 q 327 1 536 1 q 146 62 220 10 l 65 -7 l -82 163 l 9 269 q -12 450 -13 349 q 326 946 16 817 q 481 972 408 972 m 258 427 q 378 294 273 294 q 574 433 475 294 q 602 582 606 493 q 488 714 602 714 q 275 541 369 714 q 258 427 254 483 z "},"Ù":{"ha":714,"x_min":-3,"x_max":725,"o":"m -3 972 l 278 934 q 280 385 269 666 q 353 342 300 329 q 415 907 465 338 l 717 962 q 634 254 725 617 q 321 1 551 16 q 6 456 6 1 l -3 972 m 456 1058 l 409 989 l 153 1125 l 168 1164 l 309 1251 l 456 1058 z "},"Ú":{"ha":714,"x_min":-3,"x_max":725,"o":"m -3 972 l 278 934 q 280 385 269 666 q 353 342 300 329 q 415 907 465 338 l 717 962 q 634 254 725 617 q 321 1 551 16 q 6 456 6 1 l -3 972 m 471 1237 l 516 1242 l 586 1088 l 315 996 l 251 1050 l 471 1237 z "},"Û":{"ha":714,"x_min":-3,"x_max":725,"o":"m -3 972 l 278 934 q 280 385 269 666 q 353 342 300 329 q 415 907 465 338 l 717 962 q 634 254 725 617 q 321 1 551 16 q 6 456 6 1 l -3 972 m 148 1030 l 314 1253 l 415 1253 l 581 1030 l 412 1010 l 365 1088 l 310 1010 l 148 1030 z "},"Ü":{"ha":714,"x_min":-3,"x_max":725,"o":"m -3 972 l 278 934 q 280 385 269 666 q 353 342 300 329 q 415 907 465 338 l 717 962 q 634 254 725 617 q 321 1 551 16 q 6 456 6 1 l -3 972 m 138 1205 l 330 1214 l 311 1057 l 127 1069 l 138 1205 m 401 1204 l 592 1213 l 573 1055 l 390 1067 l 401 1204 z "},"Ý":{"ha":709,"x_min":-20,"x_max":739,"o":"m 177 959 l 386 683 l 522 969 l 739 792 l 346 -5 l 79 186 l 252 475 l -20 788 l 177 959 m 505 1237 l 549 1242 l 619 1088 l 349 996 l 284 1050 l 505 1237 z "},"Þ":{"ha":770,"x_min":-2,"x_max":783,"o":"m 434 939 q 775 602 745 873 q 761 443 783 525 q 419 62 711 217 q 328 25 375 33 l 332 -45 l 31 -77 l -2 1022 l 229 1056 l 239 966 q 434 939 323 964 m 271 731 l 306 285 q 511 517 474 351 q 414 719 544 661 q 271 731 356 732 z "},"ß":{"ha":849,"x_min":-14,"x_max":864,"o":"m 490 955 q 677 719 690 894 q 572 562 659 640 l 628 549 q 852 303 839 474 q 806 95 864 178 q 469 -26 732 9 q 436 187 446 35 q 631 269 628 214 q 420 366 607 388 q 385 571 402 486 q 439 655 427 625 q 324 725 490 759 q 333 -210 347 -210 q 61 -208 178 -215 q 88 687 87 150 l 53 684 l -14 881 q 490 955 279 998 z "},"à":{"ha":597,"x_min":-1,"x_max":614,"o":"m 359 705 q 570 456 530 712 q 614 56 602 227 l 391 -9 l 384 34 q 184 -2 290 -3 q 0 205 13 28 q 195 377 0 353 q 354 378 279 388 q 313 500 349 495 q 145 385 249 502 l -1 501 q 359 705 139 709 m 205 193 q 267 169 216 170 q 368 182 309 170 l 361 248 l 302 248 q 205 193 200 247 m 399 780 l 352 711 l 96 847 l 111 886 l 252 973 l 399 780 z "},"á":{"ha":597,"x_min":-1,"x_max":614,"o":"m 359 705 q 570 456 530 712 q 614 56 602 227 l 391 -9 l 384 34 q 184 -2 290 -3 q 0 205 13 28 q 195 377 0 353 q 354 378 279 388 q 313 500 349 495 q 145 385 249 502 l -1 501 q 359 705 139 709 m 205 193 q 267 169 216 170 q 368 182 309 170 l 361 248 l 302 248 q 205 193 200 247 m 414 959 l 459 964 l 529 810 l 258 718 l 194 772 l 414 959 z "},"â":{"ha":597,"x_min":-1,"x_max":614,"o":"m 359 705 q 570 456 530 712 q 614 56 602 227 l 391 -9 l 384 34 q 184 -2 290 -3 q 0 205 13 28 q 195 377 0 353 q 354 378 279 388 q 313 500 349 495 q 145 385 249 502 l -1 501 q 359 705 139 709 m 205 193 q 267 169 216 170 q 368 182 309 170 l 361 248 l 302 248 q 205 193 200 247 m 91 752 l 257 975 l 358 975 l 524 752 l 355 732 l 308 810 l 253 732 l 91 752 z "},"ã":{"ha":597,"x_min":-1,"x_max":614,"o":"m 359 705 q 570 456 530 712 q 614 56 602 227 l 391 -9 l 384 34 q 184 -2 290 -3 q 0 205 13 28 q 195 377 0 353 q 354 378 279 388 q 313 500 349 495 q 145 385 249 502 l -1 501 q 359 705 139 709 m 205 193 q 267 169 216 170 q 368 182 309 170 l 361 248 l 302 248 q 205 193 200 247 m 545 943 l 551 890 q 387 733 550 733 q 268 782 317 736 q 184 818 218 828 q 110 760 144 811 l 39 825 q 223 937 123 937 q 309 898 254 937 q 416 859 363 859 q 451 926 455 866 l 545 943 z "},"ä":{"ha":597,"x_min":-1,"x_max":614,"o":"m 359 705 q 570 456 530 712 q 614 56 602 227 l 391 -9 l 384 34 q 184 -2 290 -3 q 0 205 13 28 q 195 377 0 353 q 354 378 279 388 q 313 500 349 495 q 145 385 249 502 l -1 501 q 359 705 139 709 m 205 193 q 267 169 216 170 q 368 182 309 170 l 361 248 l 302 248 q 205 193 200 247 m 81 927 l 273 936 l 254 779 l 71 791 l 81 927 m 344 926 l 535 935 l 516 777 l 333 789 l 344 926 z "},"å":{"ha":597,"x_min":-1,"x_max":614,"o":"m 359 705 q 570 456 530 712 q 614 56 602 227 l 391 -9 l 384 34 q 184 -2 290 -3 q 0 205 13 28 q 195 377 0 353 q 354 378 279 388 q 313 500 349 495 q 145 385 249 502 l -1 501 q 359 705 139 709 m 205 193 q 267 169 216 170 q 368 182 309 170 l 361 248 l 302 248 q 205 193 200 247 m 248 864 q 267 821 248 838 q 307 805 285 805 q 347 821 329 805 q 366 864 366 838 q 347 906 366 890 q 307 922 328 922 q 267 906 286 922 q 248 864 248 890 m 172 864 q 210 956 172 917 q 307 996 248 996 q 405 956 367 996 q 443 864 443 916 q 405 771 443 810 q 307 732 367 732 q 210 771 248 732 q 172 864 172 810 z "},"æ":{"ha":1034,"x_min":-1,"x_max":1040,"o":"m 359 705 q 570 456 530 712 q 614 56 602 227 l 391 -9 l 384 34 q 184 -2 290 -3 q 0 205 13 28 q 195 377 0 353 q 354 378 279 388 q 313 500 349 495 q 145 385 249 502 l -1 501 q 359 705 139 709 m 205 193 q 267 169 216 170 q 368 182 309 170 l 361 248 l 302 248 q 205 193 200 247 m 924 639 q 1034 405 1031 551 l 645 228 q 762 196 671 198 q 989 311 853 194 l 1040 137 q 609 -8 842 -61 q 386 296 417 68 q 427 537 381 441 q 696 691 530 693 q 924 639 831 700 m 589 393 l 818 494 q 654 528 761 562 q 589 393 580 488 z "},"ç":{"ha":569,"x_min":1,"x_max":602,"o":"m 311 697 q 602 588 492 705 l 465 445 q 350 490 412 491 q 236 370 251 488 q 322 239 229 257 q 454 296 382 228 l 574 181 q 242 -2 455 -4 q 36 136 100 -2 q 1 313 1 212 q 116 634 4 545 q 311 697 183 697 m 172 -168 q 270 -209 231 -209 q 323 -197 307 -209 q 338 -170 338 -186 q 311 -138 338 -149 q 241 -130 290 -130 q 204 -132 224 -130 l 241 0 l 334 0 l 310 -59 q 333 -58 311 -58 q 422 -88 386 -58 q 458 -169 458 -119 q 415 -255 458 -222 q 295 -288 372 -288 q 145 -248 217 -288 l 172 -168 z "},"è":{"ha":648,"x_min":-5,"x_max":654,"o":"m 537 639 q 648 405 645 551 l 258 228 q 375 196 284 198 q 602 311 467 194 l 654 137 q 222 -8 456 -61 q -1 296 31 68 q 40 537 -5 441 q 309 691 143 693 q 537 639 444 700 m 203 393 l 431 494 q 267 528 374 562 q 203 393 193 488 m 433 780 l 386 711 l 130 847 l 144 886 l 286 973 l 433 780 z "},"é":{"ha":648,"x_min":-5,"x_max":654,"o":"m 537 639 q 648 405 645 551 l 258 228 q 375 196 284 198 q 602 311 467 194 l 654 137 q 222 -8 456 -61 q -1 296 31 68 q 40 537 -5 441 q 309 691 143 693 q 537 639 444 700 m 203 393 l 431 494 q 267 528 374 562 q 203 393 193 488 m 448 959 l 493 964 l 563 810 l 292 718 l 228 772 l 448 959 z "},"ê":{"ha":648,"x_min":-5,"x_max":654,"o":"m 537 639 q 648 405 645 551 l 258 228 q 375 196 284 198 q 602 311 467 194 l 654 137 q 222 -8 456 -61 q -1 296 31 68 q 40 537 -5 441 q 309 691 143 693 q 537 639 444 700 m 203 393 l 431 494 q 267 528 374 562 q 203 393 193 488 m 125 752 l 291 975 l 392 975 l 558 752 l 389 732 l 342 810 l 287 732 l 125 752 z "},"ë":{"ha":648,"x_min":-5,"x_max":654,"o":"m 537 639 q 648 405 645 551 l 258 228 q 375 196 284 198 q 602 311 467 194 l 654 137 q 222 -8 456 -61 q -1 296 31 68 q 40 537 -5 441 q 309 691 143 693 q 537 639 444 700 m 203 393 l 431 494 q 267 528 374 562 q 203 393 193 488 m 115 927 l 307 936 l 288 779 l 104 791 l 115 927 m 378 926 l 569 935 l 550 777 l 367 789 l 378 926 z "},"ì":{"ha":404,"x_min":3,"x_max":425,"o":"m 286 585 q 231 323 243 481 q 258 229 225 240 q 319 246 290 218 l 425 93 q 208 -6 382 -3 q 3 244 3 -6 q 75 649 3 465 l 286 585 m 324 780 l 277 711 l 20 847 l 35 886 l 177 973 l 324 780 z "},"í":{"ha":404,"x_min":3,"x_max":429,"o":"m 286 585 q 231 323 243 481 q 258 229 225 240 q 319 246 290 218 l 425 93 q 208 -6 382 -3 q 3 244 3 -6 q 75 649 3 465 l 286 585 m 314 959 l 359 964 l 429 810 l 158 718 l 94 772 l 314 959 z "},"î":{"ha":404,"x_min":-3,"x_max":431,"o":"m 286 585 q 231 323 243 481 q 258 229 225 240 q 319 246 290 218 l 425 93 q 208 -6 382 -3 q 3 244 3 -6 q 75 649 3 465 l 286 585 m -3 752 l 163 975 l 264 975 l 431 752 l 262 732 l 214 810 l 159 732 l -3 752 z "},"ï":{"ha":404,"x_min":-22,"x_max":442,"o":"m 286 585 q 231 323 243 481 q 258 229 225 240 q 319 246 290 218 l 425 93 q 208 -6 382 -3 q 3 244 3 -6 q 75 649 3 465 l 286 585 m -12 927 l 180 936 l 161 779 l -22 791 l -12 927 m 251 926 l 442 935 l 423 777 l 240 789 l 251 926 z "},"ð":{"ha":691,"x_min":-20,"x_max":703,"o":"m 699 416 q 695 294 703 336 q 434 3 630 14 q 100 70 233 -23 q -9 352 -20 197 q 237 625 -1 570 q 446 583 363 631 q 409 680 443 645 l 257 665 q 176 738 236 691 l 291 766 l 225 804 l 326 946 q 526 840 409 949 l 641 862 q 696 716 676 766 l 621 714 q 699 416 689 609 m 225 296 q 340 201 237 201 q 450 392 469 245 q 361 448 444 447 q 225 296 239 433 z "},"ñ":{"ha":636,"x_min":-7,"x_max":640,"o":"m 214 718 l 220 666 q 406 698 326 697 q 598 604 530 691 q 638 424 640 531 l 623 -1 l 407 -1 l 411 353 q 350 456 413 450 q 251 393 275 463 q 239 -1 237 321 l 11 -1 l 6 439 q -7 672 6 539 l 214 718 m 564 943 l 570 890 q 406 733 569 733 q 287 782 336 736 q 203 818 237 828 q 129 760 163 811 l 58 825 q 242 937 142 937 q 328 898 273 937 q 435 859 382 859 q 470 926 474 866 l 564 943 z "},"ò":{"ha":641,"x_min":-12,"x_max":646,"o":"m 373 701 q 633 532 570 701 q 644 431 646 492 q 480 69 644 235 q 249 -4 399 -8 q 1 273 24 2 q 178 640 -12 517 q 373 701 281 701 m 224 302 q 295 231 235 231 q 431 368 425 253 q 366 465 436 462 q 224 302 227 441 m 414 780 l 367 711 l 111 847 l 125 886 l 267 973 l 414 780 z "},"ó":{"ha":641,"x_min":-12,"x_max":646,"o":"m 373 701 q 633 532 570 701 q 644 431 646 492 q 480 69 644 235 q 249 -4 399 -8 q 1 273 24 2 q 178 640 -12 517 q 373 701 281 701 m 224 302 q 295 231 235 231 q 431 368 425 253 q 366 465 436 462 q 224 302 227 441 m 429 959 l 474 964 l 544 810 l 273 718 l 209 772 l 429 959 z "},"ô":{"ha":641,"x_min":-12,"x_max":646,"o":"m 373 701 q 633 532 570 701 q 644 431 646 492 q 480 69 644 235 q 249 -4 399 -8 q 1 273 24 2 q 178 640 -12 517 q 373 701 281 701 m 224 302 q 295 231 235 231 q 431 368 425 253 q 366 465 436 462 q 224 302 227 441 m 106 752 l 272 975 l 373 975 l 539 752 l 370 732 l 323 810 l 268 732 l 106 752 z "},"õ":{"ha":641,"x_min":-12,"x_max":646,"o":"m 373 701 q 633 532 570 701 q 644 431 646 492 q 480 69 644 235 q 249 -4 399 -8 q 1 273 24 2 q 178 640 -12 517 q 373 701 281 701 m 224 302 q 295 231 235 231 q 431 368 425 253 q 366 465 436 462 q 224 302 227 441 m 560 943 l 566 890 q 401 733 565 733 q 282 782 332 736 q 199 818 233 828 q 125 760 159 811 l 54 825 q 238 937 138 937 q 324 898 269 937 q 431 859 378 859 q 466 926 470 866 l 560 943 z "},"ö":{"ha":641,"x_min":-12,"x_max":646,"o":"m 373 701 q 633 532 570 701 q 644 431 646 492 q 480 69 644 235 q 249 -4 399 -8 q 1 273 24 2 q 178 640 -12 517 q 373 701 281 701 m 224 302 q 295 231 235 231 q 431 368 425 253 q 366 465 436 462 q 224 302 227 441 m 96 927 l 288 936 l 269 779 l 85 791 l 96 927 m 359 926 l 550 935 l 531 777 l 348 789 l 359 926 z "},"÷":{"ha":751,"x_min":102,"x_max":663,"o":"m 102 405 l 115 541 l 663 541 l 650 405 l 102 405 m 252 348 l 456 343 l 437 186 l 241 198 l 252 348 m 252 773 l 456 768 l 437 611 l 241 623 l 252 773 z "},"ø":{"ha":641,"x_min":-12,"x_max":652,"o":"m 373 701 q 490 682 439 701 l 549 711 q 652 605 616 677 l 625 550 q 644 431 646 492 q 480 69 644 235 q 249 -4 399 -8 q 172 -42 231 -3 q 12 56 66 -28 q 43 114 47 104 q 1 273 9 176 q 178 640 -12 517 q 373 701 281 701 m 224 302 q 295 231 235 231 q 431 368 425 253 q 366 465 436 462 q 224 302 227 441 z "},"ù":{"ha":573,"x_min":-4,"x_max":594,"o":"m 235 705 l 216 431 q 286 260 214 254 q 344 511 353 248 l 334 694 l 564 642 q 528 128 594 208 q 264 -3 441 4 q 64 94 148 -3 q 1 340 1 198 q 12 671 -4 464 l 235 705 m 371 780 l 323 711 l 67 847 l 82 886 l 224 973 l 371 780 z "},"ú":{"ha":573,"x_min":-4,"x_max":594,"o":"m 235 705 l 216 431 q 286 260 214 254 q 344 511 353 248 l 334 694 l 564 642 q 528 128 594 208 q 264 -3 441 4 q 64 94 148 -3 q 1 340 1 198 q 12 671 -4 464 l 235 705 m 386 959 l 431 964 l 500 810 l 230 718 l 165 772 l 386 959 z "},"û":{"ha":573,"x_min":-4,"x_max":594,"o":"m 235 705 l 216 431 q 286 260 214 254 q 344 511 353 248 l 334 694 l 564 642 q 528 128 594 208 q 264 -3 441 4 q 64 94 148 -3 q 1 340 1 198 q 12 671 -4 464 l 235 705 m 62 752 l 229 975 l 330 975 l 496 752 l 327 732 l 279 810 l 224 732 l 62 752 z "},"ü":{"ha":573,"x_min":-4,"x_max":594,"o":"m 235 705 l 216 431 q 286 260 214 254 q 344 511 353 248 l 334 694 l 564 642 q 528 128 594 208 q 264 -3 441 4 q 64 94 148 -3 q 1 340 1 198 q 12 671 -4 464 l 235 705 m 53 927 l 244 936 l 225 779 l 42 791 l 53 927 m 315 926 l 507 935 l 488 777 l 304 789 l 315 926 z "},"ý":{"ha":612,"x_min":-1,"x_max":631,"o":"m 604 664 l 628 446 q 464 -94 631 78 q 176 -292 296 -267 l 40 -101 q 345 144 233 2 l 251 144 q 5 362 34 143 q 7 638 -1 502 l 203 687 l 203 633 q 264 355 203 389 q 385 355 342 326 q 361 705 388 536 l 604 664 m 435 959 l 480 964 l 550 810 l 279 718 l 215 772 l 435 959 z "},"þ":{"ha":770,"x_min":-2,"x_max":783,"o":"m 515 941 q 775 602 745 873 q 769 429 783 525 q 578 141 735 240 q 314 155 402 89 l 339 -45 l 31 -77 l -2 1022 l 229 1056 l 241 870 q 515 941 323 970 m 273 601 l 286 441 q 519 480 445 318 q 414 692 558 663 q 273 601 325 705 z "},"ÿ":{"ha":612,"x_min":-1,"x_max":631,"o":"m 604 664 l 628 446 q 464 -94 631 78 q 176 -292 296 -267 l 40 -101 q 345 144 233 2 l 251 144 q 5 362 34 143 q 7 638 -1 502 l 203 687 l 203 633 q 264 355 203 389 q 385 355 342 326 q 361 705 388 536 l 604 664 m 102 927 l 294 936 l 275 779 l 92 791 l 102 927 m 365 926 l 556 935 l 537 777 l 354 789 l 365 926 z "},"ı":{"ha":404,"x_min":3,"x_max":425,"o":"m 286 585 q 231 323 243 481 q 258 229 225 240 q 319 246 290 218 l 425 93 q 208 -6 382 -3 q 3 244 3 -6 q 75 649 3 465 l 286 585 z "},"ˆ":{"ha":612,"x_min":75,"x_max":509,"o":"m 75 752 l 241 975 l 342 975 l 509 752 l 340 732 l 292 810 l 237 732 l 75 752 z "},"ˇ":{"ha":733,"x_min":150,"x_max":583,"o":"m 150 947 l 326 975 l 367 898 l 408 975 l 583 947 l 417 732 l 316 732 l 150 947 z "},"ˉ":{"ha":724,"x_min":172,"x_max":552,"o":"m 172 777 l 172 909 l 552 909 l 552 777 l 172 777 z "},"˘":{"ha":726,"x_min":149,"x_max":576,"o":"m 149 915 l 280 928 q 328 854 293 874 q 398 860 368 840 q 445 935 432 880 l 576 915 q 508 781 562 831 q 363 732 455 732 q 218 782 273 732 q 149 915 164 831 z "},"˙":{"ha":724,"x_min":283,"x_max":459,"o":"m 294 876 l 341 925 q 355 934 347 930 q 373 938 363 938 q 390 934 382 938 q 404 924 397 930 l 451 873 q 457 865 456 870 q 459 855 459 861 q 457 845 458 849 q 450 835 456 840 l 402 783 q 387 771 393 774 q 373 768 381 768 q 354 771 362 768 q 340 781 345 774 l 290 839 q 285 847 286 843 q 283 857 283 851 q 286 866 283 861 q 294 876 288 871 z "},"˚":{"ha":724,"x_min":227,"x_max":498,"o":"m 303 864 q 321 821 303 838 q 362 805 340 805 q 402 821 384 805 q 420 864 420 838 q 402 906 420 890 q 362 922 383 922 q 322 906 340 922 q 303 864 303 890 m 227 864 q 265 956 227 917 q 361 996 302 996 q 460 956 422 996 q 498 864 498 916 q 460 771 498 810 q 361 732 422 732 q 265 771 302 732 q 227 864 227 810 z "},"˛":{"ha":725,"x_min":255,"x_max":535,"o":"m 473 0 q 401 -73 422 -45 q 376 -137 381 -101 q 386 -180 376 -169 q 418 -191 396 -191 q 495 -155 460 -187 l 535 -184 q 468 -256 509 -231 q 377 -281 427 -281 q 289 -254 322 -281 q 255 -189 255 -227 q 295 -86 255 -137 q 410 0 334 -35 l 473 0 z "},"˜":{"ha":727,"x_min":101,"x_max":614,"o":"m 608 943 l 614 890 q 449 733 612 733 q 330 782 379 736 q 247 818 281 828 q 172 760 206 811 l 101 825 q 286 937 186 937 q 371 898 317 937 q 478 859 426 859 q 513 926 517 866 l 608 943 z "},"˝":{"ha":728,"x_min":152,"x_max":603,"o":"m 152 732 l 246 970 l 382 928 l 245 732 l 152 732 m 372 732 l 467 970 l 603 928 l 466 732 l 372 732 z "},"–":{"ha":751,"x_min":38,"x_max":727,"o":"m 38 243 l 52 379 l 727 379 l 713 243 l 38 243 z "},"—":{"ha":1389,"x_min":0,"x_max":1402,"o":"m 0 243 l 14 379 l 1402 379 l 1389 243 l 0 243 z "},"‘":{"ha":424,"x_min":1,"x_max":373,"o":"m 250 671 q 263 1069 1 836 l 331 1039 q 373 788 272 911 l 250 671 z "},"’":{"ha":424,"x_min":50,"x_max":391,"o":"m 186 1076 q 168 682 391 924 l 93 720 q 50 970 152 847 l 186 1076 z "},"‚":{"ha":424,"x_min":50,"x_max":391,"o":"m 186 197 q 168 -197 391 45 l 93 -159 q 50 91 152 -32 l 186 197 z "},"“":{"ha":728,"x_min":1,"x_max":609,"o":"m 250 671 q 263 1069 1 836 l 331 1039 q 373 788 272 911 l 250 671 m 486 671 q 499 1069 237 836 l 567 1039 q 609 788 508 911 l 486 671 z "},"”":{"ha":728,"x_min":118,"x_max":695,"o":"m 254 1076 q 235 682 458 924 l 161 720 q 118 970 220 847 l 254 1076 m 490 1076 q 472 682 695 924 l 397 720 q 355 970 456 847 l 490 1076 z "},"„":{"ha":728,"x_min":118,"x_max":695,"o":"m 254 197 q 235 -197 458 45 l 161 -159 q 118 91 220 -32 l 254 197 m 490 197 q 472 -197 695 45 l 397 -159 q 355 91 456 -32 l 490 197 z "},"†":{"ha":751,"x_min":49,"x_max":699,"o":"m 353 -182 l 219 435 l 286 566 l 138 507 l 49 654 l 136 803 l 286 744 l 227 893 l 374 982 l 521 893 l 462 744 l 611 803 l 699 654 l 610 507 l 462 566 l 528 435 l 395 -181 l 353 -182 z "},"‡":{"ha":751,"x_min":49,"x_max":699,"o":"m 462 235 l 610 294 l 699 146 l 611 -3 l 462 56 l 521 -93 l 374 -182 l 227 -93 l 286 56 l 136 -3 l 49 146 l 138 294 l 286 235 l 219 400 l 286 566 l 138 513 l 49 654 l 136 803 l 286 744 l 227 893 l 374 982 l 521 893 l 462 744 l 611 803 l 699 654 l 610 507 l 462 566 l 528 400 l 462 235 z "},"•":{"ha":751,"x_min":149,"x_max":602,"o":"m 149 487 q 213 644 149 574 q 376 713 276 713 q 539 643 476 713 q 602 487 602 573 q 538 330 602 401 q 375 260 475 260 q 212 330 275 260 q 149 487 149 400 z "},"…":{"ha":1152,"x_min":28,"x_max":1034,"o":"m 39 154 l 243 149 l 224 -8 l 28 4 l 39 154 m 434 154 l 639 149 l 620 -8 l 423 4 l 434 154 m 829 154 l 1034 149 l 1015 -8 l 819 4 l 829 154 z "},"‹":{"ha":458,"x_min":118,"x_max":390,"o":"m 118 325 l 357 537 l 390 383 l 305 325 l 390 267 l 357 113 l 118 325 z "},"›":{"ha":458,"x_min":68,"x_max":340,"o":"m 101 113 l 68 267 l 153 325 l 68 383 l 101 537 l 340 325 l 101 113 z "},"⁄":{"ha":232,"x_min":-159,"x_max":435,"o":"m -159 41 l 311 986 l 435 891 l 43 -14 l -159 41 z "},"₣":{"ha":768,"x_min":-15,"x_max":768,"o":"m 64 271 l -15 919 l 768 977 l 736 702 l 336 664 l 342 576 l 625 585 l 604 399 l 360 380 l 368 313 l 464 326 l 461 128 l 389 121 l 397 41 l 98 1 l 87 89 l 22 82 l -15 260 l 64 271 z "},"₤":{"ha":751,"x_min":-7,"x_max":720,"o":"m 96 389 q 97 439 98 414 l -2 446 q 3 574 5 514 l 75 577 q 58 689 56 613 q 95 845 58 772 q 359 969 186 969 q 699 835 545 969 l 602 646 q 387 734 477 734 q 288 575 241 730 l 477 580 l 483 449 l 311 447 q 311 397 311 420 l 479 402 l 463 262 l 294 262 q 275 218 286 235 q 644 239 449 218 l 720 1 q 41 -6 549 -6 q 32 155 26 45 q 73 261 58 208 l -7 261 l -2 386 l 96 389 z "},"₧":{"ha":1516,"x_min":-15,"x_max":1530,"o":"m 434 964 q 702 750 625 934 q 710 645 718 705 q 488 398 688 473 q 339 375 402 374 l 354 28 l 80 -5 l -15 931 q 434 964 314 983 m 316 695 l 323 589 q 477 647 472 602 q 433 707 483 692 q 316 695 376 715 m 1007 981 l 975 739 l 1055 732 l 1073 556 l 932 551 q 941 223 853 247 q 996 239 973 220 l 1099 87 q 876 -6 1006 -6 q 691 114 726 -6 q 696 553 652 280 l 583 557 l 614 736 l 729 744 l 755 955 l 1007 981 m 1244 705 q 1520 548 1384 708 l 1400 427 q 1222 519 1281 519 q 1182 486 1183 512 q 1365 384 1192 454 q 1518 146 1530 285 q 1343 -3 1489 14 q 1205 -7 1290 -14 q 959 141 1064 14 l 1067 279 q 1228 193 1181 193 q 1268 216 1259 193 q 1124 301 1268 252 q 982 507 982 372 q 1244 705 988 693 z "},"€":{"ha":756,"x_min":-14,"x_max":808,"o":"m 239 917 q 808 886 521 1055 l 641 730 q 309 646 417 816 l 598 641 l 564 524 l 290 524 q 290 455 283 499 l 554 452 l 519 331 l 306 317 q 636 267 410 133 l 799 157 q 426 -14 632 -26 q 49 294 159 7 l 5 294 q -12 442 -5 372 l 27 443 q 26 525 24 495 l -14 526 q 7 655 -8 602 l 52 655 q 239 917 96 829 z "},"№":{"ha":1249,"x_min":4,"x_max":1259,"o":"m 800 972 q 690 -1 707 43 l 510 -1 l 290 384 l 251 -1 l 7 -1 q 42 935 4 363 l 279 935 l 434 627 l 524 951 l 800 972 m 1059 972 q 1249 848 1203 972 q 1257 774 1259 819 q 1137 509 1257 630 q 968 455 1078 452 q 786 658 803 460 q 916 928 777 837 q 1059 972 991 972 m 949 680 q 1002 628 958 628 q 1102 728 1097 644 q 1053 799 1105 797 q 949 680 951 782 z "},"™":{"ha":899,"x_min":-9,"x_max":904,"o":"m 372 976 q 397 801 387 893 q 277 804 331 804 q 277 476 283 626 l 121 476 q 113 764 110 566 l 112 803 q -9 798 64 803 q 14 973 1 916 q 372 976 169 976 m 449 972 l 538 972 l 631 854 l 705 972 l 800 972 l 904 568 l 745 460 l 696 680 l 633 610 l 568 673 l 540 448 l 378 538 l 449 972 z "},"∂":{"ha":751,"x_min":49,"x_max":703,"o":"m 290 294 q 315 198 296 243 q 359 135 335 154 q 397 118 380 118 q 434 142 414 119 q 465 213 455 165 q 471 276 471 243 l 469 312 q 443 408 463 363 q 399 471 423 452 q 360 488 377 488 q 326 464 346 487 q 294 394 305 441 q 288 328 288 358 l 290 294 m 703 326 q 665 162 703 241 q 548 33 627 83 q 376 -16 469 -16 q 204 33 283 -16 q 87 162 125 83 q 49 326 49 241 q 88 489 49 410 q 193 615 127 569 q 351 665 260 662 q 463 644 425 665 q 342 768 412 726 q 161 827 273 810 l 141 989 q 556 793 410 989 q 703 326 703 596 z "},"∆":{"ha":838,"x_min":4,"x_max":798,"o":"m 406 997 l 798 0 l 4 0 l 406 997 m 273 205 l 496 205 l 388 554 l 273 205 z "},"∏":{"ha":1135,"x_min":37,"x_max":1095,"o":"m 384 817 l 384 -142 l 505 -142 l 512 -278 l 59 -285 l 66 -142 l 174 -142 l 174 810 l 66 810 l 37 959 l 1088 986 l 1057 840 l 973 831 l 973 -135 l 1088 -135 l 1095 -277 l 642 -271 l 648 -135 l 770 -135 l 770 824 l 384 817 z "},"∑":{"ha":871,"x_min":69,"x_max":831,"o":"m 720 433 l 308 -109 l 597 -123 l 640 -34 l 831 -47 l 756 -298 l 83 -285 l 76 -123 l 155 -107 l 475 334 l 155 773 l 69 796 l 76 959 l 756 979 l 831 734 l 646 714 l 597 803 l 437 783 l 720 433 z "},"−":{"ha":751,"x_min":102,"x_max":663,"o":"m 102 405 l 115 541 l 663 541 l 650 405 l 102 405 z "},"√":{"ha":819,"x_min":-39,"x_max":851,"o":"m 290 -18 l -39 376 l 152 585 l 272 469 l 576 1125 l 851 1125 l 824 867 l 761 867 l 290 -18 z "},"∞":{"ha":751,"x_min":39,"x_max":712,"o":"m 291 484 q 264 521 287 510 q 232 530 248 530 q 223 529 228 530 q 187 511 203 524 q 163 482 170 498 q 157 458 157 468 l 157 455 q 166 430 157 444 q 192 410 174 417 q 217 406 204 406 q 230 407 223 406 q 265 424 250 412 q 291 484 281 436 m 365 484 q 407 434 368 458 q 467 414 439 414 q 478 414 473 414 q 536 438 509 420 q 575 477 563 455 q 586 514 586 498 l 586 516 q 571 552 585 534 q 528 581 556 571 q 489 586 509 586 q 468 584 478 586 q 405 557 433 580 q 365 484 377 535 m 332 585 q 347 627 336 600 q 420 725 374 691 q 515 758 467 758 q 609 725 563 758 q 684 627 655 692 q 712 486 712 562 q 684 346 712 412 q 609 247 655 280 q 515 214 563 214 q 420 248 467 214 q 347 346 374 281 q 332 389 336 372 q 323 366 330 381 q 266 283 302 311 q 193 256 230 256 q 120 284 157 256 q 61 368 83 312 q 39 486 39 424 q 61 604 39 548 q 120 689 83 661 q 193 717 157 717 q 266 689 230 717 q 323 608 302 661 q 332 585 331 591 z "},"∫":{"ha":460,"x_min":-48,"x_max":566,"o":"m 51 -194 q -48 -165 -13 -198 l -15 -54 q 24 -76 7 -67 q 60 -83 42 -85 q 127 7 99 -83 q 161 201 155 96 l 208 699 l 214 741 q 307 1034 231 899 q 490 1168 383 1168 q 566 1149 536 1168 l 516 1029 q 492 1043 505 1037 q 467 1050 480 1050 q 402 968 429 1050 q 366 736 376 886 l 324 224 q 233 -62 311 71 q 51 -194 156 -194 z "},"≈":{"ha":751,"x_min":-23,"x_max":741,"o":"m 639 780 l 715 675 q 628 536 682 574 q 509 504 574 498 q 373 547 466 504 q 242 589 280 589 q 172 566 210 589 q 54 440 131 538 l -23 532 q 86 712 20 659 q 242 765 152 765 q 380 722 288 765 q 509 678 473 678 q 577 702 541 678 q 639 780 614 725 m 686 509 l 741 387 q 640 243 705 286 q 509 212 574 201 q 373 256 466 212 q 242 299 280 299 q 180 277 210 299 q 115 186 150 255 l 29 291 q 140 445 85 404 q 242 479 195 485 q 380 435 288 479 q 509 391 473 391 q 603 412 571 391 q 686 509 635 433 z "},"≤":{"ha":751,"x_min":54,"x_max":697,"o":"m 697 707 l 265 538 l 697 370 l 629 163 l 54 448 l 54 628 l 629 916 l 697 707 m 102 -27 l 115 109 l 663 109 l 650 -27 l 102 -27 z "},"≥":{"ha":751,"x_min":54,"x_max":697,"o":"m 122 916 l 697 628 l 697 448 l 122 163 l 54 370 l 486 538 l 54 707 l 122 916 m 102 -27 l 115 109 l 663 109 l 650 -27 l 102 -27 z "},"":{"ha":728,"x_min":0,"x_max":0,"o":""},"":{"ha":733,"x_min":0,"x_max":0,"o":""},"Ђ":{"ha":1098,"x_min":-9,"x_max":1091,"o":"m 1091 429 q 691 52 1060 37 l 716 281 q 845 416 853 291 q 439 530 817 677 l 451 -5 l 212 53 l 235 909 l -9 907 l 2 1107 l 706 1107 l 709 918 l 437 919 l 439 775 q 1091 429 1088 907 z "},"Ѓ":{"ha":662,"x_min":0,"x_max":683,"o":"m 683 963 q 646 752 665 869 q 264 697 324 725 q 313 4 311 262 q 66 -5 198 -23 l 0 890 q 683 963 210 983 m 441 1237 l 486 1242 l 556 1088 l 286 996 l 221 1050 l 441 1237 z "},"Є":{"ha":767,"x_min":-47,"x_max":783,"o":"m 420 972 l 420 972 l 420 972 q 771 803 650 1004 l 584 684 q 443 735 534 745 q 265 591 315 713 q 490 577 390 591 q 477 422 479 545 q 273 402 321 418 q 431 279 257 275 q 571 370 520 291 l 783 311 q 396 -2 696 35 q 49 225 180 -24 q 3 391 9 311 q 304 938 -47 745 q 420 972 342 961 z "},"Ѕ":{"ha":730,"x_min":-21,"x_max":749,"o":"m 193 954 q 703 842 450 1021 l 585 627 q 260 667 254 772 q 399 589 281 620 q 740 245 749 445 q 584 36 743 118 q 382 -7 520 3 q 18 109 222 -12 l 112 316 q 420 280 422 191 q 155 425 409 323 q -7 679 -9 515 q 193 954 -21 846 z "},"І":{"ha":320,"x_min":15,"x_max":310,"o":"m 298 972 q 306 480 302 704 q 308 -5 310 257 l 25 -5 q 18 484 15 257 q 27 956 22 710 l 298 972 z "},"Ї":{"ha":555,"x_min":41,"x_max":506,"o":"m 406 972 q 415 480 411 704 q 416 -5 418 257 l 134 -5 q 127 484 123 257 q 136 956 130 710 l 406 972 m 52 1144 l 243 1153 l 224 996 l 41 1008 l 52 1144 m 315 1143 l 506 1152 l 487 994 l 304 1006 l 315 1143 z "},"Ј":{"ha":653,"x_min":-32,"x_max":656,"o":"m 656 994 q 602 309 640 422 q 298 -3 515 20 q 77 43 154 -29 q 18 368 -32 170 l 237 370 q 312 304 242 279 q 382 912 396 335 l 656 994 z "},"Љ":{"ha":1321,"x_min":-8,"x_max":1327,"o":"m 174 895 q 821 873 529 906 q 835 548 823 632 q 1096 555 983 571 q 1320 317 1307 481 q 1274 122 1327 208 q 622 -5 1137 -36 l 563 713 q 391 713 482 713 l 377 148 q 144 3 362 18 q -8 69 39 10 q 64 259 21 135 q 149 267 134 219 l 174 895 m 860 227 q 1040 303 1036 243 q 1008 346 1047 336 q 854 334 935 363 l 860 227 z "},"Њ":{"ha":1183,"x_min":6,"x_max":1185,"o":"m 31 908 l 246 918 l 248 538 q 443 534 338 538 l 446 892 l 678 873 q 692 548 681 632 q 954 555 841 571 q 1178 317 1164 481 q 1132 122 1185 208 q 452 -5 994 -36 l 438 309 q 248 307 347 306 l 241 -8 l 6 9 l 31 908 m 718 227 q 897 303 893 243 q 866 346 905 336 q 712 334 793 363 l 718 227 z "},"Ћ":{"ha":1074,"x_min":-16,"x_max":1084,"o":"m 1084 429 l 1061 23 l 838 -19 l 845 376 q 459 530 796 677 l 471 -5 l 185 53 l 208 903 l -16 901 l -5 1107 l 699 1107 l 702 911 l 458 912 l 460 775 q 1084 429 1082 907 z "},"Ќ":{"ha":757,"x_min":-1,"x_max":781,"o":"m 618 962 l 732 764 q 576 674 643 748 l 467 553 l 708 316 l 781 244 l 536 21 l 456 121 l 308 315 l 292 -5 l -1 96 l 63 920 q 292 963 81 920 l 308 719 l 408 839 q 618 962 476 939 m 483 1237 l 528 1242 l 597 1088 l 327 996 l 262 1050 l 483 1237 z "},"Ѝ":{"ha":801,"x_min":-3,"x_max":806,"o":"m 20 972 l 276 951 l 298 573 l 576 935 l 806 935 q 753 -1 783 363 l 515 -1 l 503 411 l 209 -1 l 15 -1 q 20 972 -3 394 m 494 1058 l 446 989 l 190 1125 l 205 1164 l 347 1251 l 494 1058 z "},"Ў":{"ha":791,"x_min":-13,"x_max":807,"o":"m 191 972 l 399 690 l 603 962 l 807 812 l 536 440 l 529 8 l 275 -11 l 265 468 l -13 836 l 191 972 m 183 1193 l 315 1206 q 363 1132 328 1152 q 433 1138 403 1118 q 479 1213 467 1158 l 611 1193 q 543 1059 596 1109 q 398 1010 490 1010 q 253 1060 307 1010 q 183 1193 199 1109 z "},"Џ":{"ha":889,"x_min":-8,"x_max":901,"o":"m 39 1 l -8 907 l 249 972 l 287 229 l 648 240 l 635 958 l 901 900 l 863 1 l 583 0 l 583 -202 l 374 -202 l 369 1 l 39 1 z "},"А":{"ha":825,"x_min":-14,"x_max":842,"o":"m 310 972 l 538 972 l 842 163 l 547 -1 l 509 133 l 304 133 l 244 4 l -14 136 l 310 972 m 340 312 l 506 317 l 454 490 l 406 490 l 340 312 z "},"Б":{"ha":753,"x_min":0,"x_max":771,"o":"m 683 963 q 632 793 651 869 q 264 738 324 766 q 279 548 267 632 q 540 555 427 571 q 764 317 751 481 q 718 122 771 208 q 66 -5 581 -36 l 0 890 q 683 963 210 983 m 304 227 q 484 303 479 243 q 452 346 491 336 q 298 334 379 363 l 304 227 z "},"В":{"ha":759,"x_min":-5,"x_max":771,"o":"m 442 955 q 630 719 643 894 q 484 568 611 640 l 540 555 q 764 317 751 481 q 718 122 771 208 q 67 2 581 -36 l -5 896 q 442 955 191 998 m 269 734 l 271 669 q 408 730 397 686 q 380 748 405 743 q 269 734 333 754 m 311 227 q 490 303 486 243 q 459 346 498 336 q 305 334 386 363 l 311 227 z "},"Г":{"ha":662,"x_min":0,"x_max":683,"o":"m 683 963 q 646 752 665 869 q 264 697 324 725 q 313 4 311 262 q 66 -5 198 -23 l 0 890 q 683 963 210 983 z "},"Д":{"ha":980,"x_min":0,"x_max":985,"o":"m 871 979 l 886 182 l 962 182 l 985 -115 l 737 -137 l 726 -3 l 270 -3 l 258 -132 l 0 -115 l 9 169 q 83 172 54 168 q 185 964 203 612 l 871 979 m 340 176 l 642 182 l 624 795 l 406 795 q 340 176 411 533 z "},"Е":{"ha":705,"x_min":-15,"x_max":725,"o":"m 719 972 l 673 764 l 277 726 l 297 570 l 574 578 l 553 392 l 317 372 l 332 212 l 725 239 l 684 24 q 77 -1 682 11 l -15 915 l 719 972 z "},"Ж":{"ha":1202,"x_min":-10,"x_max":1212,"o":"m 1086 955 l 1152 736 q 985 608 1063 721 q 807 493 920 498 q 1212 67 1089 427 l 932 28 q 728 308 869 263 l 726 -5 l 457 15 l 455 275 q 246 16 301 258 l -7 87 q 363 488 113 424 q 191 602 260 515 q -10 667 116 711 l 55 899 q 309 823 275 957 q 466 639 372 696 l 465 960 l 712 983 l 709 659 q 852 854 795 696 q 1086 955 901 956 z "},"З":{"ha":689,"x_min":-2,"x_max":693,"o":"m 359 969 q 623 845 532 969 q 661 689 661 772 q 585 484 661 588 q 693 274 693 411 q 359 -6 693 -6 q -2 123 170 -6 l 95 340 q 368 238 269 231 q 458 304 458 248 q 353 366 458 359 l 303 368 l 309 573 l 374 581 q 421 662 421 605 q 331 714 421 703 q 110 659 241 721 l 13 848 q 359 969 174 976 z "},"И":{"ha":801,"x_min":-3,"x_max":806,"o":"m 20 972 l 276 951 l 298 573 l 576 935 l 806 935 q 753 -1 783 363 l 515 -1 l 503 411 l 209 -1 l 15 -1 q 20 972 -3 394 z "},"Й":{"ha":801,"x_min":-3,"x_max":806,"o":"m 20 972 l 276 951 l 298 573 l 576 935 l 806 935 q 753 -1 783 363 l 515 -1 l 503 411 l 209 -1 l 15 -1 q 20 972 -3 394 m 170 1193 l 301 1206 q 349 1132 314 1152 q 419 1138 389 1118 q 466 1213 453 1158 l 597 1193 q 529 1059 583 1109 q 385 1010 476 1010 q 239 1060 294 1010 q 170 1193 185 1109 z "},"К":{"ha":757,"x_min":-1,"x_max":781,"o":"m 618 962 l 732 764 q 576 674 643 748 l 467 553 l 708 316 l 781 244 l 536 21 l 456 121 l 308 315 l 292 -5 l -1 96 l 63 920 q 292 963 81 920 l 308 719 l 408 839 q 618 962 476 939 z "},"Л":{"ha":1040,"x_min":-3,"x_max":1044,"o":"m 188 965 l 996 972 l 1044 53 l 764 9 l 749 692 l 436 704 l 417 162 q 210 -5 414 -3 q -3 48 138 -16 l 53 265 q 166 304 168 199 l 188 965 z "},"М":{"ha":1171,"x_min":-8,"x_max":1179,"o":"m 201 972 l 380 972 l 573 623 l 732 972 l 922 972 l 1179 222 l 902 45 l 772 450 l 627 47 l 475 53 l 368 448 l 254 12 l -8 168 l 201 972 z "},"Н":{"ha":823,"x_min":-8,"x_max":830,"o":"m 522 977 l 742 939 l 830 138 l 560 9 l 543 278 l 281 278 l 258 4 q -8 117 9 97 l 64 924 l 312 960 l 310 557 l 530 557 l 522 977 z "},"О":{"ha":841,"x_min":-6,"x_max":850,"o":"m 488 972 q 822 760 727 967 q 845 576 850 676 q 678 134 845 341 q 334 1 543 1 q 16 269 90 21 q -5 450 -6 349 q 333 946 22 817 q 488 972 415 972 m 264 427 q 385 294 279 294 q 581 433 482 294 q 609 582 613 493 q 494 714 609 714 q 281 541 376 714 q 264 427 260 483 z "},"П":{"ha":895,"x_min":-1,"x_max":901,"o":"m 32 958 l 854 972 l 901 53 l 629 9 l 614 692 l 280 704 l 256 1 l -1 66 l 32 958 z "},"Р":{"ha":750,"x_min":-1,"x_max":765,"o":"m 450 964 q 748 750 662 934 q 757 645 765 705 q 509 398 732 473 q 345 375 414 374 l 354 28 l 104 -5 l -1 931 q 288 967 170 960 q 304 968 296 967 q 450 964 393 972 m 319 726 l 327 589 q 498 664 492 606 q 449 742 505 723 q 319 726 386 753 z "},"С":{"ha":766,"x_min":-47,"x_max":783,"o":"m 420 972 q 771 803 650 1004 l 570 637 q 443 688 507 697 q 273 463 275 654 q 425 323 304 309 q 551 410 479 332 l 783 311 q 396 -2 696 35 q 49 225 180 -24 q 3 391 9 311 q 304 938 -47 745 q 420 972 342 961 z "},"Т":{"ha":734,"x_min":-9,"x_max":743,"o":"m 694 976 q 743 688 724 814 q 509 693 614 693 q 509 1 520 293 l 258 1 q 241 589 236 176 l 240 691 q -9 681 121 691 q 35 970 9 860 q 694 976 312 976 z "},"У":{"ha":791,"x_min":-13,"x_max":807,"o":"m 191 972 l 399 690 l 603 962 l 807 812 l 536 440 l 529 8 l 275 -11 l 265 468 l -13 836 l 191 972 z "},"Ф":{"ha":1336,"x_min":-6,"x_max":1367,"o":"m 785 920 q 1335 573 1304 985 q 1122 102 1367 233 q 833 66 1036 47 l 832 -34 q 570 -64 713 -62 l 558 31 q 354 1 432 1 q 30 269 117 3 q 2 484 1 382 q 196 889 -6 770 q 509 913 347 951 l 514 1036 q 781 1055 624 1046 l 785 920 m 266 516 q 535 309 239 254 l 517 643 q 266 516 313 696 m 826 324 q 1093 509 1090 307 q 808 650 1076 733 l 826 324 z "},"Х":{"ha":991,"x_min":-16,"x_max":1005,"o":"m 866 972 l 1005 747 l 780 506 l 957 264 l 699 23 l 501 280 q 260 1 351 93 q -16 163 49 130 q 340 527 178 364 l 115 817 l 393 967 l 581 726 l 866 972 z "},"Ц":{"ha":981,"x_min":-1,"x_max":987,"o":"m 45 1 l -1 907 l 262 972 l 300 249 l 621 260 l 608 951 l 888 893 l 853 266 l 987 267 l 969 -127 l 774 -127 l 769 1 l 45 1 z "},"Ч":{"ha":878,"x_min":2,"x_max":881,"o":"m 2 348 l 26 930 l 262 972 l 275 408 q 614 274 297 134 l 602 958 l 881 900 l 854 -195 l 618 -195 l 613 1 q 2 348 5 -131 z "},"Ш":{"ha":1070,"x_min":-1,"x_max":1078,"o":"m 45 1 l -1 907 l 262 972 l 300 256 l 441 254 l 396 943 l 661 930 l 684 264 l 817 267 l 805 951 l 1078 893 l 1030 1 l 45 1 z "},"Щ":{"ha":1166,"x_min":-1,"x_max":1171,"o":"m 45 1 l -1 907 l 262 972 l 300 256 l 441 254 l 396 943 l 661 930 l 684 264 l 817 267 l 805 951 l 1071 893 l 1036 259 l 1171 260 l 1152 -127 l 937 -127 l 932 1 l 45 1 z "},"Ъ":{"ha":990,"x_min":-7,"x_max":1002,"o":"m -7 688 l 31 895 q 495 873 203 906 q 509 548 498 632 q 770 555 658 571 q 995 317 981 481 q 949 122 1002 208 q 283 -5 811 -36 l 224 686 q -7 688 109 681 m 534 227 q 714 303 710 243 q 683 346 722 336 q 529 334 610 363 l 534 227 z "},"Ы":{"ha":1039,"x_min":0,"x_max":1040,"o":"m 251 962 q 265 548 254 632 q 526 555 414 571 q 751 317 737 481 q 705 122 758 208 q 66 -5 567 -36 l 0 917 q 251 962 122 975 m 290 227 q 470 303 466 243 q 439 346 477 336 q 285 334 366 363 l 290 227 m 1010 962 q 1029 215 1013 632 l 1040 1 q 812 2 953 -10 l 746 924 q 1010 962 888 975 z "},"Ь":{"ha":772,"x_min":0,"x_max":785,"o":"m 278 962 q 292 548 281 632 q 553 555 441 571 q 778 317 764 481 q 732 122 785 208 q 66 -5 594 -36 l 0 917 q 278 962 136 975 m 317 227 q 497 303 493 243 q 466 346 505 336 q 312 334 393 363 l 317 227 z "},"Э":{"ha":796,"x_min":-7,"x_max":831,"o":"m 368 960 q 639 857 541 960 q 786 379 831 691 q 740 214 780 298 q 393 -14 641 6 q -7 299 90 -12 l 204 358 q 357 267 255 279 q 545 391 503 256 q 311 411 467 406 q 298 565 309 532 q 536 577 399 579 q 368 734 500 717 q 205 673 255 732 l 18 791 q 368 960 156 966 z "},"Ю":{"ha":1144,"x_min":7,"x_max":1148,"o":"m 787 972 q 1120 760 1025 967 q 1143 576 1148 676 q 977 134 1143 341 q 632 1 842 1 q 315 269 388 21 q 248 284 311 279 l 250 2 q 22 10 113 6 q 8 951 7 369 q 248 972 106 968 l 249 566 l 309 563 q 631 946 371 838 q 787 972 713 972 m 556 427 q 677 294 571 294 q 872 433 774 294 q 901 582 905 493 q 786 714 901 714 q 573 541 667 714 q 556 427 552 483 z "},"Я":{"ha":778,"x_min":-7,"x_max":779,"o":"m 279 959 l 347 975 q 694 983 558 988 l 779 3 l 514 -3 l 479 334 l 290 -18 l 65 83 l 233 397 q 7 607 36 446 q 5 717 -7 666 q 279 959 85 912 m 450 763 q 281 735 337 757 q 243 663 235 711 q 458 608 256 585 l 450 763 z "},"а":{"ha":602,"x_min":-1,"x_max":608,"o":"m 359 705 q 563 456 524 712 q 608 56 595 227 l 391 -9 l 384 34 q 184 -2 290 -3 q 0 205 13 28 q 195 377 0 353 q 354 378 279 388 q 313 507 349 502 q 145 392 249 509 l -1 501 q 359 705 139 709 m 185 186 q 254 159 197 159 q 368 174 302 160 l 360 250 l 294 249 q 185 186 180 248 z "},"б":{"ha":649,"x_min":-7,"x_max":695,"o":"m 277 -7 q 2 357 10 7 q 119 732 -7 601 q 380 863 245 843 q 527 926 473 883 l 604 739 q 431 660 539 665 q 193 488 237 640 q 384 574 283 570 q 635 417 585 581 q 524 37 695 189 q 277 -7 429 -20 m 457 326 q 341 396 449 410 q 237 281 243 363 q 330 176 241 183 q 457 326 453 190 z "},"в":{"ha":555,"x_min":-5,"x_max":562,"o":"m 321 696 q 459 524 468 652 q 353 414 445 467 l 393 404 q 557 230 547 350 q 524 87 562 151 q 47 0 422 -28 l -5 653 q 321 696 138 728 m 181 550 l 183 479 q 295 547 286 498 q 272 566 292 561 q 181 550 233 572 m 218 165 q 357 235 353 179 q 333 275 362 267 q 214 264 277 291 l 218 165 z "},"г":{"ha":471,"x_min":0,"x_max":479,"o":"m 479 692 q 456 531 470 625 q 191 492 234 511 q 227 -1 224 186 q 47 -7 143 -20 l 0 639 q 479 692 151 706 z "},"д":{"ha":803,"x_min":-2,"x_max":812,"o":"m 716 701 l 729 165 l 793 165 l 812 -105 l 610 -123 l 601 -4 l 218 -11 l 208 -119 l -2 -105 l 6 140 l 60 143 q 141 688 162 391 l 716 701 m 270 153 l 537 165 l 522 538 l 325 538 q 270 153 330 326 z "},"е":{"ha":650,"x_min":-3,"x_max":647,"o":"m 530 639 q 645 443 638 551 l 245 241 q 369 189 277 191 q 595 304 460 187 l 647 137 q 231 3 534 -28 q 6 296 37 68 q 53 555 -3 447 q 302 691 136 693 q 530 639 437 700 m 196 376 l 425 489 q 260 527 368 565 q 196 376 186 482 z "},"ж":{"ha":840,"x_min":-24,"x_max":858,"o":"m 768 688 l 815 530 q 694 437 751 519 q 566 354 647 358 q 858 47 769 307 l 656 18 q 509 220 610 188 l 507 -5 l 313 9 l 312 197 q 161 10 201 184 l -22 61 q 245 351 64 304 q 121 432 172 370 q -24 480 67 512 l 23 647 q 207 592 182 689 q 320 459 252 501 l 319 691 l 497 707 l 495 474 q 599 614 557 501 q 768 688 633 688 z "},"з":{"ha":555,"x_min":-9,"x_max":492,"o":"m 252 697 q 442 608 376 697 q 469 495 469 555 q 414 347 469 422 q 492 196 492 294 q 252 -6 492 -6 q -9 87 115 -6 l 61 243 q 258 170 186 165 q 323 217 323 177 q 247 262 323 257 l 211 263 l 215 412 l 262 417 q 296 475 296 435 q 231 513 296 505 q 72 473 167 518 l 2 610 q 252 697 118 702 z "},"и":{"ha":577,"x_min":0,"x_max":580,"o":"m 22 697 l 205 682 l 226 435 l 420 671 l 580 671 q 532 -1 559 260 l 367 -1 l 353 275 l 142 -1 l 13 -1 q 22 697 0 282 z "},"й":{"ha":577,"x_min":0,"x_max":580,"o":"m 22 697 l 205 682 l 226 435 l 420 671 l 580 671 q 532 -1 559 260 l 367 -1 l 353 275 l 142 -1 l 13 -1 q 22 697 0 282 m 66 915 l 198 928 q 246 854 211 874 q 316 860 286 840 q 363 935 350 880 l 494 915 q 426 781 479 831 q 281 732 373 732 q 136 782 191 732 q 66 915 82 831 z "},"к":{"ha":555,"x_min":-7,"x_max":570,"o":"m 450 709 l 534 563 q 418 496 468 551 l 338 412 l 516 237 l 570 184 l 389 19 l 330 94 l 220 231 l 208 -5 l -7 69 l 39 678 q 208 710 53 678 l 220 530 l 295 618 q 450 709 345 692 z "},"л":{"ha":726,"x_min":-9,"x_max":730,"o":"m 127 688 l 696 694 l 730 36 l 530 5 l 519 494 l 305 503 l 292 115 q 142 -5 290 -4 q -9 33 91 -13 l 31 189 q 112 216 113 140 l 127 688 z "},"м":{"ha":865,"x_min":-8,"x_max":878,"o":"m 149 695 l 275 695 l 412 408 l 551 695 l 686 695 l 878 136 l 678 3 l 581 306 l 466 5 l 353 9 l 266 304 l 180 -22 l -8 95 l 149 695 z "},"н":{"ha":596,"x_min":-8,"x_max":608,"o":"m 381 718 l 543 690 l 608 102 l 410 8 l 397 205 l 205 205 l 187 4 q -8 87 4 73 l 45 680 l 227 707 l 226 410 l 387 410 l 381 718 z "},"о":{"ha":598,"x_min":-13,"x_max":603,"o":"m 343 700 q 583 547 515 696 q 600 414 603 487 q 479 96 600 245 q 232 1 382 1 q 3 193 56 16 q -12 324 -13 251 q 231 681 7 589 q 343 700 290 700 m 182 307 q 269 212 193 212 q 410 312 338 212 q 430 419 433 355 q 347 514 430 514 q 194 390 262 514 q 182 307 179 348 z "},"п":{"ha":619,"x_min":-1,"x_max":628,"o":"m 22 686 l 594 700 l 628 39 l 432 7 l 421 498 l 201 507 l 184 1 l -1 48 l 22 686 z "},"р":{"ha":628,"x_min":5,"x_max":634,"o":"m 222 694 l 227 631 q 392 683 330 680 q 609 530 536 686 q 628 401 629 477 q 512 110 634 202 q 404 75 480 79 q 276 84 334 71 l 300 -293 l 84 -271 l 30 370 l 5 650 q 222 694 33 663 m 245 476 l 257 300 l 260 250 l 332 241 q 434 369 436 249 q 312 492 424 504 l 245 476 z "},"с":{"ha":559,"x_min":-28,"x_max":565,"o":"m 306 693 q 557 572 470 716 l 413 454 q 322 490 368 497 q 201 330 202 467 q 309 230 223 219 q 399 292 349 236 l 565 221 q 289 -3 503 24 q 41 160 134 -18 q 7 278 12 221 q 223 669 -28 531 q 306 693 250 686 z "},"т":{"ha":526,"x_min":-2,"x_max":532,"o":"m 498 694 q 532 490 519 580 q 366 493 441 493 q 366 1 374 209 l 188 1 q 176 420 172 125 l 175 492 q -2 485 90 492 q 29 690 11 612 q 498 694 226 694 z "},"у":{"ha":591,"x_min":-1,"x_max":597,"o":"m 570 671 l 589 416 q 426 -74 597 85 q 135 -258 256 -233 l 40 -101 q 345 144 233 2 l 251 144 q 5 362 34 143 q 7 638 -1 502 l 176 687 l 176 633 q 243 342 159 389 q 385 355 342 326 q 361 705 388 536 l 570 671 z "},"ф":{"ha":960,"x_min":-58,"x_max":989,"o":"m 558 657 q 966 402 920 748 q 812 60 989 155 q 595 40 749 21 l 591 -90 q 401 -111 505 -110 l 395 14 q 226 -15 322 -15 q 14 183 65 1 q 100 598 -58 457 q 359 652 222 684 l 360 792 q 554 806 440 800 l 558 657 m 191 368 q 379 190 171 166 l 363 471 q 191 368 225 507 m 590 205 q 788 349 782 195 q 587 473 779 519 l 590 205 z "},"х":{"ha":708,"x_min":-16,"x_max":713,"o":"m 612 694 l 713 530 l 543 348 l 671 172 l 524 10 l 374 204 q 178 -5 244 61 q -16 106 31 81 q 243 370 125 252 l 79 581 l 254 683 l 391 507 l 612 694 z "},"ц":{"ha":730,"x_min":-1,"x_max":726,"o":"m 34 -23 l -1 661 l 198 711 l 227 164 l 444 173 l 435 695 l 651 651 l 625 180 l 726 181 l 712 -121 l 564 -121 l 561 -23 l 34 -23 z "},"ч":{"ha":625,"x_min":2,"x_max":628,"o":"m 26 674 l 195 704 l 197 451 q 425 356 186 222 l 416 694 l 628 652 l 609 -5 l 427 -5 l 424 142 q 67 160 193 28 q 2 409 3 245 l 26 674 z "},"ш":{"ha":762,"x_min":-1,"x_max":768,"o":"m 33 1 l -1 658 l 182 705 l 210 186 l 319 184 l 287 684 l 467 675 l 484 193 l 597 194 l 589 690 l 768 648 l 734 15 l 33 1 z "},"щ":{"ha":865,"x_min":-1,"x_max":864,"o":"m 34 -3 l -1 656 l 190 705 l 218 190 l 334 189 l 300 683 l 487 674 l 505 197 l 624 199 l 614 690 l 802 646 l 776 193 l 864 193 l 850 -100 l 694 -100 l 690 4 l 34 -3 z "},"ъ":{"ha":770,"x_min":-7,"x_max":777,"o":"m -7 538 l 43 693 q 383 677 157 702 q 394 424 385 489 q 597 430 510 441 q 772 244 762 372 q 736 93 777 159 q 218 -6 629 -30 l 172 536 q -7 538 83 532 m 414 174 q 553 233 551 186 q 530 267 559 259 q 410 258 473 280 l 414 174 z "},"ы":{"ha":753,"x_min":0,"x_max":746,"o":"m 181 692 q 191 393 183 454 q 380 399 298 410 q 543 226 532 345 q 509 85 547 148 q 47 -6 410 -28 l 0 660 q 181 692 88 701 m 196 161 q 326 216 323 173 q 303 247 332 240 q 192 239 250 259 l 196 161 m 725 692 q 739 153 727 454 l 746 -2 q 578 -1 684 -10 l 530 665 q 725 692 628 701 z "},"ь":{"ha":555,"x_min":-14,"x_max":558,"o":"m 189 699 q 199 397 191 458 q 390 402 307 414 q 553 228 543 348 q 519 86 558 149 q 35 -6 419 -29 l -14 665 q 189 699 85 707 m 218 163 q 349 218 346 174 q 326 250 354 242 q 214 241 273 262 l 218 163 z "},"э":{"ha":587,"x_min":-7,"x_max":611,"o":"m 269 705 q 469 628 397 704 q 578 276 611 506 q 544 154 573 217 q 288 -14 471 1 q -7 217 64 -13 l 149 260 q 262 193 186 202 q 399 284 368 186 q 227 300 342 296 q 218 413 226 389 q 393 422 292 424 q 269 537 366 525 q 149 492 186 537 l 11 580 q 269 705 113 709 z "},"ю":{"ha":821,"x_min":1,"x_max":821,"o":"m 561 699 q 801 547 732 696 q 817 414 821 486 q 697 96 817 245 q 450 1 600 1 q 222 193 275 16 q 174 205 220 201 l 175 2 q 11 7 76 5 q 1 684 1 266 q 174 699 72 696 l 174 407 l 218 405 q 450 680 262 603 q 561 699 509 699 m 395 307 q 482 212 406 212 q 623 311 552 212 q 643 418 646 355 q 560 513 643 513 q 408 389 475 513 q 395 307 392 347 z "},"я":{"ha":593,"x_min":-5,"x_max":590,"o":"m 198 686 l 248 697 q 509 703 419 706 l 590 5 l 387 0 l 363 240 l 220 -9 l 33 62 l 165 286 q 5 435 26 320 q 3 513 -5 477 q 198 686 60 652 m 334 546 q 228 526 269 542 q 199 475 193 509 q 340 435 209 419 l 334 546 z "},"ё":{"ha":648,"x_min":-5,"x_max":654,"o":"m 537 639 q 648 405 645 551 l 258 228 q 375 196 284 198 q 602 311 467 194 l 654 137 q 222 -8 456 -61 q -1 296 31 68 q 40 537 -5 441 q 309 691 143 693 q 537 639 444 700 m 203 393 l 431 494 q 267 528 374 562 q 203 393 193 488 m 105 927 l 296 936 l 277 779 l 94 791 l 105 927 m 368 926 l 559 935 l 540 777 l 357 789 l 368 926 z "},"ž":{"ha":593,"x_min":-2,"x_max":602,"o":"m 568 692 l 573 681 l 573 556 q 311 248 534 506 l 311 243 l 323 248 q 590 260 564 260 q 596 265 590 265 l 602 254 q 562 -2 573 16 q 15 -14 109 -14 l 9 -2 l 9 106 q 3 197 9 139 l 243 459 l 9 459 q -2 471 -2 459 q 66 675 52 655 q 568 692 113 681 m 83 947 l 259 975 l 300 898 l 341 975 l 517 947 l 351 732 l 250 732 l 83 947 z "},"č":{"ha":569,"x_min":1,"x_max":602,"o":"m 311 697 q 602 588 492 705 l 465 445 q 350 490 412 491 q 236 370 251 488 q 322 239 229 257 q 454 296 382 228 l 574 181 q 242 -2 455 -4 q 36 136 100 -2 q 1 313 1 212 q 116 634 4 545 q 311 697 183 697 m 85 947 l 261 975 l 302 898 l 343 975 l 519 947 l 353 732 l 252 732 l 85 947 z "},"ć":{"ha":569,"x_min":1,"x_max":602,"o":"m 311 697 q 602 588 492 705 l 465 445 q 350 490 412 491 q 236 370 251 488 q 322 239 229 257 q 454 296 382 228 l 574 181 q 242 -2 455 -4 q 36 136 100 -2 q 1 313 1 212 q 116 634 4 545 q 311 697 183 697 m 401 959 l 446 964 l 516 810 l 245 718 l 181 772 l 401 959 z "},"đ":{"ha":736,"x_min":4,"x_max":741,"o":"m 422 979 q 665 918 579 956 q 661 871 663 899 l 741 860 l 734 714 l 650 722 q 654 18 624 290 l 439 -22 l 433 34 q 282 -5 353 -5 l 249 -5 q 28 163 84 -5 q 11 288 16 210 l 7 351 q 88 595 4 525 q 267 659 172 665 q 401 606 340 656 q 406 745 400 650 l 263 760 q 269 913 263 829 l 417 903 q 422 979 419 948 m 230 361 l 231 328 q 334 197 236 197 l 406 201 l 399 427 q 290 442 361 450 q 230 361 229 426 z "},"š":{"ha":530,"x_min":-27,"x_max":544,"o":"m 258 705 q 534 548 398 708 l 414 427 q 236 519 295 519 q 196 486 197 512 q 379 384 205 454 q 532 146 544 285 q 357 -3 503 14 q 219 -7 304 -14 q -27 141 78 14 l 81 279 q 242 193 195 193 q 282 216 273 193 q 138 301 282 252 q -4 507 -4 372 q 258 705 2 693 m 37 947 l 212 975 l 254 898 l 294 975 l 470 947 l 304 732 l 203 732 l 37 947 z "},"њ":{"ha":897,"x_min":-1,"x_max":909,"o":"m 19 699 l 185 706 l 186 413 q 336 410 255 413 l 339 686 l 518 672 q 529 420 520 486 q 730 427 644 439 q 904 242 893 369 q 868 92 909 159 q 344 -6 762 -30 l 333 236 q 186 234 262 234 l 181 -9 l -1 5 l 19 699 m 549 148 q 694 228 691 165 q 670 273 700 262 q 545 260 613 290 l 549 148 z "},"ђ":{"ha":741,"x_min":-9,"x_max":743,"o":"m 736 288 q 722 -43 743 84 q 563 -224 699 -170 l 452 -132 q 547 -10 528 -88 q 556 283 563 79 q 345 363 518 473 l 354 -35 l 156 7 l 173 646 l -9 644 l -1 793 l 180 793 l 179 861 l 338 861 l 342 793 l 524 793 l 526 652 l 344 652 l 346 546 q 736 288 728 644 z "},"ћ":{"ha":741,"x_min":-9,"x_max":743,"o":"m 736 288 q 736 -36 743 84 l 554 -3 q 549 283 556 79 q 352 363 511 473 l 361 -35 l 156 7 l 173 646 l -9 644 l -1 793 l 180 793 l 179 861 l 345 861 l 349 793 l 524 793 l 526 652 l 351 652 l 353 546 q 736 288 728 644 z "},"џ":{"ha":683,"x_min":-8,"x_max":694,"o":"m 28 -45 l -8 654 l 204 704 l 233 130 l 484 139 l 475 693 l 694 648 l 664 -45 l 462 -46 l 461 -202 l 273 -202 l 269 -45 l 28 -45 z "},"Ё":{"ha":736,"x_min":-1,"x_max":739,"o":"m 732 972 l 687 764 l 290 726 l 311 570 l 588 578 l 566 392 l 330 372 l 345 212 l 739 239 l 697 24 q 90 -1 695 11 l -1 915 l 732 972 m 134 1144 l 325 1153 l 306 996 l 123 1008 l 134 1144 m 396 1143 l 587 1152 l 568 994 l 385 1006 l 396 1143 z "},"ј":{"ha":307,"x_min":-178,"x_max":309,"o":"m 287 687 q 298 446 299 568 q 184 -250 309 -180 q 26 -288 130 -288 q -178 -187 -121 -286 l -54 -54 q 44 -57 -1 -92 q 95 191 90 -22 q 85 648 99 404 l 287 687 m 219 930 q 307 860 298 924 q 132 696 309 726 l 109 696 q 33 784 37 705 q 219 930 28 918 z "},"ў":{"ha":612,"x_min":4,"x_max":597,"o":"m 570 671 l 589 416 q 426 -74 597 85 q 135 -258 256 -233 l 40 -101 q 345 144 233 2 l 251 144 q 12 362 34 143 q 35 638 4 504 l 203 687 l 203 633 q 243 342 166 389 q 385 355 342 326 q 361 705 388 536 l 570 671 m 74 915 l 178 928 q 227 854 191 874 q 351 860 285 816 q 397 935 385 880 l 502 915 q 434 781 487 831 q 289 732 380 732 q 144 782 198 732 q 74 915 90 831 z "},"і":{"ha":397,"x_min":-16,"x_max":418,"o":"m 257 943 q 348 878 336 941 q 159 704 355 707 q 79 787 87 709 q 257 943 67 921 m 261 598 q 215 263 204 426 q 302 228 229 177 l 418 85 q 227 4 349 13 q 3 243 16 -7 q 53 651 -16 415 l 261 598 z "},"є":{"ha":564,"x_min":-28,"x_max":571,"o":"m 309 701 l 309 701 l 309 701 q 563 578 475 724 l 427 500 q 326 536 391 543 q 197 425 233 521 q 360 416 288 426 q 351 304 352 392 q 203 290 238 300 q 317 180 191 184 q 418 252 381 189 l 571 223 q 292 -3 509 24 q 41 161 136 -19 q 7 281 12 223 q 226 676 -28 536 q 309 701 253 693 z "},"ї":{"ha":404,"x_min":-22,"x_max":442,"o":"m 286 585 q 231 323 243 481 q 258 229 225 240 q 319 246 290 218 l 425 93 q 208 -6 382 -3 q 3 244 3 -6 q 75 649 3 465 l 286 585 m -12 927 l 180 936 l 161 779 l -22 791 l -12 927 m 251 926 l 442 935 l 423 777 l 240 789 l 251 926 z "},"ґ":{"ha":471,"x_min":0,"x_max":477,"o":"m 466 861 q 463 545 477 625 q 191 505 234 525 q 227 -1 224 186 q 47 -7 143 -20 l 0 639 q 313 694 110 688 q 304 863 319 694 q 466 861 376 865 z "},"ğ":{"ha":652,"x_min":-9,"x_max":655,"o":"m 655 707 q 637 172 640 364 q 605 -159 635 -20 q 361 -296 575 -298 q 85 -158 193 -288 l 184 -28 q 339 -71 249 -68 q 409 93 412 -65 q 195 39 325 37 q 10 201 62 39 q -5 399 -9 266 q 75 618 -1 538 q 275 673 146 673 q 425 630 342 673 l 431 682 l 655 707 m 234 392 q 325 250 224 268 q 414 275 387 250 l 414 464 q 330 473 366 475 q 234 392 243 475 m 111 915 l 242 928 q 290 854 255 874 q 360 860 330 840 q 407 935 394 880 l 538 915 q 470 781 524 831 q 326 732 417 732 q 180 782 235 732 q 111 915 126 831 z "},"ş":{"ha":530,"x_min":-27,"x_max":544,"o":"m 258 705 q 534 548 398 708 l 414 427 q 236 519 295 519 q 196 486 197 512 q 379 384 205 454 q 532 146 544 285 q 357 -3 503 14 q 219 -7 304 -14 q -27 141 78 14 l 81 279 q 242 193 195 193 q 282 216 273 193 q 138 301 282 252 q -4 507 -4 372 q 258 705 2 693 m 121 -168 q 218 -209 179 -209 q 271 -197 256 -209 q 287 -170 287 -186 q 259 -138 287 -149 q 189 -130 239 -130 q 153 -132 173 -130 l 189 0 l 282 0 l 258 -59 q 281 -58 260 -58 q 371 -88 334 -58 q 407 -169 407 -119 q 363 -255 407 -222 q 243 -288 320 -288 q 94 -248 165 -288 l 121 -168 z "},"Ğ":{"ha":754,"x_min":-9,"x_max":768,"o":"m 452 979 q 768 818 671 979 l 563 646 q 429 684 501 684 q 232 488 256 681 q 390 317 238 323 q 474 362 443 323 l 368 385 l 386 507 l 713 551 q 729 390 729 464 q 413 1 729 83 q 301 -4 379 -5 q 12 273 111 -4 q -9 451 -9 342 q 273 945 -4 798 q 452 979 392 979 m 165 1193 l 297 1206 q 345 1132 310 1152 q 415 1138 385 1118 q 462 1213 449 1158 l 593 1193 q 525 1059 578 1109 q 380 1010 472 1010 q 235 1060 290 1010 q 165 1193 181 1109 z "},"Ş":{"ha":714,"x_min":-21,"x_max":749,"o":"m 193 954 q 703 842 450 1021 l 585 627 q 260 667 254 772 q 399 589 281 620 q 740 245 749 445 q 584 36 743 118 q 382 -7 520 3 q 18 109 222 -12 l 112 316 q 420 280 422 191 q 155 425 409 323 q -7 679 -9 515 q 193 954 -21 846 m 233 -168 q 331 -209 292 -209 q 384 -197 368 -209 q 399 -170 399 -186 q 372 -138 399 -149 q 302 -130 351 -130 q 265 -132 286 -130 l 302 0 l 395 0 l 371 -59 q 394 -58 372 -58 q 483 -88 447 -58 q 519 -169 519 -119 q 476 -255 519 -222 q 356 -288 433 -288 q 206 -248 278 -288 l 233 -168 z "},"ă":{"ha":597,"x_min":-1,"x_max":614,"o":"m 359 705 q 570 456 530 712 q 614 56 602 227 l 391 -9 l 384 34 q 184 -2 290 -3 q 0 205 13 28 q 195 377 0 353 q 354 378 279 388 q 313 500 349 495 q 145 385 249 502 l -1 501 q 359 705 139 709 m 205 193 q 267 169 216 170 q 368 182 309 170 l 361 248 l 302 248 q 205 193 200 247 m 93 915 l 224 928 q 273 854 237 874 q 342 860 313 840 q 389 935 376 880 l 521 915 q 453 781 506 831 q 308 732 399 732 q 163 782 217 732 q 93 915 109 831 z "},"ţ":{"ha":457,"x_min":-33,"x_max":484,"o":"m 391 981 l 359 739 l 439 732 l 457 556 l 317 551 q 326 223 237 247 q 380 239 357 220 l 484 87 q 260 -6 391 -6 q 75 114 111 -6 q 81 553 36 280 l -33 557 l -2 736 l 113 744 l 139 955 l 391 981 m 93 -168 q 191 -209 151 -209 q 243 -197 228 -209 q 259 -170 259 -186 q 231 -138 259 -149 q 161 -130 211 -130 q 125 -132 145 -130 l 161 0 l 254 0 l 231 -59 q 254 -58 232 -58 q 343 -88 307 -58 q 379 -169 379 -119 q 336 -255 379 -222 q 216 -288 292 -288 q 66 -248 138 -288 l 93 -168 z "},"Ă":{"ha":795,"x_min":-34,"x_max":822,"o":"m 262 972 l 538 972 l 822 163 l 541 -1 l 502 133 l 283 133 l 231 4 l -34 136 l 262 972 m 333 312 l 486 317 l 434 490 l 392 490 l 333 312 m 194 1193 l 326 1206 q 374 1132 338 1152 q 444 1138 414 1118 q 490 1213 477 1158 l 622 1193 q 554 1059 607 1109 q 409 1010 500 1010 q 264 1060 318 1010 q 194 1193 210 1109 z "},"Ţ":{"ha":726,"x_min":-9,"x_max":743,"o":"m 694 976 q 743 688 724 814 q 509 693 614 693 q 509 1 520 293 l 258 1 q 241 589 236 176 l 240 691 q -9 681 121 691 q 35 970 9 860 q 694 976 312 976 m 234 -168 q 332 -209 292 -209 q 385 -197 369 -209 q 400 -170 400 -186 q 372 -138 400 -149 q 302 -130 352 -130 q 266 -132 286 -130 l 302 0 l 395 0 l 372 -59 q 395 -58 373 -58 q 484 -88 448 -58 q 520 -169 520 -119 q 477 -255 520 -222 q 357 -288 433 -288 q 207 -248 279 -288 l 234 -168 z "},"ą":{"ha":597,"x_min":-1,"x_max":614,"o":"m 359 705 q 570 456 530 712 q 614 56 602 227 l 391 -9 l 384 34 q 184 -2 290 -3 q 0 205 13 28 q 195 377 0 353 q 354 378 279 388 q 313 500 349 495 q 145 385 249 502 l -1 501 q 359 705 139 709 m 205 193 q 267 169 216 170 q 368 182 309 170 l 361 248 l 302 248 q 205 193 200 247 m 538 45 q 467 -28 488 0 q 442 -92 447 -56 q 452 -135 442 -123 q 484 -146 462 -146 q 561 -109 526 -142 l 601 -139 q 534 -210 574 -185 q 443 -235 493 -235 q 354 -209 388 -235 q 321 -143 321 -182 q 360 -40 321 -92 q 476 45 400 11 l 538 45 z "},"ę":{"ha":648,"x_min":-5,"x_max":654,"o":"m 537 639 q 648 405 645 551 l 258 228 q 375 196 284 198 q 602 311 467 194 l 654 137 q 222 -8 456 -61 q -1 296 31 68 q 40 537 -5 441 q 309 691 143 693 q 537 639 444 700 m 203 393 l 431 494 q 267 528 374 562 q 203 393 193 488 m 571 73 q 500 -1 520 27 q 475 -64 479 -28 q 485 -107 475 -96 q 517 -119 494 -119 q 593 -82 559 -115 l 633 -112 q 566 -183 607 -158 q 475 -208 526 -208 q 387 -181 420 -208 q 353 -116 353 -155 q 393 -13 353 -64 q 509 73 433 38 l 571 73 z "},"ź":{"ha":593,"x_min":-2,"x_max":602,"o":"m 568 692 l 573 681 l 573 556 q 311 248 534 506 l 311 243 l 323 248 q 590 260 564 260 q 596 265 590 265 l 602 254 q 562 -2 573 16 q 15 -14 109 -14 l 9 -2 l 9 106 q 3 197 9 139 l 243 459 l 9 459 q -2 471 -2 459 q 66 675 52 655 q 568 692 113 681 m 399 959 l 444 964 l 514 810 l 243 718 l 179 772 l 399 959 z "},"ż":{"ha":593,"x_min":-2,"x_max":602,"o":"m 568 692 l 573 681 l 573 556 q 311 248 534 506 l 311 243 l 323 248 q 590 260 564 260 q 596 265 590 265 l 602 254 q 562 -2 573 16 q 15 -14 109 -14 l 9 -2 l 9 106 q 3 197 9 139 l 243 459 l 9 459 q -2 471 -2 459 q 66 675 52 655 q 568 692 113 681 m 223 876 l 270 925 q 284 934 276 930 q 302 938 292 938 q 318 934 311 938 q 332 924 326 930 l 380 873 q 386 865 385 870 q 388 855 388 861 q 386 845 387 849 q 379 835 385 840 l 331 783 q 316 771 321 774 q 302 768 310 768 q 282 771 291 768 q 269 781 274 774 l 219 839 q 214 847 215 843 q 212 857 212 851 q 215 866 212 861 q 223 876 217 871 z "},"ś":{"ha":530,"x_min":-27,"x_max":544,"o":"m 258 705 q 534 548 398 708 l 414 427 q 236 519 295 519 q 196 486 197 512 q 379 384 205 454 q 532 146 544 285 q 357 -3 503 14 q 219 -7 304 -14 q -27 141 78 14 l 81 279 q 242 193 195 193 q 282 216 273 193 q 138 301 282 252 q -4 507 -4 372 q 258 705 2 693 m 353 959 l 398 964 l 468 810 l 197 718 l 133 772 l 353 959 z "},"ń":{"ha":636,"x_min":-7,"x_max":640,"o":"m 214 718 l 220 666 q 406 698 326 697 q 598 604 530 691 q 638 424 640 531 l 623 -1 l 407 -1 l 411 353 q 350 456 413 450 q 251 393 275 463 q 239 -1 237 321 l 11 -1 l 6 439 q -7 672 6 539 l 214 718 m 416 959 l 460 964 l 530 810 l 260 718 l 195 772 l 416 959 z "},"ł":{"ha":450,"x_min":-7,"x_max":458,"o":"m 338 972 q 342 748 339 929 l 431 791 l 458 534 l 353 475 q 347 -5 349 257 l 92 -5 q 90 363 87 145 l 12 334 q -7 565 3 414 l 90 633 q 94 956 91 786 l 338 972 z "},"Ś":{"ha":714,"x_min":-21,"x_max":749,"o":"m 193 954 q 703 842 450 1021 l 585 627 q 260 667 254 772 q 399 589 281 620 q 740 245 749 445 q 584 36 743 118 q 382 -7 520 3 q 18 109 222 -12 l 112 316 q 420 280 422 191 q 155 425 409 323 q -7 679 -9 515 q 193 954 -21 846 m 466 1237 l 511 1242 l 581 1088 l 310 996 l 245 1050 l 466 1237 z "},"Ż":{"ha":779,"x_min":-9,"x_max":791,"o":"m 68 970 l 715 970 l 720 834 l 366 267 q 791 319 507 278 l 749 12 l 11 -5 l 5 142 l 366 722 l -9 722 l 68 970 m 314 1154 l 361 1203 q 375 1212 367 1208 q 393 1216 383 1216 q 409 1212 401 1216 q 423 1202 417 1208 l 471 1152 q 477 1143 475 1148 q 479 1133 479 1139 q 477 1123 478 1127 q 470 1113 475 1118 l 422 1061 q 407 1049 412 1053 q 393 1046 401 1046 q 373 1049 382 1046 q 360 1059 365 1053 l 310 1117 q 304 1125 306 1121 q 303 1135 303 1129 q 306 1144 303 1139 q 314 1154 308 1149 z "},"Ź":{"ha":779,"x_min":-9,"x_max":791,"o":"m 68 970 l 715 970 l 720 834 l 366 267 q 791 319 507 278 l 749 12 l 11 -5 l 5 142 l 366 722 l -9 722 l 68 970 m 491 1237 l 536 1242 l 606 1088 l 335 996 l 271 1050 l 491 1237 z "},"Ž":{"ha":779,"x_min":-9,"x_max":791,"o":"m 68 970 l 715 970 l 720 834 l 366 267 q 791 319 507 278 l 749 12 l 11 -5 l 5 142 l 366 722 l -9 722 l 68 970 m 174 1225 l 350 1253 l 391 1176 l 432 1253 l 608 1225 l 441 1010 l 340 1010 l 174 1225 z "},"Ŷ":{"ha":709,"x_min":-20,"x_max":739,"o":"m 177 959 l 386 683 l 522 969 l 739 792 l 346 -5 l 79 186 l 252 475 l -20 788 l 177 959 m 180 1030 l 347 1253 l 448 1253 l 614 1030 l 445 1010 l 397 1088 l 342 1010 l 180 1030 z "},"ŷ":{"ha":612,"x_min":-1,"x_max":631,"o":"m 604 664 l 628 446 q 464 -94 631 78 q 176 -292 296 -267 l 40 -101 q 345 144 233 2 l 251 144 q 5 362 34 143 q 7 638 -1 502 l 203 687 l 203 633 q 264 355 203 389 q 385 355 342 326 q 361 705 388 536 l 604 664 m 98 752 l 264 975 l 366 975 l 532 752 l 363 732 l 315 810 l 260 732 l 98 752 z "},"Ÿ":{"ha":709,"x_min":-20,"x_max":739,"o":"m 177 959 l 386 683 l 522 969 l 739 792 l 346 -5 l 79 186 l 252 475 l -20 788 l 177 959 m 176 1205 l 367 1214 l 348 1057 l 165 1069 l 176 1205 m 438 1204 l 629 1213 l 610 1055 l 427 1067 l 438 1204 z "},"ŵ":{"ha":785,"x_min":-7,"x_max":794,"o":"m 222 723 q 285 328 247 643 l 381 402 l 468 328 q 554 683 519 574 q 794 574 775 594 l 667 0 l 478 0 l 388 110 l 295 0 l 146 0 l 56 351 l -7 608 l 222 723 m 177 752 l 343 975 l 444 975 l 610 752 l 441 732 l 394 810 l 339 732 l 177 752 z "},"Ŵ":{"ha":1000,"x_min":-14,"x_max":1023,"o":"m 300 972 l 466 498 l 566 603 l 642 476 l 742 911 l 1023 758 l 814 -1 l 593 -1 l 550 151 l 461 -1 l 274 -1 l -14 823 l 300 972 m 288 1030 l 454 1253 l 555 1253 l 722 1030 l 553 1010 l 505 1088 l 450 1010 l 288 1030 z "},"ų":{"ha":573,"x_min":-4,"x_max":594,"o":"m 235 705 l 216 431 q 286 260 214 254 q 344 511 353 248 l 334 694 l 564 642 q 528 128 594 208 q 264 -3 441 4 q 64 94 148 -3 q 1 340 1 198 q 12 671 -4 464 l 235 705 m 436 47 q 365 -26 385 2 q 340 -90 345 -54 q 350 -133 340 -121 q 382 -144 359 -144 q 458 -107 424 -140 l 498 -137 q 431 -208 472 -183 q 340 -233 391 -233 q 252 -207 286 -233 q 218 -141 218 -180 q 258 -38 218 -90 q 374 47 298 13 l 436 47 z "},"Ų":{"ha":714,"x_min":-3,"x_max":725,"o":"m -3 972 l 278 934 q 280 385 269 666 q 353 342 300 329 q 415 907 465 338 l 717 962 q 634 254 725 617 q 321 1 551 16 q 6 456 6 1 l -3 972 m 487 60 q 416 -14 436 14 q 391 -77 395 -41 q 400 -120 391 -109 q 433 -132 410 -132 q 509 -95 475 -127 l 549 -125 q 482 -196 523 -171 q 391 -221 441 -221 q 303 -194 336 -221 q 269 -129 269 -168 q 309 -26 269 -77 q 425 60 349 25 l 487 60 z "},"ű":{"ha":573,"x_min":-4,"x_max":594,"o":"m 235 705 l 216 431 q 286 260 214 254 q 344 511 353 248 l 334 694 l 564 642 q 528 128 594 208 q 264 -3 441 4 q 64 94 148 -3 q 1 340 1 198 q 12 671 -4 464 l 235 705 m 131 732 l 225 970 l 361 928 l 224 732 l 131 732 m 351 732 l 446 970 l 582 928 l 445 732 l 351 732 z "},"Ű":{"ha":714,"x_min":-3,"x_max":725,"o":"m -3 972 l 278 934 q 280 385 269 666 q 353 342 300 329 q 415 907 465 338 l 717 962 q 634 254 725 617 q 321 1 551 16 q 6 456 6 1 l -3 972 m 161 1010 l 256 1248 l 392 1206 l 255 1010 l 161 1010 m 382 1010 l 476 1248 l 612 1206 l 475 1010 l 382 1010 z "},"ů":{"ha":573,"x_min":-4,"x_max":594,"o":"m 235 705 l 216 431 q 286 260 214 254 q 344 511 353 248 l 334 694 l 564 642 q 528 128 594 208 q 264 -3 441 4 q 64 94 148 -3 q 1 340 1 198 q 12 671 -4 464 l 235 705 m 227 864 q 245 821 227 838 q 286 805 264 805 q 326 821 308 805 q 345 864 345 838 q 326 906 345 890 q 286 922 307 922 q 246 906 264 922 q 227 864 227 890 m 151 864 q 189 956 151 917 q 286 996 227 996 q 384 956 346 996 q 422 864 422 916 q 384 771 422 810 q 286 732 346 732 q 189 771 227 732 q 151 864 151 810 z "},"Ů":{"ha":714,"x_min":-3,"x_max":725,"o":"m -3 972 l 278 934 q 280 385 269 666 q 353 342 300 329 q 415 907 465 338 l 717 962 q 634 254 725 617 q 321 1 551 16 q 6 456 6 1 l -3 972 m 298 1142 q 316 1099 298 1116 q 357 1083 334 1083 q 397 1099 378 1083 q 415 1142 415 1116 q 396 1184 415 1168 q 357 1200 378 1200 q 316 1184 335 1200 q 298 1142 298 1168 m 222 1142 q 259 1234 222 1195 q 356 1274 297 1274 q 454 1234 416 1274 q 492 1142 492 1194 q 454 1049 492 1088 q 356 1010 416 1010 q 259 1049 297 1010 q 222 1142 222 1088 z "},"ŭ":{"ha":573,"x_min":-4,"x_max":594,"o":"m 235 705 l 216 431 q 286 260 214 254 q 344 511 353 248 l 334 694 l 564 642 q 528 128 594 208 q 264 -3 441 4 q 64 94 148 -3 q 1 340 1 198 q 12 671 -4 464 l 235 705 m 73 915 l 204 928 q 252 854 217 874 q 322 860 292 840 q 369 935 356 880 l 500 915 q 432 781 486 831 q 288 732 379 732 q 142 782 197 732 q 73 915 88 831 z "},"Ŭ":{"ha":714,"x_min":-3,"x_max":725,"o":"m -3 972 l 278 934 q 280 385 269 666 q 353 342 300 329 q 415 907 465 338 l 717 962 q 634 254 725 617 q 321 1 551 16 q 6 456 6 1 l -3 972 m 143 1193 l 275 1206 q 323 1132 288 1152 q 393 1138 363 1118 q 439 1213 427 1158 l 571 1193 q 503 1059 556 1109 q 358 1010 450 1010 q 213 1060 267 1010 q 143 1193 159 1109 z "},"ū":{"ha":573,"x_min":-4,"x_max":594,"o":"m 235 705 l 216 431 q 286 260 214 254 q 344 511 353 248 l 334 694 l 564 642 q 528 128 594 208 q 264 -3 441 4 q 64 94 148 -3 q 1 340 1 198 q 12 671 -4 464 l 235 705 m 96 777 l 96 909 l 476 909 l 476 777 l 96 777 z "},"Ū":{"ha":714,"x_min":-3,"x_max":725,"o":"m -3 972 l 278 934 q 280 385 269 666 q 353 342 300 329 q 415 907 465 338 l 717 962 q 634 254 725 617 q 321 1 551 16 q 6 456 6 1 l -3 972 m 168 1055 l 168 1187 l 547 1187 l 547 1055 l 168 1055 z "},"ũ":{"ha":573,"x_min":-4,"x_max":594,"o":"m 235 705 l 216 431 q 286 260 214 254 q 344 511 353 248 l 334 694 l 564 642 q 528 128 594 208 q 264 -3 441 4 q 64 94 148 -3 q 1 340 1 198 q 12 671 -4 464 l 235 705 m 537 943 l 543 890 q 378 733 542 733 q 259 782 309 736 q 176 818 210 828 q 102 760 136 811 l 31 825 q 215 937 115 937 q 301 898 246 937 q 408 859 355 859 q 443 926 447 866 l 537 943 z "},"Ũ":{"ha":714,"x_min":-3,"x_max":725,"o":"m -3 972 l 278 934 q 280 385 269 666 q 353 342 300 329 q 415 907 465 338 l 717 962 q 634 254 725 617 q 321 1 551 16 q 6 456 6 1 l -3 972 m 608 1221 l 614 1168 q 450 1011 613 1011 q 331 1060 380 1014 q 248 1096 281 1106 q 173 1038 207 1089 l 102 1103 q 286 1215 186 1215 q 372 1176 317 1215 q 479 1137 427 1137 q 514 1204 518 1144 l 608 1221 z "},"Š":{"ha":714,"x_min":-21,"x_max":749,"o":"m 193 954 q 703 842 450 1021 l 585 627 q 260 667 254 772 q 399 589 281 620 q 740 245 749 445 q 584 36 743 118 q 382 -7 520 3 q 18 109 222 -12 l 112 316 q 420 280 422 191 q 155 425 409 323 q -7 679 -9 515 q 193 954 -21 846 m 150 1225 l 326 1253 l 367 1176 l 408 1253 l 583 1225 l 417 1010 l 316 1010 l 150 1225 z "},"ŝ":{"ha":530,"x_min":-27,"x_max":544,"o":"m 258 705 q 534 548 398 708 l 414 427 q 236 519 295 519 q 196 486 197 512 q 379 384 205 454 q 532 146 544 285 q 357 -3 503 14 q 219 -7 304 -14 q -27 141 78 14 l 81 279 q 242 193 195 193 q 282 216 273 193 q 138 301 282 252 q -4 507 -4 372 q 258 705 2 693 m 37 752 l 203 975 l 304 975 l 470 752 l 301 732 l 254 810 l 199 732 l 37 752 z "},"Ŝ":{"ha":714,"x_min":-21,"x_max":749,"o":"m 193 954 q 703 842 450 1021 l 585 627 q 260 667 254 772 q 399 589 281 620 q 740 245 749 445 q 584 36 743 118 q 382 -7 520 3 q 18 109 222 -12 l 112 316 q 420 280 422 191 q 155 425 409 323 q -7 679 -9 515 q 193 954 -21 846 m 150 1030 l 316 1253 l 417 1253 l 583 1030 l 414 1010 l 367 1088 l 312 1010 l 150 1030 z "},"ř":{"ha":536,"x_min":-1,"x_max":558,"o":"m 266 705 l 259 527 q 460 654 383 648 l 558 470 q 265 257 348 415 l 273 -1 l -1 -1 l 24 654 l 266 705 m 62 947 l 237 975 l 279 898 l 319 975 l 495 947 l 329 732 l 228 732 l 62 947 z "},"Ř":{"ha":830,"x_min":-21,"x_max":851,"o":"m 464 966 q 776 775 663 954 q 793 667 796 727 q 628 432 787 543 q 851 155 656 407 l 623 3 l 401 320 l 415 42 l 119 1 l -21 913 q 393 970 62 942 l 464 966 m 365 695 l 376 592 q 538 658 535 605 q 495 699 540 691 q 365 695 443 705 m 202 1225 l 378 1253 l 419 1176 l 460 1253 l 635 1225 l 469 1010 l 368 1010 l 202 1225 z "},"Ĉ":{"ha":757,"x_min":-54,"x_max":776,"o":"m 414 972 q 764 803 643 1004 l 564 637 q 436 688 500 697 q 267 463 268 654 q 418 323 298 309 q 544 410 473 332 l 776 311 q 389 -2 689 35 q 42 225 173 -24 q -4 391 2 311 q 298 938 -54 745 q 414 972 336 961 m 166 1030 l 332 1253 l 433 1253 l 600 1030 l 431 1010 l 383 1088 l 328 1010 l 166 1030 z "},"ĉ":{"ha":569,"x_min":1,"x_max":602,"o":"m 311 697 q 602 588 492 705 l 465 445 q 350 490 412 491 q 236 370 251 488 q 322 239 229 257 q 454 296 382 228 l 574 181 q 242 -2 455 -4 q 36 136 100 -2 q 1 313 1 212 q 116 634 4 545 q 311 697 183 697 m 85 752 l 252 975 l 353 975 l 519 752 l 350 732 l 302 810 l 248 732 l 85 752 z "},"Ċ":{"ha":757,"x_min":-54,"x_max":776,"o":"m 414 972 q 764 803 643 1004 l 564 637 q 436 688 500 697 q 267 463 268 654 q 418 323 298 309 q 544 410 473 332 l 776 311 q 389 -2 689 35 q 42 225 173 -24 q -4 391 2 311 q 298 938 -54 745 q 414 972 336 961 m 306 1154 l 353 1203 q 367 1212 359 1208 q 385 1216 375 1216 q 401 1212 393 1216 q 415 1202 409 1208 l 463 1152 q 469 1143 467 1148 q 471 1133 471 1139 q 469 1123 470 1127 q 462 1113 467 1118 l 414 1061 q 398 1049 404 1053 q 385 1046 393 1046 q 365 1049 374 1046 q 352 1059 357 1053 l 302 1117 q 296 1125 298 1121 q 295 1135 295 1129 q 297 1144 295 1139 q 306 1154 300 1149 z "},"ċ":{"ha":569,"x_min":1,"x_max":602,"o":"m 311 697 q 602 588 492 705 l 465 445 q 350 490 412 491 q 236 370 251 488 q 322 239 229 257 q 454 296 382 228 l 574 181 q 242 -2 455 -4 q 36 136 100 -2 q 1 313 1 212 q 116 634 4 545 q 311 697 183 697 m 225 876 l 272 925 q 286 934 278 930 q 304 938 294 938 q 320 934 313 938 q 334 924 328 930 l 382 873 q 388 865 387 870 q 390 855 390 861 q 388 845 389 849 q 381 835 387 840 l 333 783 q 318 771 323 774 q 304 768 312 768 q 284 771 293 768 q 271 781 276 774 l 221 839 q 216 847 217 843 q 214 857 214 851 q 217 866 214 861 q 225 876 219 871 z "},"Č":{"ha":757,"x_min":-54,"x_max":776,"o":"m 414 972 q 764 803 643 1004 l 564 637 q 436 688 500 697 q 267 463 268 654 q 418 323 298 309 q 544 410 473 332 l 776 311 q 389 -2 689 35 q 42 225 173 -24 q -4 391 2 311 q 298 938 -54 745 q 414 972 336 961 m 166 1225 l 342 1253 l 383 1176 l 424 1253 l 600 1225 l 433 1010 l 332 1010 l 166 1225 z "},"Đ":{"ha":874,"x_min":-28,"x_max":898,"o":"m 403 389 l 414 285 q 606 517 569 351 q 531 690 624 627 q 368 713 444 732 l 382 585 l 467 596 l 481 410 l 403 389 m 80 541 l 25 910 q 561 953 280 1008 q 890 602 860 854 q 876 443 898 525 q 534 49 826 217 q 163 -21 343 -26 l 115 307 l 27 283 l -28 527 l 80 541 z "},"Ć":{"ha":757,"x_min":-54,"x_max":776,"o":"m 414 972 q 764 803 643 1004 l 564 637 q 436 688 500 697 q 267 463 268 654 q 418 323 298 309 q 544 410 473 332 l 776 311 q 389 -2 689 35 q 42 225 173 -24 q -4 391 2 311 q 298 938 -54 745 q 414 972 336 961 m 482 1237 l 527 1242 l 597 1088 l 326 996 l 262 1050 l 482 1237 z "},"Ą":{"ha":795,"x_min":-34,"x_max":822,"o":"m 262 972 l 538 972 l 822 163 l 541 -1 l 502 133 l 283 133 l 231 4 l -34 136 l 262 972 m 333 312 l 486 317 l 434 490 l 392 490 l 333 312 m 637 61 q 566 -12 587 16 q 541 -76 546 -40 q 551 -119 541 -108 q 583 -130 561 -130 q 660 -94 625 -126 l 700 -123 q 633 -195 673 -170 q 542 -220 592 -220 q 453 -193 487 -220 q 420 -127 420 -166 q 459 -25 420 -76 q 575 61 499 26 l 637 61 z "},"ā":{"ha":597,"x_min":-1,"x_max":614,"o":"m 359 705 q 570 456 530 712 q 614 56 602 227 l 391 -9 l 384 34 q 184 -2 290 -3 q 0 205 13 28 q 195 377 0 353 q 354 378 279 388 q 313 500 349 495 q 145 385 249 502 l -1 501 q 359 705 139 709 m 205 193 q 267 169 216 170 q 368 182 309 170 l 361 248 l 302 248 q 205 193 200 247 m 117 777 l 117 909 l 496 909 l 496 777 l 117 777 z "},"Ā":{"ha":795,"x_min":-34,"x_max":822,"o":"m 262 972 l 538 972 l 822 163 l 541 -1 l 502 133 l 283 133 l 231 4 l -34 136 l 262 972 m 333 312 l 486 317 l 434 490 l 392 490 l 333 312 m 218 1055 l 218 1187 l 597 1187 l 597 1055 l 218 1055 z "},"Ē":{"ha":765,"x_min":-1,"x_max":779,"o":"m 773 972 l 741 696 l 331 659 l 344 570 l 629 578 l 607 392 l 362 372 l 372 267 l 779 293 l 738 24 q 89 -1 736 11 l -1 915 l 773 972 m 196 1055 l 196 1187 l 576 1187 l 576 1055 l 196 1055 z "},"ē":{"ha":648,"x_min":-5,"x_max":654,"o":"m 537 639 q 648 405 645 551 l 258 228 q 375 196 284 198 q 602 311 467 194 l 654 137 q 222 -8 456 -61 q -1 296 31 68 q 40 537 -5 441 q 309 691 143 693 q 537 639 444 700 m 203 393 l 431 494 q 267 528 374 562 q 203 393 193 488 m 136 777 l 136 909 l 516 909 l 516 777 l 136 777 z "},"Ĕ":{"ha":765,"x_min":-1,"x_max":779,"o":"m 773 972 l 741 696 l 331 659 l 344 570 l 629 578 l 607 392 l 362 372 l 372 267 l 779 293 l 738 24 q 89 -1 736 11 l -1 915 l 773 972 m 172 1193 l 303 1206 q 351 1132 316 1152 q 421 1138 391 1118 q 468 1213 455 1158 l 600 1193 q 531 1059 585 1109 q 387 1010 478 1010 q 241 1060 296 1010 q 172 1193 187 1109 z "},"ĕ":{"ha":648,"x_min":-5,"x_max":654,"o":"m 537 639 q 648 405 645 551 l 258 228 q 375 196 284 198 q 602 311 467 194 l 654 137 q 222 -8 456 -61 q -1 296 31 68 q 40 537 -5 441 q 309 691 143 693 q 537 639 444 700 m 203 393 l 431 494 q 267 528 374 562 q 203 393 193 488 m 113 915 l 244 928 q 292 854 257 874 q 362 860 332 840 q 409 935 396 880 l 541 915 q 472 781 526 831 q 328 732 419 732 q 182 782 237 732 q 113 915 128 831 z "},"Ė":{"ha":765,"x_min":-1,"x_max":779,"o":"m 773 972 l 741 696 l 331 659 l 344 570 l 629 578 l 607 392 l 362 372 l 372 267 l 779 293 l 738 24 q 89 -1 736 11 l -1 915 l 773 972 m 309 1154 l 355 1203 q 370 1212 361 1208 q 387 1216 378 1216 q 404 1212 396 1216 q 418 1202 412 1208 l 465 1152 q 472 1143 470 1148 q 473 1133 473 1139 q 471 1123 473 1127 q 465 1113 470 1118 l 416 1061 q 401 1049 407 1053 q 387 1046 395 1046 q 368 1049 376 1046 q 355 1059 359 1053 l 304 1117 q 299 1125 300 1121 q 298 1135 298 1129 q 300 1144 298 1139 q 309 1154 302 1149 z "},"ė":{"ha":648,"x_min":-5,"x_max":654,"o":"m 537 639 q 648 405 645 551 l 258 228 q 375 196 284 198 q 602 311 467 194 l 654 137 q 222 -8 456 -61 q -1 296 31 68 q 40 537 -5 441 q 309 691 143 693 q 537 639 444 700 m 203 393 l 431 494 q 267 528 374 562 q 203 393 193 488 m 250 876 l 296 925 q 311 934 302 930 q 328 938 319 938 q 345 934 337 938 q 359 924 353 930 l 406 873 q 413 865 411 870 q 414 855 414 861 q 412 845 414 849 q 406 835 411 840 l 357 783 q 342 771 348 774 q 328 768 336 768 q 309 771 317 768 q 296 781 300 774 l 245 839 q 240 847 241 843 q 239 857 239 851 q 241 866 239 861 q 250 876 243 871 z "},"Ę":{"ha":765,"x_min":-1,"x_max":779,"o":"m 773 972 l 741 696 l 331 659 l 344 570 l 629 578 l 607 392 l 362 372 l 372 267 l 779 293 l 738 24 q 89 -1 736 11 l -1 915 l 773 972 m 703 27 q 632 -46 652 -18 q 607 -110 612 -74 q 617 -153 607 -142 q 649 -164 627 -164 q 726 -127 691 -160 l 766 -157 q 699 -229 739 -203 q 608 -254 658 -254 q 519 -227 553 -254 q 486 -161 486 -200 q 525 -59 486 -110 q 641 27 565 -7 l 703 27 z "},"Ě":{"ha":765,"x_min":-1,"x_max":779,"o":"m 773 972 l 741 696 l 331 659 l 344 570 l 629 578 l 607 392 l 362 372 l 372 267 l 779 293 l 738 24 q 89 -1 736 11 l -1 915 l 773 972 m 169 1225 l 345 1253 l 386 1176 l 427 1253 l 602 1225 l 436 1010 l 335 1010 l 169 1225 z "},"ě":{"ha":648,"x_min":-5,"x_max":654,"o":"m 537 639 q 648 405 645 551 l 258 228 q 375 196 284 198 q 602 311 467 194 l 654 137 q 222 -8 456 -61 q -1 296 31 68 q 40 537 -5 441 q 309 691 143 693 q 537 639 444 700 m 203 393 l 431 494 q 267 528 374 562 q 203 393 193 488 m 110 947 l 286 975 l 327 898 l 368 975 l 543 947 l 377 732 l 276 732 l 110 947 z "},"Ĝ":{"ha":754,"x_min":-9,"x_max":768,"o":"m 452 979 q 768 818 671 979 l 563 646 q 429 684 501 684 q 232 488 256 681 q 390 317 238 323 q 474 362 443 323 l 368 385 l 386 507 l 713 551 q 729 390 729 464 q 413 1 729 83 q 301 -4 379 -5 q 12 273 111 -4 q -9 451 -9 342 q 273 945 -4 798 q 452 979 392 979 m 163 1030 l 329 1253 l 430 1253 l 596 1030 l 427 1010 l 380 1088 l 325 1010 l 163 1030 z "},"ĝ":{"ha":652,"x_min":-9,"x_max":655,"o":"m 655 707 q 637 172 640 364 q 605 -159 635 -20 q 361 -296 575 -298 q 85 -158 193 -288 l 184 -28 q 339 -71 249 -68 q 409 93 412 -65 q 195 39 325 37 q 10 201 62 39 q -5 399 -9 266 q 75 618 -1 538 q 275 673 146 673 q 425 630 342 673 l 431 682 l 655 707 m 234 392 q 325 250 224 268 q 414 275 387 250 l 414 464 q 330 473 366 475 q 234 392 243 475 m 108 752 l 274 975 l 375 975 l 541 752 l 372 732 l 325 810 l 270 732 l 108 752 z "},"Ġ":{"ha":754,"x_min":-9,"x_max":768,"o":"m 452 979 q 768 818 671 979 l 563 646 q 429 684 501 684 q 232 488 256 681 q 390 317 238 323 q 474 362 443 323 l 368 385 l 386 507 l 713 551 q 729 390 729 464 q 413 1 729 83 q 301 -4 379 -5 q 12 273 111 -4 q -9 451 -9 342 q 273 945 -4 798 q 452 979 392 979 m 302 1154 l 349 1203 q 363 1212 355 1208 q 381 1216 372 1216 q 398 1212 390 1216 q 412 1202 406 1208 l 459 1152 q 466 1143 464 1148 q 467 1133 467 1139 q 465 1123 467 1127 q 458 1113 464 1118 l 410 1061 q 395 1049 401 1053 q 381 1046 389 1046 q 362 1049 370 1046 q 349 1059 353 1053 l 298 1117 q 293 1125 294 1121 q 292 1135 292 1129 q 294 1144 292 1139 q 302 1154 296 1149 z "},"ġ":{"ha":652,"x_min":-9,"x_max":655,"o":"m 655 707 q 637 172 640 364 q 605 -159 635 -20 q 361 -296 575 -298 q 85 -158 193 -288 l 184 -28 q 339 -71 249 -68 q 409 93 412 -65 q 195 39 325 37 q 10 201 62 39 q -5 399 -9 266 q 75 618 -1 538 q 275 673 146 673 q 425 630 342 673 l 431 682 l 655 707 m 234 392 q 325 250 224 268 q 414 275 387 250 l 414 464 q 330 473 366 475 q 234 392 243 475 m 248 876 l 294 925 q 309 934 300 930 q 326 938 317 938 q 343 934 335 938 q 357 924 351 930 l 404 873 q 411 865 409 870 q 412 855 412 861 q 410 845 412 849 q 404 835 409 840 l 355 783 q 340 771 346 774 q 326 768 334 768 q 307 771 315 768 q 294 781 298 774 l 243 839 q 238 847 239 843 q 237 857 237 851 q 239 866 237 861 q 248 876 241 871 z "},"Ģ":{"ha":754,"x_min":-9,"x_max":768,"o":"m 452 979 q 768 818 671 979 l 563 646 q 429 684 501 684 q 232 488 256 681 q 390 317 238 323 q 474 362 443 323 l 368 385 l 386 507 l 713 551 q 729 390 729 464 q 413 1 729 83 q 301 -4 379 -5 q 12 273 111 -4 q -9 451 -9 342 q 273 945 -4 798 q 452 979 392 979 z "},"ģ":{"ha":652,"x_min":-9,"x_max":655,"o":"m 655 707 q 637 172 640 364 q 605 -159 635 -20 q 361 -296 575 -298 q 85 -158 193 -288 l 184 -28 q 339 -71 249 -68 q 409 93 412 -65 q 195 39 325 37 q 10 201 62 39 q -5 399 -9 266 q 75 618 -1 538 q 275 673 146 673 q 425 630 342 673 l 431 682 l 655 707 m 234 392 q 325 250 224 268 q 414 275 387 250 l 414 464 q 330 473 366 475 q 234 392 243 475 z "},"Ĥ":{"ha":826,"x_min":-1,"x_max":830,"o":"m 515 949 l 769 891 l 830 118 l 553 9 l 543 278 l 288 278 l 271 4 l -1 103 l 58 903 l 326 967 l 310 557 l 524 557 l 515 949 m 195 1030 l 361 1253 l 462 1253 l 628 1030 l 459 1010 l 412 1088 l 357 1010 l 195 1030 z "},"ĥ":{"ha":597,"x_min":9,"x_max":618,"o":"m 222 982 l 218 627 q 485 652 389 693 q 602 383 618 608 q 591 -1 598 267 l 389 0 q 389 336 393 104 q 326 390 378 397 q 237 310 251 390 l 228 -1 l 20 -1 l 15 480 l 9 939 l 222 982 m 90 934 l 256 1156 l 357 1156 l 524 934 l 355 913 l 307 992 l 252 913 l 90 934 z "},"Ħ":{"ha":850,"x_min":-35,"x_max":871,"o":"m 556 977 l 776 939 l 844 138 l 574 9 l 556 278 l 302 278 l 271 4 q 5 117 22 97 l 51 924 l 298 960 l 296 557 l 557 557 l 556 977 m -35 663 l -17 840 l 871 861 l 853 683 l -35 663 z "},"ħ":{"ha":708,"x_min":26,"x_max":720,"o":"m 324 982 l 323 897 l 505 909 l 515 725 l 323 711 l 319 627 q 587 652 490 693 q 704 383 720 608 q 692 -1 700 267 l 491 0 q 490 336 495 104 q 427 390 479 397 q 339 310 353 390 l 330 -1 l 122 -1 l 117 480 l 114 684 l 26 678 l 36 872 l 112 880 l 111 939 l 324 982 z "},"Ĩ":{"ha":572,"x_min":-11,"x_max":559,"o":"m 515 972 l 538 699 q 397 704 466 704 l 418 257 l 559 241 l 532 -5 l 5 -5 l -11 235 l 123 257 l 123 710 l 1 703 l 34 956 l 515 972 m 526 1221 l 532 1168 q 367 1011 530 1011 q 248 1060 297 1014 q 165 1096 199 1106 q 90 1038 124 1089 l 19 1103 q 203 1215 104 1215 q 289 1176 235 1215 q 396 1137 344 1137 q 431 1204 435 1144 l 526 1221 z "},"ĩ":{"ha":404,"x_min":-41,"x_max":471,"o":"m 286 585 q 231 323 243 481 q 258 229 225 240 q 319 246 290 218 l 425 93 q 208 -6 382 -3 q 3 244 3 -6 q 75 649 3 465 l 286 585 m 465 943 l 471 890 q 307 733 470 733 q 188 782 237 736 q 104 818 138 828 q 30 760 64 811 l -41 825 q 143 937 43 937 q 229 898 174 937 q 336 859 283 859 q 371 926 375 866 l 465 943 z "},"Ī":{"ha":572,"x_min":-11,"x_max":559,"o":"m 515 972 l 538 699 q 397 704 466 704 l 418 257 l 559 241 l 532 -5 l 5 -5 l -11 235 l 123 257 l 123 710 l 1 703 l 34 956 l 515 972 m 85 1055 l 85 1187 l 465 1187 l 465 1055 l 85 1055 z "},"ī":{"ha":404,"x_min":3,"x_max":425,"o":"m 286 585 q 231 323 243 481 q 258 229 225 240 q 319 246 290 218 l 425 93 q 208 -6 382 -3 q 3 244 3 -6 q 75 649 3 465 l 286 585 m 24 777 l 24 909 l 404 909 l 404 777 l 24 777 z "},"Ĭ":{"ha":572,"x_min":-11,"x_max":559,"o":"m 515 972 l 538 699 q 397 704 466 704 l 418 257 l 559 241 l 532 -5 l 5 -5 l -11 235 l 123 257 l 123 710 l 1 703 l 34 956 l 515 972 m 60 1193 l 192 1206 q 240 1132 205 1152 q 310 1138 280 1118 q 357 1213 344 1158 l 488 1193 q 420 1059 473 1109 q 275 1010 367 1010 q 130 1060 184 1010 q 60 1193 76 1109 z "},"ĭ":{"ha":404,"x_min":0,"x_max":428,"o":"m 286 585 q 231 323 243 481 q 258 229 225 240 q 319 246 290 218 l 425 93 q 208 -6 382 -3 q 3 244 3 -6 q 75 649 3 465 l 286 585 m 0 915 l 132 928 q 180 854 144 874 q 250 860 220 840 q 296 935 283 880 l 428 915 q 360 781 413 831 q 215 732 307 732 q 70 782 124 732 q 0 915 16 831 z "},"Į":{"ha":572,"x_min":-11,"x_max":559,"o":"m 515 972 l 538 699 q 397 704 466 704 l 418 257 l 559 241 l 532 -5 l 5 -5 l -11 235 l 123 257 l 123 710 l 1 703 l 34 956 l 515 972 m 497 7 q 426 -66 446 -39 q 401 -130 406 -94 q 411 -173 401 -162 q 443 -184 420 -184 q 519 -148 485 -180 l 559 -178 q 492 -249 533 -224 q 401 -274 452 -274 q 313 -247 347 -274 q 279 -182 279 -220 q 319 -79 279 -130 q 435 7 359 -28 l 497 7 z "},"į":{"ha":387,"x_min":-16,"x_max":418,"o":"m 257 943 q 348 878 336 941 q 159 704 355 707 q 79 787 87 709 q 257 943 67 921 m 288 598 q 242 304 231 426 q 330 269 256 218 l 418 85 q 227 4 349 13 q 3 243 16 -7 q 53 651 -16 415 l 288 598 m 355 47 q 284 -26 304 2 q 259 -90 264 -54 q 269 -133 259 -121 q 301 -144 279 -144 q 378 -107 343 -140 l 418 -137 q 351 -208 391 -183 q 260 -233 310 -233 q 171 -207 205 -233 q 138 -141 138 -180 q 177 -38 138 -90 q 293 47 217 13 l 355 47 z "},"İ":{"ha":572,"x_min":-11,"x_max":559,"o":"m 515 972 l 538 699 q 397 704 466 704 l 418 257 l 559 241 l 532 -5 l 5 -5 l -11 235 l 123 257 l 123 710 l 1 703 l 34 956 l 515 972 m 197 1154 l 244 1203 q 258 1212 250 1208 q 276 1216 267 1216 q 293 1212 285 1216 q 307 1202 300 1208 l 354 1152 q 360 1143 359 1148 q 362 1133 362 1139 q 360 1123 361 1127 q 353 1113 359 1118 l 305 1061 q 290 1049 296 1053 q 276 1046 284 1046 q 257 1049 265 1046 q 243 1059 248 1053 l 193 1117 q 188 1125 189 1121 q 186 1135 186 1129 q 189 1144 186 1139 q 197 1154 191 1149 z "},"Ĳ":{"ha":1215,"x_min":-11,"x_max":1234,"o":"m 515 972 l 538 699 q 397 704 466 704 l 418 257 l 559 241 l 532 -5 l 5 -5 l -11 235 l 123 257 l 123 710 l 1 703 l 34 956 l 515 972 m 1234 994 q 1180 309 1218 422 q 849 -3 1094 20 q 565 234 600 -6 q 635 520 553 378 l 809 390 q 859 327 812 326 q 934 912 947 335 l 1234 994 z "},"ĳ":{"ha":694,"x_min":-16,"x_max":703,"o":"m 257 943 q 348 878 336 941 q 159 704 355 707 q 79 787 87 709 q 257 943 67 921 m 288 598 q 242 304 231 426 q 330 269 256 218 l 418 85 q 227 4 349 13 q 3 243 16 -7 q 53 651 -16 415 l 288 598 m 687 687 q 698 446 699 568 q 552 -264 703 -180 q 411 -292 519 -290 q 195 -194 252 -292 l 319 -47 q 409 -47 354 -79 q 461 195 464 -15 q 445 648 458 404 l 687 687 m 606 930 q 693 860 684 924 q 519 696 695 726 l 495 696 q 420 784 424 705 q 606 930 414 918 z "},"Ĵ":{"ha":644,"x_min":-26,"x_max":707,"o":"m 656 994 q 602 309 640 422 q 271 -3 515 20 q -14 234 22 -6 q 57 520 -26 378 l 231 390 q 281 327 233 326 q 355 912 369 335 l 656 994 m 273 1044 l 439 1266 l 541 1266 l 707 1044 l 538 1023 l 490 1102 l 435 1023 l 273 1044 z "},"ĵ":{"ha":313,"x_min":-192,"x_max":393,"o":"m 300 687 q 311 446 313 568 q 165 -264 316 -180 q 24 -292 132 -290 q -192 -194 -134 -292 l -67 -47 q 22 -47 -33 -79 q 75 195 77 -15 q 58 648 72 404 l 300 687 m -40 752 l 126 975 l 227 975 l 393 752 l 238 732 l 177 824 l 122 732 l -40 752 z "},"Ķ":{"ha":751,"x_min":-7,"x_max":774,"o":"m 519 974 l 652 787 l 460 559 l 774 251 l 530 28 l 301 315 l 285 -5 l -7 96 l 56 920 q 285 963 75 920 l 301 719 l 519 974 z "},"ķ":{"ha":610,"x_min":5,"x_max":618,"o":"m 347 892 q 306 523 314 668 l 560 648 l 618 473 l 420 350 q 611 153 508 275 l 451 3 l 264 197 q 227 -1 243 89 l 5 -1 q 100 978 62 576 l 347 892 z "},"ĸ":{"ha":610,"x_min":5,"x_max":618,"o":"m 347 892 q 306 523 314 668 l 560 648 l 618 473 l 420 350 q 611 153 508 275 l 451 3 l 264 197 q 227 -1 243 89 l 5 -1 q 100 978 62 576 l 347 892 z "},"Ĺ":{"ha":686,"x_min":-4,"x_max":699,"o":"m 326 974 l 275 287 l 699 292 q 688 30 688 85 l -4 -1 l 33 936 l 326 974 m 291 1210 l 336 1215 l 406 1061 l 135 968 l 71 1023 l 291 1210 z "},"ĺ":{"ha":393,"x_min":-7,"x_max":432,"o":"m 330 918 q 222 323 222 468 q 271 230 222 230 q 330 263 306 232 l 432 125 q 206 0 368 -3 q 26 104 61 0 q -1 285 -1 172 q 84 902 -7 581 l 330 918 m 334 1157 l 368 1147 l 425 1014 l 154 921 l 103 955 l 334 1157 z "},"Ļ":{"ha":686,"x_min":-4,"x_max":699,"o":"m 326 974 l 275 287 l 699 292 q 688 30 688 85 l -4 -1 l 33 936 l 326 974 z "},"ļ":{"ha":393,"x_min":-7,"x_max":432,"o":"m 343 986 q 222 323 222 468 q 271 230 222 230 q 330 263 306 232 l 432 125 q 206 0 368 -3 q 26 104 61 0 q -1 285 -1 172 q 98 970 -7 581 l 343 986 z "},"Ľ":{"ha":686,"x_min":-4,"x_max":699,"o":"m 326 974 l 275 287 l 699 292 q 688 30 688 85 l -4 -1 l 33 936 l 326 974 m 581 967 l 615 957 l 699 844 l 557 616 l 479 629 l 581 967 z "},"ľ":{"ha":732,"x_min":-7,"x_max":689,"o":"m 343 986 q 222 323 222 468 q 271 230 222 230 q 330 263 306 232 l 432 125 q 206 0 368 -3 q 26 104 61 0 q -1 285 -1 172 q 98 970 -7 581 l 343 986 m 571 967 l 606 957 l 689 844 l 547 616 l 469 629 l 571 967 z "},"Ŀ":{"ha":686,"x_min":-4,"x_max":699,"o":"m 326 974 l 275 287 l 699 292 q 688 30 688 85 l -4 -1 l 33 936 l 326 974 m 469 486 q 495 549 469 523 q 557 574 521 574 q 620 549 594 574 q 646 486 646 523 q 620 424 646 450 q 557 398 594 398 q 495 424 521 398 q 469 486 469 450 z "},"ŀ":{"ha":570,"x_min":-7,"x_max":608,"o":"m 343 986 q 222 323 222 468 q 271 230 222 230 q 330 263 306 232 l 432 125 q 206 0 368 -3 q 26 104 61 0 q -1 285 -1 172 q 98 970 -7 581 l 343 986 m 432 493 q 458 555 432 530 q 520 581 484 581 q 583 555 557 581 q 608 493 608 530 q 583 431 608 456 q 520 405 557 405 q 458 431 484 405 q 432 493 432 456 z "},"Ł":{"ha":787,"x_min":-1,"x_max":793,"o":"m 421 974 l 399 633 l 533 749 l 566 573 l 380 414 l 370 287 l 793 292 q 783 30 783 85 l 91 -1 l 100 224 l 33 175 l -1 345 l 109 435 l 127 936 l 421 974 z "},"Ń":{"ha":785,"x_min":4,"x_max":800,"o":"m 800 972 q 690 -1 707 43 l 510 -1 l 290 384 l 251 -1 l 7 -1 q 42 935 4 363 l 279 935 l 434 627 l 524 951 l 800 972 m 503 1237 l 548 1242 l 618 1088 l 347 996 l 283 1050 l 503 1237 z "},"Ņ":{"ha":785,"x_min":4,"x_max":800,"o":"m 800 972 q 690 -1 707 43 l 510 -1 l 290 384 l 251 -1 l 7 -1 q 42 935 4 363 l 279 935 l 434 627 l 524 951 l 800 972 z "},"ņ":{"ha":636,"x_min":-7,"x_max":640,"o":"m 214 718 l 220 666 q 406 698 326 697 q 598 604 530 691 q 638 424 640 531 l 623 -1 l 407 -1 l 411 353 q 350 456 413 450 q 251 393 275 463 q 239 -1 237 321 l 11 -1 l 6 439 q -7 672 6 539 l 214 718 z "},"Ň":{"ha":785,"x_min":4,"x_max":800,"o":"m 800 972 q 690 -1 707 43 l 510 -1 l 290 384 l 251 -1 l 7 -1 q 42 935 4 363 l 279 935 l 434 627 l 524 951 l 800 972 m 186 1225 l 362 1253 l 404 1176 l 444 1253 l 620 1225 l 454 1010 l 353 1010 l 186 1225 z "},"ň":{"ha":636,"x_min":-7,"x_max":640,"o":"m 214 718 l 220 666 q 406 698 326 697 q 598 604 530 691 q 638 424 640 531 l 623 -1 l 407 -1 l 411 353 q 350 456 413 450 q 251 393 275 463 q 239 -1 237 321 l 11 -1 l 6 439 q -7 672 6 539 l 214 718 m 99 947 l 275 975 l 316 898 l 357 975 l 532 947 l 366 732 l 265 732 l 99 947 z "},"ŉ":{"ha":769,"x_min":50,"x_max":774,"o":"m 347 718 l 353 666 q 539 698 459 697 q 732 604 663 691 q 772 424 774 531 l 756 -1 l 541 -1 l 545 353 q 484 456 547 450 q 385 393 408 463 q 372 -1 371 321 l 144 -1 l 140 439 q 127 672 140 539 l 347 718 z "},"Ŋ":{"ha":804,"x_min":-7,"x_max":827,"o":"m 271 970 l 271 970 l 279 905 q 513 945 412 944 q 757 826 670 937 q 814 323 827 728 q 536 -244 798 -180 l 398 -58 q 558 517 587 -12 q 450 654 545 652 q 326 574 355 661 q 303 62 308 482 l 16 62 l 9 618 q -7 912 9 745 l 271 970 z "},"ŋ":{"ha":555,"x_min":-7,"x_max":640,"o":"m 214 718 l 214 718 l 220 666 q 406 698 326 697 q 598 604 530 691 q 638 424 640 531 l 626 -14 q 423 -244 615 -183 l 314 -96 q 408 -4 392 -59 l 411 353 q 350 456 413 450 q 251 393 275 463 q 239 -1 237 321 l 11 -1 l 6 439 q -7 672 6 539 l 214 718 z "},"Ō":{"ha":825,"x_min":-13,"x_max":843,"o":"m 481 972 q 815 760 720 967 q 838 576 843 676 q 671 134 838 341 q 327 1 536 1 q 9 269 83 21 q -12 450 -13 349 q 326 946 16 817 q 481 972 408 972 m 258 427 q 378 294 273 294 q 574 433 475 294 q 602 582 606 493 q 488 714 602 714 q 275 541 369 714 q 258 427 254 483 m 223 1055 l 223 1187 l 603 1187 l 603 1055 l 223 1055 z "},"ō":{"ha":641,"x_min":-12,"x_max":646,"o":"m 373 701 q 633 532 570 701 q 644 431 646 492 q 480 69 644 235 q 249 -4 399 -8 q 1 273 24 2 q 178 640 -12 517 q 373 701 281 701 m 224 302 q 295 231 235 231 q 431 368 425 253 q 366 465 436 462 q 224 302 227 441 m 132 777 l 132 909 l 512 909 l 512 777 l 132 777 z "},"Ŏ":{"ha":825,"x_min":-13,"x_max":843,"o":"m 481 972 q 815 760 720 967 q 838 576 843 676 q 671 134 838 341 q 327 1 536 1 q 9 269 83 21 q -12 450 -13 349 q 326 946 16 817 q 481 972 408 972 m 258 427 q 378 294 273 294 q 574 433 475 294 q 602 582 606 493 q 488 714 602 714 q 275 541 369 714 q 258 427 254 483 m 199 1193 l 331 1206 q 379 1132 344 1152 q 449 1138 419 1118 q 496 1213 483 1158 l 627 1193 q 559 1059 612 1109 q 414 1010 506 1010 q 269 1060 323 1010 q 199 1193 215 1109 z "},"ŏ":{"ha":641,"x_min":-12,"x_max":646,"o":"m 373 701 q 633 532 570 701 q 644 431 646 492 q 480 69 644 235 q 249 -4 399 -8 q 1 273 24 2 q 178 640 -12 517 q 373 701 281 701 m 224 302 q 295 231 235 231 q 431 368 425 253 q 366 465 436 462 q 224 302 227 441 m 108 915 l 239 928 q 288 854 252 874 q 357 860 328 840 q 404 935 391 880 l 536 915 q 468 781 521 831 q 323 732 414 732 q 178 782 232 732 q 108 915 123 831 z "},"Ő":{"ha":825,"x_min":-13,"x_max":843,"o":"m 481 972 q 815 760 720 967 q 838 576 843 676 q 671 134 838 341 q 327 1 536 1 q 9 269 83 21 q -12 450 -13 349 q 326 946 16 817 q 481 972 408 972 m 258 427 q 378 294 273 294 q 574 433 475 294 q 602 582 606 493 q 488 714 602 714 q 275 541 369 714 q 258 427 254 483 m 266 1010 l 360 1248 l 496 1206 l 359 1010 l 266 1010 m 486 1010 l 581 1248 l 717 1206 l 580 1010 l 486 1010 z "},"ő":{"ha":641,"x_min":-12,"x_max":646,"o":"m 373 701 q 633 532 570 701 q 644 431 646 492 q 480 69 644 235 q 249 -4 399 -8 q 1 273 24 2 q 178 640 -12 517 q 373 701 281 701 m 224 302 q 295 231 235 231 q 431 368 425 253 q 366 465 436 462 q 224 302 227 441 m 174 732 l 269 970 l 405 928 l 268 732 l 174 732 m 395 732 l 489 970 l 625 928 l 488 732 l 395 732 z "},"Œ":{"ha":1333,"x_min":-13,"x_max":1348,"o":"m 481 972 q 815 760 720 967 q 838 576 843 676 q 671 134 838 341 q 327 1 536 1 q 9 269 83 21 q -12 450 -13 349 q 326 946 16 817 q 481 972 408 972 m 258 427 q 378 294 273 294 q 574 433 475 294 q 602 582 606 493 q 488 714 602 714 q 275 541 369 714 q 258 427 254 483 m 1342 972 l 1310 696 l 900 659 l 913 570 l 1198 578 l 1176 392 l 931 372 l 941 267 l 1348 293 l 1307 24 q 658 -1 1305 11 l 568 915 l 1342 972 z "},"œ":{"ha":1162,"x_min":-12,"x_max":1168,"o":"m 373 701 q 633 532 570 701 q 644 431 646 492 q 480 69 644 235 q 249 -4 399 -8 q 1 273 24 2 q 178 640 -12 517 q 373 701 281 701 m 224 302 q 295 231 235 231 q 431 368 425 253 q 366 465 436 462 q 224 302 227 441 m 1051 639 q 1162 405 1159 551 l 772 228 q 889 196 798 198 q 1116 311 981 194 l 1168 137 q 736 -8 970 -61 q 513 296 545 68 q 554 537 509 441 q 823 691 657 693 q 1051 639 958 700 m 717 393 l 945 494 q 781 528 888 562 q 717 393 707 488 z "},"Ŕ":{"ha":830,"x_min":-21,"x_max":851,"o":"m 464 966 q 776 775 663 954 q 793 667 796 727 q 628 432 787 543 q 851 155 656 407 l 623 3 l 401 320 l 415 42 l 119 1 l -21 913 q 393 970 62 942 l 464 966 m 365 695 l 376 592 q 538 658 535 605 q 495 699 540 691 q 365 695 443 705 m 518 1237 l 563 1242 l 633 1088 l 362 996 l 298 1050 l 518 1237 z "},"ŕ":{"ha":536,"x_min":-1,"x_max":558,"o":"m 266 705 l 259 527 q 460 654 383 648 l 558 470 q 265 257 348 415 l 273 -1 l -1 -1 l 24 654 l 266 705 m 378 959 l 423 964 l 493 810 l 222 718 l 158 772 l 378 959 z "},"Ŗ":{"ha":830,"x_min":-21,"x_max":851,"o":"m 464 966 q 776 775 663 954 q 793 667 796 727 q 628 432 787 543 q 851 155 656 407 l 623 3 l 401 320 l 415 42 l 119 1 l -21 913 q 393 970 62 942 l 464 966 m 365 695 l 376 592 q 538 658 535 605 q 495 699 540 691 q 365 695 443 705 z "},"ŗ":{"ha":536,"x_min":-1,"x_max":558,"o":"m 266 705 l 259 527 q 460 654 383 648 l 558 470 q 265 257 348 415 l 273 -1 l -1 -1 l 24 654 l 266 705 z "},"Ť":{"ha":726,"x_min":-9,"x_max":743,"o":"m 694 976 q 743 688 724 814 q 509 693 614 693 q 509 1 520 293 l 258 1 q 241 589 236 176 l 240 691 q -9 681 121 691 q 35 970 9 860 q 694 976 312 976 m 151 1225 l 326 1253 l 368 1176 l 408 1253 l 584 1225 l 418 1010 l 317 1010 l 151 1225 z "},"ť":{"ha":796,"x_min":-33,"x_max":753,"o":"m 391 981 l 359 739 l 439 732 l 457 556 l 317 551 q 326 223 237 247 q 380 239 357 220 l 484 87 q 260 -6 391 -6 q 75 114 111 -6 q 81 553 36 280 l -33 557 l -2 736 l 113 744 l 139 955 l 391 981 m 635 967 l 669 957 l 753 844 l 611 616 l 533 629 l 635 967 z "},"Ŧ":{"ha":734,"x_min":-9,"x_max":743,"o":"m 694 976 q 743 688 724 814 q 509 693 614 693 q 513 446 512 564 l 602 444 q 602 235 603 351 l 513 230 q 509 1 512 94 l 258 1 q 244 230 248 77 l 142 235 q 138 437 139 342 l 240 444 l 241 589 l 240 691 q -9 681 121 691 q 35 970 9 860 q 694 976 312 976 z "},"ŧ":{"ha":457,"x_min":-33,"x_max":484,"o":"m 391 981 l 359 739 l 439 732 l 457 556 l 317 551 q 293 448 302 494 l 370 440 l 370 288 l 282 277 q 326 223 285 231 q 380 239 357 220 l 484 87 q 260 -6 391 -6 q 75 114 111 -6 q 60 250 62 172 l -5 245 q -7 431 -13 326 l 64 439 q 81 553 70 486 l -33 557 l -2 736 l 113 744 l 139 955 l 391 981 z "},"Ґ":{"ha":555,"x_min":0,"x_max":637,"o":"m 623 1155 q 618 745 637 852 q 255 692 313 719 q 302 3 300 253 q 64 -5 191 -22 l 0 871 q 417 945 146 937 q 407 1158 426 945 q 623 1155 503 1160 z "},"̦":{"ha":0,"x_min":-376,"x_max":-184,"o":"m -338 -80 l -185 -83 l -199 -164 q -358 -290 -259 -258 l -376 -263 q -347 -162 -349 -203 l -338 -80 z "},"̕":{"ha":339,"x_min":76,"x_max":296,"o":"m 178 967 l 212 957 l 296 844 l 154 616 l 76 629 l 178 967 z "},"̔":{"ha":339,"x_min":76,"x_max":296,"o":"m 194 967 l 296 629 l 218 616 l 76 844 l 159 957 l 194 967 z "},"̓":{"ha":339,"x_min":76,"x_max":296,"o":"m 178 967 l 212 957 l 296 844 l 154 616 l 76 629 l 178 967 z "},"̒":{"ha":339,"x_min":71,"x_max":267,"o":"m 201 615 l 165 621 l 71 725 l 187 967 l 267 962 l 201 615 z "},"̇":{"ha":0,"x_min":-414,"x_max":-238,"o":"m -403 876 l -356 925 q -342 934 -350 930 q -324 938 -334 938 q -308 934 -315 938 q -294 924 -300 930 l -246 873 q -240 865 -241 870 q -238 855 -238 861 q -240 845 -239 849 q -247 835 -241 840 l -295 783 q -310 771 -304 774 q -324 768 -316 768 q -343 771 -335 768 q -357 781 -352 774 l -407 839 q -412 847 -411 843 q -414 857 -414 851 q -411 866 -414 861 q -403 876 -409 871 z "},"Ď":{"ha":844,"x_min":-9,"x_max":864,"o":"m 527 953 q 857 602 826 854 q 842 443 864 525 q 500 49 792 217 q 130 -21 309 -26 l -9 910 q 527 953 246 1008 m 354 713 l 401 285 q 592 517 555 351 q 517 690 610 627 q 354 713 430 732 m 208 1225 l 384 1253 l 425 1176 l 466 1253 l 642 1225 l 475 1010 l 374 1010 l 208 1225 z "},"ď":{"ha":1031,"x_min":-3,"x_max":988,"o":"m 440 985 q 692 918 684 933 q 681 18 644 349 l 446 -22 l 440 34 q 289 -5 360 -5 l 256 -5 q 21 163 77 -5 q 4 288 9 210 l 0 351 q 81 595 -3 525 q 274 659 165 665 q 408 606 347 656 q 429 979 406 692 l 440 985 m 233 361 l 233 328 q 340 197 239 197 l 413 201 l 406 427 q 294 442 366 450 q 233 361 231 426 m 870 967 l 905 957 l 988 844 l 846 616 l 768 629 l 870 967 z "},"Ѐ":{"ha":765,"x_min":-1,"x_max":779,"o":"m 773 972 l 741 696 l 331 659 l 344 570 l 629 578 l 607 392 l 362 372 l 372 267 l 779 293 l 738 24 q 89 -1 736 11 l -1 915 l 773 972 m 496 1058 l 448 989 l 192 1125 l 207 1164 l 349 1251 l 496 1058 z "},"ѐ":{"ha":648,"x_min":-5,"x_max":654,"o":"m 537 639 q 648 405 645 551 l 258 228 q 375 196 284 198 q 602 311 467 194 l 654 137 q 222 -8 456 -61 q -1 296 31 68 q 40 537 -5 441 q 309 691 143 693 q 537 639 444 700 m 203 393 l 431 494 q 267 528 374 562 q 203 393 193 488 m 437 780 l 389 711 l 133 847 l 148 886 l 290 973 l 437 780 z "},"ѓ":{"ha":471,"x_min":0,"x_max":479,"o":"m 479 692 q 456 531 470 625 q 191 492 234 511 q 227 -1 224 186 q 47 -7 143 -20 l 0 639 q 479 692 151 706 m 340 959 l 385 964 l 454 810 l 184 718 l 119 772 l 340 959 z "},"ѕ":{"ha":530,"x_min":-27,"x_max":544,"o":"m 258 705 q 534 548 398 708 l 414 427 q 236 519 295 519 q 196 486 197 512 q 379 384 205 454 q 532 146 544 285 q 357 -3 503 14 q 219 -7 304 -14 q -27 141 78 14 l 81 279 q 242 193 195 193 q 282 216 273 193 q 138 301 282 252 q -4 507 -4 372 q 258 705 2 693 z "},"ќ":{"ha":555,"x_min":-7,"x_max":570,"o":"m 450 709 l 534 563 q 418 496 468 551 l 338 412 l 516 237 l 570 184 l 389 19 l 330 94 l 220 231 l 208 -5 l -7 69 l 39 678 q 208 710 53 678 l 220 530 l 295 618 q 450 709 345 692 m 381 959 l 426 964 l 496 810 l 225 718 l 161 772 l 381 959 z "},"ѝ":{"ha":577,"x_min":0,"x_max":580,"o":"m 22 697 l 205 682 l 226 435 l 420 671 l 580 671 q 532 -1 559 260 l 367 -1 l 353 275 l 142 -1 l 13 -1 q 22 697 0 282 m 404 780 l 357 711 l 100 847 l 115 886 l 257 973 l 404 780 z "},"љ":{"ha":1033,"x_min":-8,"x_max":1036,"o":"m 134 697 q 640 681 412 706 q 651 426 642 492 q 854 432 767 444 q 1030 245 1020 374 q 994 94 1036 161 q 484 -6 886 -31 l 438 555 q 304 555 375 555 l 293 113 q 111 1 281 12 q -8 52 28 5 q 49 200 15 103 q 115 207 103 169 l 134 697 m 670 176 q 811 235 808 188 q 787 268 817 261 q 666 259 729 281 l 670 176 z "},"ʼ":{"ha":358,"x_min":50,"x_max":288,"o":"m 145 1061 q 132 785 288 954 l 80 811 q 50 986 121 900 l 145 1061 z "},"ʻ":{"ha":359,"x_min":47,"x_max":308,"o":"m 222 777 q 231 1056 47 893 l 278 1034 q 308 859 237 945 l 222 777 z "},"ʽ":{"ha":358,"x_min":-36,"x_max":202,"o":"m 107 1061 q 120 785 -36 954 l 172 811 q 202 986 131 900 l 107 1061 z "},"ſ":{"ha":493,"x_min":-6,"x_max":586,"o":"m 344 977 q 586 948 493 979 l 507 762 q 388 779 448 779 q 271 645 271 779 l 264 437 q 260 39 256 237 l -6 -17 q 62 756 16 484 q 344 977 134 977 z "},"Ͱ":{"ha":637,"x_min":-15,"x_max":642,"o":"m 353 5 l 353 5 l 353 5 q 77 -1 235 2 l -15 915 l 261 937 l 297 570 l 642 578 l 621 392 l 317 372 l 353 5 z "},"ͱ":{"ha":712,"x_min":-14,"x_max":719,"o":"m 494 3 l 494 3 l 494 3 l 494 3 q 260 -1 404 1 l 216 408 q 145 509 207 500 l -14 511 l 18 717 l 186 713 q 440 550 425 721 l 451 442 l 719 449 l 703 263 l 467 248 l 494 3 z "},"Ͳ":{"ha":867,"x_min":-7,"x_max":873,"o":"m 836 976 l 836 976 l 836 976 l 873 581 l 685 568 l 677 709 l 570 707 q 570 1 581 293 l 319 1 q 302 569 297 176 l 306 711 l 188 709 l 184 586 l -7 600 l 14 970 q 836 976 373 976 z "},"ͳ":{"ha":867,"x_min":-13,"x_max":867,"o":"m 829 976 l 829 976 l 829 976 l 829 976 l 867 581 l 678 568 l 670 709 l 563 707 q 563 1 574 293 l 326 1 q 309 569 304 176 l 313 711 l 249 712 q 204 689 207 715 q 241 618 201 663 l 147 486 q 25 607 55 559 q 10 796 -13 684 q 186 977 41 962 q 829 976 380 976 z "},"ʹ":{"ha":339,"x_min":60,"x_max":296,"o":"m 178 967 l 178 967 l 212 957 l 296 844 l 138 679 l 60 692 l 178 967 z "},"͵":{"ha":396,"x_min":9,"x_max":380,"o":"m 9 -256 l 9 -256 l 9 -256 l 278 3 l 380 -39 l 211 -273 l 32 -288 l 9 -256 z "},"Ͷ":{"ha":801,"x_min":-3,"x_max":806,"o":"m 20 972 l 276 951 l 298 573 l 576 935 l 806 935 q 753 -1 783 363 l 515 -1 l 503 411 l 209 -1 l 15 -1 q 20 972 -3 394 z "},"ͷ":{"ha":747,"x_min":0,"x_max":766,"o":"m 22 697 l 266 682 l 287 448 l 481 671 l 695 671 q 682 83 680 385 q 766 -57 694 -7 l 631 -237 q 436 8 471 -156 l 414 254 l 203 -1 l 13 -1 q 22 697 0 282 z "},"ͺ":{"ha":208,"x_min":42,"x_max":178,"o":"m 42 -286 l 62 -37 l 154 -23 l 178 -199 l 90 -283 l 42 -286 z "},"ͻ":{"ha":569,"x_min":1,"x_max":602,"o":"m 293 697 q 1 588 112 705 l 139 445 q 254 490 192 491 q 368 370 353 488 q 281 239 375 257 q 149 296 221 228 l 29 181 q 361 -2 149 -4 q 568 136 504 -2 q 602 313 602 212 q 488 634 600 545 q 293 697 420 697 z "},"ͼ":{"ha":569,"x_min":1,"x_max":602,"o":"m 311 697 q 602 588 492 705 l 465 445 q 350 490 412 491 q 236 370 251 488 q 322 239 229 257 q 454 296 382 228 l 574 181 q 242 -2 455 -4 q 36 136 100 -2 q 1 313 1 212 q 116 634 4 545 q 311 697 183 697 m 259 371 l 306 420 q 320 429 312 425 q 338 433 328 433 q 354 429 347 433 q 368 419 362 425 l 416 368 q 422 360 420 365 q 424 350 424 355 q 422 339 423 344 q 415 330 420 335 l 367 278 q 352 266 357 269 q 338 262 346 262 q 318 266 327 262 q 305 275 310 269 l 255 334 q 250 342 251 338 q 248 351 248 346 q 251 360 248 355 q 259 371 253 366 z "},"ͽ":{"ha":569,"x_min":1,"x_max":602,"o":"m 293 697 q 1 588 112 705 l 139 445 q 254 490 192 491 q 368 370 353 488 q 281 239 375 257 q 149 296 221 228 l 29 181 q 361 -2 149 -4 q 568 136 504 -2 q 602 313 602 212 q 488 634 600 545 q 293 697 420 697 m 345 371 l 298 420 q 283 429 292 425 q 266 433 275 433 q 249 429 257 433 q 235 419 241 425 l 188 368 q 181 360 183 365 q 180 350 180 355 q 182 339 180 344 q 189 330 183 335 l 237 278 q 252 266 246 269 q 266 262 258 262 q 285 266 277 262 q 298 275 294 269 l 349 334 q 354 342 353 338 q 355 351 355 346 q 353 360 355 355 q 345 371 351 366 z "},"Ϳ":{"ha":653,"x_min":-32,"x_max":656,"o":"m 656 994 q 602 309 640 422 q 298 -3 515 20 q 77 43 154 -29 q 18 463 -32 170 l 237 397 q 312 304 242 279 q 382 912 396 335 l 656 994 z "},"΄":{"ha":208,"x_min":22,"x_max":201,"o":"m 69 981 l 117 970 l 201 858 l 113 724 l 22 738 l 69 981 z "},"΅":{"ha":610,"x_min":14,"x_max":589,"o":"m 24 829 l 71 878 q 85 887 77 883 q 103 890 94 890 q 120 887 112 890 q 134 877 127 883 l 181 826 q 188 818 186 823 q 189 808 189 813 q 187 797 189 802 q 180 787 186 793 l 132 736 q 117 724 123 727 q 103 720 111 720 q 84 724 92 720 q 71 733 75 727 l 20 791 q 15 800 16 795 q 14 809 14 804 q 16 818 14 813 q 24 829 18 823 m 425 829 l 471 878 q 486 887 477 883 q 503 890 494 890 q 520 887 512 890 q 534 877 528 883 l 581 826 q 588 818 586 823 q 589 808 589 813 q 587 797 589 802 q 581 787 586 793 l 532 736 q 517 724 523 727 q 503 720 511 720 q 484 724 492 720 q 471 733 475 727 l 420 791 q 415 800 416 795 q 414 809 414 804 q 416 818 414 813 q 425 829 418 823 m 259 981 l 307 970 l 391 858 l 290 677 l 198 690 l 259 981 z "},"Ά":{"ha":795,"x_min":-34,"x_max":822,"o":"m 69 981 l 117 970 l 201 858 l 113 724 l 22 738 l 69 981 z "},"·":{"ha":275,"x_min":28,"x_max":243,"o":"m 39 690 l 39 690 l 39 690 l 243 685 l 224 528 l 28 540 l 39 690 z "},"Έ":{"ha":912,"x_min":22,"x_max":932,"o":"m 69 981 l 117 970 l 201 858 l 113 724 l 22 738 l 69 981 m 926 972 l 881 764 l 484 726 l 505 570 l 782 578 l 760 392 l 524 372 l 539 212 l 932 239 l 891 24 q 284 -1 889 11 l 193 915 l 926 972 z "},"Ή":{"ha":1021,"x_min":22,"x_max":1038,"o":"m 69 981 l 117 970 l 201 858 l 113 724 l 22 738 l 69 981 z "},"Ί":{"ha":528,"x_min":22,"x_max":517,"o":"m 69 981 l 117 970 l 201 858 l 113 724 l 22 738 l 69 981 m 505 972 q 514 480 510 704 q 515 -5 517 257 l 233 -5 q 226 484 222 257 q 235 956 229 710 l 505 972 z "},"Ό":{"ha":979,"x_min":22,"x_max":969,"o":"m 69 981 l 117 970 l 201 858 l 113 724 l 22 738 l 69 981 z "},"Ύ":{"ha":1011,"x_min":22,"x_max":1026,"o":"m 69 981 l 117 970 l 201 858 l 113 724 l 22 738 l 69 981 m 410 972 l 410 972 l 618 690 l 822 962 l 1026 812 l 755 440 l 748 8 l 494 -11 l 484 468 l 206 836 l 410 972 z "},"Ώ":{"ha":1195,"x_min":22,"x_max":1206,"o":"m 69 981 l 117 970 l 201 858 l 113 724 l 22 738 l 69 981 m 583 5 l 187 -15 l 160 207 l 279 227 q 182 661 134 415 q 505 946 269 889 q 715 972 587 972 q 1177 576 1146 962 q 1060 218 1187 383 l 1206 218 l 1186 -3 l 750 5 l 771 220 q 917 492 920 300 q 721 714 923 694 q 427 527 485 729 q 571 224 393 354 l 583 5 z "},"ΐ":{"ha":294,"x_min":-138,"x_max":437,"o":"m 271 701 q 279 345 275 433 q 281 -5 283 257 l 25 -5 q 18 348 15 257 q 27 684 22 439 l 271 701 m -127 829 l -81 878 q -66 887 -75 883 q -49 890 -58 890 q -32 887 -40 890 q -18 877 -24 883 l 29 826 q 36 818 34 823 q 37 808 37 813 q 35 797 37 802 q 28 787 34 793 l -20 736 q -35 724 -29 727 q -49 720 -41 720 q -68 724 -60 720 q -81 733 -77 727 l -132 791 q -137 800 -136 795 q -138 809 -138 804 q -136 818 -138 813 q -127 829 -134 823 m 273 829 l 319 878 q 334 887 326 883 q 351 890 342 890 q 368 887 360 890 q 382 877 376 883 l 429 826 q 436 818 434 823 q 437 808 437 813 q 435 797 437 802 q 429 787 434 793 l 380 736 q 365 724 371 727 q 351 720 359 720 q 332 724 340 720 q 319 733 323 727 l 269 791 q 263 800 264 795 q 262 809 262 804 q 264 818 262 813 q 273 829 267 823 m 107 981 l 155 970 l 239 858 l 138 677 l 46 690 l 107 981 z "},"Α":{"ha":795,"x_min":-34,"x_max":822,"o":"m 262 972 l 538 972 l 822 163 l 541 -1 l 502 133 l 283 133 l 231 4 l -34 136 l 262 972 m 333 312 l 486 317 l 434 490 l 392 490 l 333 312 z "},"Β":{"ha":759,"x_min":-5,"x_max":771,"o":"m 442 955 q 630 719 643 894 q 484 568 611 640 l 540 555 q 764 317 751 481 q 718 122 771 208 q 67 2 581 -36 l -5 896 q 442 955 191 998 m 269 734 l 271 669 q 408 730 397 686 q 380 748 405 743 q 269 734 333 754 m 311 227 q 490 303 486 243 q 459 346 498 336 q 305 334 386 363 l 311 227 z "},"Γ":{"ha":662,"x_min":0,"x_max":683,"o":"m 683 963 q 646 752 665 869 q 264 697 324 725 q 313 4 311 262 q 66 -5 198 -23 l 0 890 q 683 963 210 983 z "},"Δ":{"ha":818,"x_min":-19,"x_max":878,"o":"m 334 972 l 498 972 l 878 85 l 841 18 l 35 -7 l -19 37 l 334 972 m 306 264 l 513 277 l 421 547 l 306 264 z "},"Ε":{"ha":705,"x_min":-15,"x_max":725,"o":"m 719 972 l 673 764 l 277 726 l 297 570 l 574 578 l 553 392 l 317 372 l 332 212 l 725 239 l 684 24 q 77 -1 682 11 l -15 915 l 719 972 z "},"Ζ":{"ha":779,"x_min":-9,"x_max":791,"o":"m 68 970 l 715 970 l 720 834 l 366 267 q 791 319 507 278 l 749 12 l 11 -5 l 5 142 l 366 722 l -9 722 l 68 970 z "},"Η":{"ha":826,"x_min":-1,"x_max":830,"o":"m 515 949 l 769 891 l 830 118 l 553 9 l 543 278 l 288 278 l 271 4 l -1 103 l 58 903 l 326 967 l 310 557 l 524 557 l 515 949 z "},"Θ":{"ha":555,"x_min":-6,"x_max":863,"o":"m 502 972 l 502 972 l 502 972 l 502 972 q 836 760 741 967 q 859 576 863 676 q 692 134 859 341 q 334 1 557 1 q 16 269 90 21 q -5 450 -6 349 q 333 946 22 817 q 502 972 415 972 m 244 419 l 244 419 l 244 419 l 244 419 q 374 277 260 277 q 597 426 491 277 q 627 586 631 490 q 505 728 627 728 q 262 542 363 728 q 244 419 240 479 m 289 573 l 289 573 l 589 593 l 569 410 l 289 403 l 289 573 z "},"Ι":{"ha":320,"x_min":15,"x_max":310,"o":"m 298 972 q 306 480 302 704 q 308 -5 310 257 l 25 -5 q 18 484 15 257 q 27 956 22 710 l 298 972 z "},"Κ":{"ha":751,"x_min":-7,"x_max":774,"o":"m 519 974 l 652 787 l 460 559 l 774 251 l 530 28 l 301 315 l 285 -5 l -7 96 l 56 920 q 285 963 75 920 l 301 719 l 519 974 z "},"Λ":{"ha":827,"x_min":-20,"x_max":856,"o":"m 235 5 l -20 129 l 303 972 l 532 972 l 856 142 l 600 -14 l 448 524 l 399 524 l 235 5 z "},"Μ":{"ha":1022,"x_min":-8,"x_max":1044,"o":"m 201 972 l 380 972 l 498 753 l 597 972 l 786 972 l 1044 222 l 737 22 l 593 430 l 504 302 l 409 419 l 303 1 l -8 168 l 201 972 z "},"Ν":{"ha":785,"x_min":4,"x_max":800,"o":"m 800 972 q 690 -1 707 43 l 510 -1 l 290 384 l 251 -1 l 7 -1 q 42 935 4 363 l 279 935 l 434 627 l 524 951 l 800 972 z "},"Ξ":{"ha":705,"x_min":-15,"x_max":746,"o":"m 56 200 l 725 239 l 684 24 q 77 -1 682 11 l 56 200 m 5 716 l -15 915 l 746 972 l 701 764 l 5 716 m 68 360 l 48 555 l 683 578 l 661 392 l 68 360 z "},"Ο":{"ha":825,"x_min":-13,"x_max":843,"o":"m 481 972 q 815 760 720 967 q 838 576 843 676 q 671 134 838 341 q 327 1 536 1 q 9 269 83 21 q -12 450 -13 349 q 326 946 16 817 q 481 972 408 972 m 258 427 q 378 294 273 294 q 574 433 475 294 q 602 582 606 493 q 488 714 602 714 q 275 541 369 714 q 258 427 254 483 z "},"Π":{"ha":895,"x_min":-1,"x_max":901,"o":"m 32 958 l 854 972 l 901 53 l 629 9 l 614 692 l 280 704 l 256 1 l -1 66 l 32 958 z "},"Ρ":{"ha":774,"x_min":-15,"x_max":799,"o":"m 484 964 q 782 750 696 934 q 791 645 799 705 q 543 398 766 473 q 378 375 448 374 l 395 28 l 90 -5 l -15 931 q 484 964 350 983 m 353 695 l 361 589 q 532 647 526 602 q 483 707 538 692 q 353 695 420 715 z "},"Σ":{"ha":705,"x_min":-24,"x_max":725,"o":"m 719 972 l 673 764 l 277 726 l 568 570 l 593 368 l 332 212 l 725 239 l 684 24 q 77 -1 682 11 l 19 235 l 308 472 l -24 675 l -1 918 l 719 972 z "},"Τ":{"ha":726,"x_min":-9,"x_max":743,"o":"m 694 976 q 743 688 724 814 q 509 693 614 693 q 509 1 520 293 l 258 1 q 241 589 236 176 l 240 691 q -9 681 121 691 q 35 970 9 860 q 694 976 312 976 z "},"Υ":{"ha":791,"x_min":-13,"x_max":807,"o":"m 191 972 l 191 972 l 399 690 l 603 962 l 807 812 l 536 440 l 529 8 l 275 -11 l 265 468 l -13 836 l 191 972 z "},"Φ":{"ha":960,"x_min":-50,"x_max":1093,"o":"m 636 906 q 1067 554 1016 939 q 895 174 1093 280 q 676 114 825 130 l 673 7 q 431 -17 576 -16 l 425 85 q 250 92 342 77 q 30 318 77 147 q 125 780 -50 623 q 384 878 262 876 l 385 988 q 631 1004 474 997 l 636 906 m 264 524 q 406 341 242 352 l 389 631 q 264 524 302 626 m 671 357 q 823 494 817 377 q 668 633 813 632 l 671 357 z "},"Χ":{"ha":974,"x_min":-22,"x_max":998,"o":"m 859 972 l 998 747 l 773 506 l 950 264 l 692 23 l 494 280 q 253 1 345 93 q -22 163 42 130 q 333 527 172 364 l 108 817 l 387 967 l 574 726 l 859 972 z "},"Ψ":{"ha":1073,"x_min":-40,"x_max":1122,"o":"m 239 929 l 239 929 l 239 929 q 399 511 245 517 l 397 992 l 658 966 l 654 498 q 819 915 821 534 l 1065 950 q 659 271 1122 294 l 671 8 l 404 -11 l 394 244 q 5 970 -40 246 l 239 929 z "},"Ω":{"ha":1040,"x_min":-25,"x_max":1048,"o":"m 425 5 l 28 -15 l 1 207 l 120 227 q 23 661 -25 415 q 347 946 111 889 q 556 972 429 972 q 1019 576 987 962 q 901 218 1029 383 l 1048 218 l 1027 -3 l 591 5 l 612 220 q 758 492 762 300 q 562 714 764 694 q 269 527 326 729 q 412 224 235 354 l 425 5 z "},"Ϊ":{"ha":320,"x_min":-69,"x_max":395,"o":"m 298 972 q 306 480 302 704 q 308 -5 310 257 l 25 -5 q 18 484 15 257 q 27 956 22 710 l 298 972 m -58 1205 l 133 1214 l 114 1057 l -69 1069 l -58 1205 m 204 1204 l 395 1213 l 376 1055 l 193 1067 l 204 1204 z "},"Ϋ":{"ha":791,"x_min":-13,"x_max":807,"o":"m 191 972 l 191 972 l 399 690 l 603 962 l 807 812 l 536 440 l 529 8 l 275 -11 l 265 468 l -13 836 l 191 972 m 176 1205 l 367 1214 l 348 1057 l 165 1069 l 176 1205 m 438 1204 l 629 1213 l 610 1055 l 427 1067 l 438 1204 z "},"ά":{"ha":823,"x_min":-12,"x_max":889,"o":"m 373 701 q 602 587 553 701 l 638 663 l 889 592 l 676 295 l 785 0 l 559 -7 l 515 86 q 249 -4 427 -13 q 1 273 24 2 q 178 640 -12 517 q 373 701 281 701 m 212 299 q 290 221 225 221 q 440 372 433 245 q 368 477 446 475 q 212 299 215 452 m 432 981 l 480 970 l 564 858 l 476 724 l 385 738 l 432 981 z "},"έ":{"ha":517,"x_min":-5,"x_max":513,"o":"m 262 708 l 262 708 l 262 708 q 503 624 391 713 l 435 453 q 302 492 365 496 q 240 463 240 484 q 273 420 240 437 l 326 414 l 329 249 l 278 250 q 214 212 214 243 q 277 180 214 187 q 446 252 346 176 l 513 47 q 262 -43 394 -43 q -5 168 -3 -43 q 98 357 -3 287 q 20 488 20 417 q 46 622 14 556 q 262 708 109 708 m 242 981 l 290 970 l 374 858 l 286 724 l 195 738 l 242 981 z "},"ή":{"ha":758,"x_min":-3,"x_max":753,"o":"m 480 -298 l 480 -298 l 480 -298 l 487 290 q 359 383 479 388 q 286 252 283 371 l 274 -6 l 3 27 q -3 738 30 400 l 258 788 l 285 616 q 655 614 509 736 q 753 416 733 548 l 752 -243 l 480 -298 m 372 981 l 420 970 l 503 858 l 416 724 l 324 738 l 372 981 z "},"ί":{"ha":294,"x_min":15,"x_max":283,"o":"m 271 701 q 279 345 275 433 q 281 -5 283 257 l 25 -5 q 18 348 15 257 q 27 684 22 439 l 271 701 m 137 981 l 185 970 l 269 858 l 181 724 l 90 738 l 137 981 z "},"ΰ":{"ha":573,"x_min":-4,"x_max":594,"o":"m 235 705 l 216 431 q 286 260 214 254 q 344 511 353 248 l 334 694 l 564 642 q 528 128 594 208 q 264 -3 441 4 q 64 94 148 -3 q 1 340 1 198 q 12 671 -4 464 l 235 705 m 9 829 l 56 878 q 71 887 62 883 q 88 890 79 890 q 105 887 97 890 q 119 877 113 883 l 166 826 q 173 818 171 823 q 174 808 174 813 q 172 797 174 802 q 165 787 171 793 l 117 736 q 102 724 108 727 q 88 720 96 720 q 69 724 77 720 q 56 733 60 727 l 5 791 q 0 800 1 795 q -1 809 -1 804 q 1 818 -1 813 q 9 829 3 823 m 410 829 l 456 878 q 471 887 463 883 q 488 890 479 890 q 505 887 497 890 q 519 877 513 883 l 566 826 q 573 818 571 823 q 574 808 574 813 q 572 797 574 802 q 566 787 571 793 l 517 736 q 502 724 508 727 q 488 720 496 720 q 469 724 477 720 q 456 733 460 727 l 406 791 q 400 800 401 795 q 399 809 399 804 q 401 818 399 813 q 410 829 404 823 m 244 981 l 292 970 l 376 858 l 275 677 l 183 690 l 244 981 z "},"α":{"ha":823,"x_min":-12,"x_max":889,"o":"m 373 701 q 602 587 553 701 l 638 663 l 889 592 l 676 295 l 785 0 l 559 -7 l 515 86 q 249 -4 427 -13 q 1 273 24 2 q 178 640 -12 517 q 373 701 281 701 m 212 299 q 290 221 225 221 q 440 372 433 245 q 368 477 446 475 q 212 299 215 452 z "},"β":{"ha":700,"x_min":-10,"x_max":700,"o":"m 100 910 l 100 910 l 100 910 q 366 969 168 979 q 589 831 498 956 q 627 675 627 758 q 545 511 627 574 q 700 274 700 425 q 414 -3 700 -6 q 236 50 300 -6 l 220 -290 l -10 -234 q 33 739 32 114 q 100 910 33 842 m 236 289 l 236 289 q 382 224 286 228 q 492 304 486 222 q 359 413 486 406 l 310 415 l 315 587 l 371 587 q 428 662 445 600 q 298 724 418 732 q 236 630 235 719 l 236 289 z "},"γ":{"ha":786,"x_min":-13,"x_max":807,"o":"m 191 701 l 399 215 l 603 691 l 807 541 l 536 -35 l 529 -263 l 275 -282 l 265 -7 l -13 564 l 191 701 z "},"δ":{"ha":637,"x_min":-13,"x_max":644,"o":"m 623 556 l 623 556 l 623 556 q 640 418 644 494 q 513 87 640 243 q 248 -12 409 -12 q 5 189 60 3 q -12 324 -13 248 q 137 640 3 517 l 10 749 l -3 909 l 568 960 l 557 808 l 283 763 l 384 723 q 623 556 550 711 m 207 299 l 207 299 l 207 299 q 280 219 216 219 q 399 303 339 219 q 416 394 419 340 q 347 474 416 474 q 217 369 275 474 q 207 299 205 334 z "},"ε":{"ha":517,"x_min":-5,"x_max":513,"o":"m 262 708 l 262 708 l 262 708 q 503 624 391 713 l 435 453 q 302 492 365 496 q 240 463 240 484 q 273 420 240 437 l 326 414 l 329 249 l 278 250 q 214 212 214 243 q 277 180 214 187 q 446 252 346 176 l 513 47 q 262 -43 394 -43 q -5 168 -3 -43 q 98 357 -3 287 q 20 488 20 417 q 46 622 14 556 q 262 708 109 708 z "},"ζ":{"ha":586,"x_min":-8,"x_max":597,"o":"m 18 988 l 18 988 l 597 957 l 578 772 q 252 361 275 517 q 404 201 250 248 q 555 7 539 153 q 286 -250 560 -186 l 233 -65 q 298 -8 302 -31 q 235 47 313 28 q 8 332 8 109 q 229 762 -8 512 l 18 788 l 18 988 z "},"η":{"ha":758,"x_min":-3,"x_max":753,"o":"m 480 -298 l 480 -298 l 480 -298 l 487 290 q 359 383 479 388 q 286 252 283 371 l 274 -6 l 3 27 q -3 738 30 400 l 258 788 l 285 616 q 655 614 509 736 q 753 416 733 548 l 752 -243 l 480 -298 z "},"θ":{"ha":823,"x_min":-66,"x_max":856,"o":"m 267 385 l 273 347 q 437 254 340 214 q 545 385 511 281 l 267 385 m 568 594 l 557 660 q 406 739 513 783 q 283 594 319 708 l 568 594 m 318 967 q 691 881 531 1044 q 775 716 745 812 q 770 243 856 496 q 492 1 688 73 q 115 144 269 -64 q 33 307 67 212 q 181 889 -66 661 q 318 967 250 942 z "},"ι":{"ha":294,"x_min":15,"x_max":283,"o":"m 271 701 q 279 345 275 433 q 281 -5 283 257 l 25 -5 q 18 348 15 257 q 27 684 22 439 l 271 701 z "},"κ":{"ha":585,"x_min":-7,"x_max":597,"o":"m 477 709 l 477 709 l 588 495 l 398 367 l 543 237 l 597 184 l 416 19 l 357 94 l 254 231 l 242 -5 l -7 69 l 30 751 l 249 788 l 254 530 l 477 709 z "},"λ":{"ha":786,"x_min":-23,"x_max":797,"o":"m 180 -26 l 180 -26 l 180 -26 l -23 111 l 255 682 l 177 958 l 431 939 l 526 710 l 797 134 l 593 -16 l 389 460 l 180 -26 z "},"μ":{"ha":734,"x_min":-9,"x_max":758,"o":"m 439 649 l 671 595 q 685 245 682 353 q 758 137 692 168 l 629 -28 q 478 86 538 -22 q 251 17 406 -22 l 245 -304 l -9 -254 q -4 660 23 287 l 240 693 l 252 361 q 326 229 249 241 q 453 322 446 224 l 439 649 z "},"ν":{"ha":650,"x_min":0,"x_max":663,"o":"m 220 710 l 334 340 l 444 693 l 663 600 q 474 -1 492 39 l 197 -1 q 0 669 173 20 l 220 710 z "},"ξ":{"ha":524,"x_min":-8,"x_max":536,"o":"m 275 979 l 275 979 l 275 979 l 275 979 l 275 979 l 275 979 l 275 979 q 536 936 406 981 l 490 765 q 319 780 399 781 q 254 720 250 772 q 307 665 250 684 l 414 659 l 417 473 l 312 474 q 224 347 223 450 q 384 215 223 261 q 515 7 498 167 q 286 -250 519 -194 l 233 -65 q 298 -8 302 -31 q 235 47 313 28 q 8 332 8 109 q 111 601 -8 512 q 18 788 7 663 q 275 979 41 964 z "},"ο":{"ha":598,"x_min":-13,"x_max":644,"o":"m 367 715 q 623 556 550 711 q 640 418 644 494 q 513 87 640 243 q 248 -12 409 -12 q 5 189 60 3 q -12 324 -13 248 q 248 696 9 600 q 367 715 311 715 m 207 299 q 280 219 216 219 q 399 303 339 219 q 416 394 419 340 q 347 474 416 474 q 217 369 275 474 q 207 299 205 334 z "},"π":{"ha":845,"x_min":0,"x_max":852,"o":"m 12 687 l 833 714 l 852 432 l 765 432 l 793 46 l 520 2 l 505 435 l 307 433 l 283 -5 l 26 60 l 66 450 l 0 452 l 12 687 z "},"ρ":{"ha":675,"x_min":-4,"x_max":689,"o":"m 41 479 q 414 701 98 713 q 663 512 595 687 q 679 260 689 418 q 547 39 679 130 q 282 45 425 -34 q 244 -281 267 -281 q -4 -216 4 -231 q 33 376 34 168 l 41 479 m 276 441 l 277 265 l 277 222 q 459 290 448 172 q 386 505 471 478 q 276 441 301 532 z "},"ς":{"ha":524,"x_min":-12,"x_max":541,"o":"m 541 690 l 495 476 q 311 500 420 512 q 211 361 215 474 q 363 201 210 248 q 515 7 498 153 q 286 -250 519 -186 l 233 -65 q 298 -8 302 -31 q 235 47 313 28 q 1 332 1 109 q 142 682 -12 574 q 541 690 272 747 z "},"σ":{"ha":792,"x_min":-13,"x_max":812,"o":"m 367 715 q 484 699 395 712 l 812 691 l 779 445 l 632 456 q 513 87 660 245 q 248 -12 409 -12 q 5 189 60 3 q -12 324 -13 248 q 248 696 9 600 q 367 715 311 715 m 207 299 q 280 219 216 219 q 399 303 339 219 q 416 394 419 340 q 347 474 416 474 q 217 369 275 474 q 207 299 205 334 z "},"τ":{"ha":576,"x_min":-3,"x_max":581,"o":"m 559 694 q 580 456 581 580 l 407 459 q 407 1 415 209 l 195 1 q 182 386 179 125 l 182 458 l -2 451 q 16 690 -3 612 q 559 694 246 694 z "},"υ":{"ha":573,"x_min":-4,"x_max":594,"o":"m 235 705 l 216 431 q 286 260 214 254 q 344 511 353 248 l 334 694 l 564 642 q 528 128 594 208 q 264 -3 441 4 q 64 94 148 -3 q 1 340 1 198 q 12 671 -4 464 l 235 705 z "},"φ":{"ha":817,"x_min":-14,"x_max":840,"o":"m 556 226 q 619 387 630 283 q 549 469 606 474 l 556 226 m 339 215 l 336 536 q 428 703 333 675 l 508 702 q 751 610 650 701 q 833 328 840 517 q 715 70 824 177 q 565 -3 672 20 l 566 -261 l 340 -277 l 343 -4 q -3 332 20 32 q 265 694 -14 617 l 289 444 q 237 275 198 404 q 339 215 264 208 z "},"χ":{"ha":1047,"x_min":-16,"x_max":964,"o":"m 724 742 l 724 742 l 724 742 l 897 537 l 671 255 l 964 -41 l 706 -282 l 501 83 q 233 -236 324 -144 q -16 -74 49 -107 q 326 276 136 39 l 108 607 l 353 703 l 493 454 l 724 742 z "},"ψ":{"ha":1069,"x_min":-40,"x_max":1122,"o":"m 239 671 l 239 671 l 239 671 l 239 671 l 239 671 q 399 260 245 266 l 397 734 l 658 708 l 654 247 q 819 657 821 283 l 1065 692 q 659 20 1122 43 l 671 -277 l 404 -296 l 394 -7 q 5 713 -40 -5 l 239 671 z "},"ω":{"ha":1090,"x_min":-28,"x_max":1093,"o":"m 250 714 q 311 340 270 509 q 364 280 323 271 q 389 346 389 296 l 401 625 l 629 641 l 684 307 q 734 257 692 260 q 779 307 770 259 q 825 685 812 517 l 1093 587 q 981 86 1078 323 q 805 -4 930 -9 q 601 60 653 -2 l 524 161 l 466 56 q 309 -7 422 -15 q 96 109 160 -12 q -28 622 -7 378 l 250 714 z "},"ϊ":{"ha":294,"x_min":-83,"x_max":382,"o":"m 271 701 q 279 345 275 433 q 281 -5 283 257 l 25 -5 q 18 348 15 257 q 27 684 22 439 l 271 701 m -72 927 l 119 936 l 100 779 l -83 791 l -72 927 m 191 926 l 382 935 l 363 777 l 180 789 l 191 926 z "},"ϋ":{"ha":573,"x_min":-4,"x_max":594,"o":"m 235 705 l 216 431 q 286 260 214 254 q 344 511 353 248 l 334 694 l 564 642 q 528 128 594 208 q 264 -3 441 4 q 64 94 148 -3 q 1 340 1 198 q 12 671 -4 464 l 235 705 m 65 927 l 256 936 l 237 779 l 54 791 l 65 927 m 328 926 l 519 935 l 500 777 l 317 789 l 328 926 z "},"ό":{"ha":598,"x_min":-13,"x_max":644,"o":"m 367 715 q 623 556 550 711 q 640 418 644 494 q 513 87 640 243 q 248 -12 409 -12 q 5 189 60 3 q -12 324 -13 248 q 248 696 9 600 q 367 715 311 715 m 207 299 q 280 219 216 219 q 399 303 339 219 q 416 394 419 340 q 347 474 416 474 q 217 369 275 474 q 207 299 205 334 m 311 981 l 359 970 l 443 858 l 355 724 l 264 738 l 311 981 z "},"ύ":{"ha":573,"x_min":-4,"x_max":594,"o":"m 235 705 l 216 431 q 286 260 214 254 q 344 511 353 248 l 334 694 l 564 642 q 528 128 594 208 q 264 -3 441 4 q 64 94 148 -3 q 1 340 1 198 q 12 671 -4 464 l 235 705 m 274 981 l 322 970 l 406 858 l 318 724 l 227 738 l 274 981 z "},"ώ":{"ha":1090,"x_min":-28,"x_max":1093,"o":"m 250 714 q 311 340 270 509 q 364 280 323 271 q 389 346 389 296 l 401 625 l 629 641 l 684 307 q 734 257 692 260 q 779 307 770 259 q 825 685 812 517 l 1093 587 q 981 86 1078 323 q 805 -4 930 -9 q 601 60 653 -2 l 524 161 l 466 56 q 309 -7 422 -15 q 96 109 160 -12 q -28 622 -7 378 l 250 714 m 520 981 l 568 970 l 652 858 l 564 724 l 473 738 l 520 981 z "},"Ϗ":{"ha":751,"x_min":-7,"x_max":870,"o":"m 519 974 l 519 974 l 652 787 l 460 559 l 870 1 l 421 -291 l 255 -132 l 532 35 l 301 315 l 285 -5 l -7 96 l 56 920 q 285 963 75 920 l 301 719 l 519 974 z "},"ϐ":{"ha":566,"x_min":-13,"x_max":595,"o":"m 253 775 q 380 770 357 738 q 319 804 400 809 q 253 775 280 804 m 275 197 q 395 249 370 181 q 334 375 422 331 q 214 321 244 384 q 275 197 195 224 m 212 645 q 201 520 193 578 q 458 534 326 572 q 591 298 589 479 q 511 58 595 138 q 238 -12 412 -21 q 22 155 68 1 q -1 602 -13 353 q 323 975 16 996 q 560 772 559 942 q 361 602 571 599 q 212 645 264 610 z "},"ϑ":{"ha":0,"x_min":-23,"x_max":797,"o":"m 777 265 l 639 262 q 424 277 514 271 q 201 336 298 288 q 92 468 113 387 q 79 663 64 562 q 233 869 100 803 q 444 907 323 909 q 694 709 612 897 q 733 320 754 550 q 722 190 730 241 q 425 -132 671 -126 q 234 -60 302 -140 q 176 26 201 -20 q 121 56 151 71 q 60 -9 92 41 l -23 177 q 132 290 57 290 q 250 234 205 291 q 308 127 275 202 q 394 70 345 71 q 467 98 443 68 q 501 186 491 127 q 477 652 550 595 q 315 659 409 711 q 281 543 259 615 q 452 460 318 473 q 797 463 573 447 l 777 265 z "},"ϒ":{"ha":887,"x_min":-13,"x_max":927,"o":"m 191 972 l 191 972 l 191 972 l 399 690 l 587 869 q 927 795 716 970 l 813 609 q 673 621 732 677 l 536 440 l 529 8 l 275 -11 l 265 468 l -13 836 l 191 972 z "},"ϓ":{"ha":1095,"x_min":22,"x_max":1135,"o":"m 69 981 l 117 970 l 201 858 l 113 724 l 22 738 l 69 981 m 398 972 l 398 972 l 398 972 l 607 690 l 795 869 q 1135 795 924 970 l 1021 609 q 881 621 940 677 l 743 440 l 736 8 l 483 -11 l 473 468 l 195 836 l 398 972 z "},"ϔ":{"ha":887,"x_min":-13,"x_max":927,"o":"m 191 972 l 191 972 l 191 972 l 399 690 l 587 869 q 927 795 716 970 l 813 609 q 673 621 732 677 l 536 440 l 529 8 l 275 -11 l 265 468 l -13 836 l 191 972 m 236 1205 l 427 1214 l 408 1057 l 225 1069 l 236 1205 m 498 1204 l 690 1213 l 671 1055 l 488 1067 l 498 1204 z "},"ϕ":{"ha":861,"x_min":-35,"x_max":871,"o":"m 512 725 q 849 406 806 699 q 720 52 871 157 q 546 7 633 9 l 543 -219 q 338 -241 461 -239 l 332 -20 q 202 -7 275 -20 q 26 192 78 43 q 113 610 -35 468 q 298 699 201 697 l 299 914 q 508 928 374 922 l 512 725 m 202 378 q 317 212 184 222 l 302 475 q 202 378 235 471 m 542 227 q 671 352 666 245 q 539 477 663 476 l 542 227 z "},"ϖ":{"ha":1200,"x_min":-2,"x_max":1206,"o":"m 332 714 q 378 340 338 509 q 432 280 391 271 q 457 346 456 296 l 469 536 l 696 553 l 751 307 q 802 257 760 260 q 847 307 838 259 q 879 685 880 517 l 1147 587 q 1049 86 1145 323 q 873 -4 998 -9 q 669 60 721 -2 l 591 161 l 534 56 q 377 -7 490 -15 q 163 109 228 -12 q 54 622 61 378 l 332 714 m -2 775 l 1206 784 l 1199 573 l 5 585 l -2 775 z "},"ϗ":{"ha":879,"x_min":-4,"x_max":890,"o":"m 210 711 l 210 711 l 210 711 l 210 711 l 210 711 l 210 711 q 347 597 334 709 l 357 421 l 589 705 l 849 705 l 728 473 l 734 269 q 786 203 733 206 l 874 199 q 882 -110 890 34 q 826 -222 886 -172 q 624 -287 772 -262 l 521 -106 q 687 -1 714 -69 l 631 1 q 517 83 545 0 l 509 254 l 298 -1 l 45 -1 q 127 208 102 115 l 128 449 q 77 514 132 516 l 14 519 l -4 731 l 210 711 z "},"Ϙ":{"ha":825,"x_min":-13,"x_max":843,"o":"m 481 972 q 815 760 720 967 q 838 576 843 676 q 671 134 838 341 q 514 3 604 67 l 506 -254 l 277 -275 l 278 1 q 9 269 83 21 q -12 450 -13 349 q 326 946 16 817 q 481 972 408 972 m 258 427 q 378 294 273 294 q 574 433 475 294 q 602 582 606 493 q 488 714 602 714 q 275 541 369 714 q 258 427 254 483 z "},"ϙ":{"ha":598,"x_min":-13,"x_max":644,"o":"m 367 715 l 367 715 l 367 715 q 623 556 550 711 q 640 418 644 494 q 513 87 640 243 q 416 -3 469 26 l 416 -261 l 191 -277 l 197 -7 q 5 189 60 3 q -12 324 -13 248 q 248 696 9 600 q 367 715 311 715 m 207 299 l 207 299 l 207 299 q 280 219 216 219 q 399 303 339 219 q 416 394 419 340 q 347 474 416 474 q 217 369 275 474 q 207 299 205 334 z "},"Ϛ":{"ha":825,"x_min":-13,"x_max":842,"o":"m 575 3 l 575 3 l 567 -254 l 338 -275 l 339 1 q 9 269 83 21 q -12 450 -13 349 q 326 946 16 817 q 481 972 408 972 q 815 760 720 967 q 838 636 842 698 l 602 582 q 488 714 602 714 q 275 541 369 714 q 258 427 254 483 q 436 286 276 301 q 585 288 516 283 l 575 3 z "},"ϛ":{"ha":647,"x_min":-13,"x_max":646,"o":"m 513 -33 l 513 -33 l 513 -33 q 456 -247 532 -144 q 140 -279 391 -320 l 156 -96 q 264 -80 236 -102 q 197 -7 300 -26 q 5 189 50 46 q -12 324 -13 248 q 248 696 9 600 q 367 715 311 715 q 623 556 550 711 q 646 431 644 494 l 422 374 q 347 474 416 474 q 224 369 258 486 q 214 299 212 334 q 292 207 221 214 q 513 -33 510 149 z "},"Ϝ":{"ha":725,"x_min":5,"x_max":714,"o":"m 714 977 l 714 977 l 714 977 l 682 722 l 288 684 l 288 589 l 587 598 l 615 313 l 454 310 l 444 405 l 306 393 l 323 41 l 43 1 l 5 922 l 714 977 z "},"ϝ":{"ha":726,"x_min":5,"x_max":721,"o":"m 721 726 l 721 726 l 721 726 l 721 726 l 689 485 l 288 447 l 288 359 l 587 368 l 615 83 l 454 79 l 444 174 l 306 163 l 323 -243 l 43 -283 l 5 671 l 721 726 z "},"Ϟ":{"ha":807,"x_min":-7,"x_max":817,"o":"m 690 -103 l 433 -7 q 412 125 372 31 l 498 322 l 29 274 l -7 315 l 110 712 q 84 770 127 753 l 26 789 l 102 996 l 327 905 q 383 778 393 867 l 296 506 l 772 552 l 817 492 l 675 141 q 692 103 658 115 l 766 72 l 690 -103 z "},"ϟ":{"ha":805,"x_min":-7,"x_max":817,"o":"m 600 -16 l 387 65 l 498 322 l 29 274 l -7 315 l 136 861 l 383 778 l 296 506 l 772 552 l 817 492 l 600 -16 z "},"Ϡ":{"ha":970,"x_min":-14,"x_max":985,"o":"m 351 972 l 351 972 l 351 972 l 351 972 q 581 938 484 977 q 965 334 918 756 q 904 -64 985 102 q 557 -292 802 -286 q 162 -256 371 -309 l 288 -52 q 598 -50 513 -96 q 721 214 718 17 l 648 218 q 593 150 601 211 l 568 23 l 360 12 l 385 275 q 572 416 418 408 l 708 416 q 463 718 644 671 l 461 469 l 237 459 l 255 711 q 141 652 192 713 l -14 823 q 351 972 112 985 z "},"ϡ":{"ha":800,"x_min":4,"x_max":823,"o":"m 195 984 q 585 812 450 926 q 808 314 761 659 q 745 -216 823 50 l 473 -294 q 562 140 535 -60 l 365 42 l 235 217 l 547 388 q 499 490 531 452 l 186 319 l 58 487 l 345 678 q 4 842 241 762 l 195 984 z "},"Ϣ":{"ha":1080,"x_min":-40,"x_max":1093,"o":"m 239 902 l 239 902 l 239 902 l 239 902 l 239 902 l 239 902 l 239 902 l 239 902 q 309 255 245 266 q 397 965 422 215 l 658 939 q 739 232 646 212 q 819 888 821 283 l 1065 923 q 1075 -31 1093 376 q 994 -204 1074 -140 q 688 -270 899 -272 l 139 -262 l 87 -66 l 721 -75 q 879 52 865 -84 q 553 71 707 -77 q 268 -2 451 -13 q 5 943 -40 -5 l 239 902 z "},"ϣ":{"ha":1080,"x_min":-40,"x_max":1093,"o":"m 239 637 l 239 637 l 239 637 l 239 637 l 239 637 l 239 637 l 239 637 l 239 637 l 239 637 q 309 255 245 266 q 397 701 422 215 l 658 674 q 739 232 646 212 q 819 623 821 283 l 1065 659 q 1075 -31 1093 376 q 994 -204 1074 -140 q 688 -270 899 -272 l 139 -262 l 87 -66 l 721 -75 q 879 52 865 -83 q 553 71 707 -77 q 268 -2 451 -13 q 5 679 -40 -5 l 239 637 z "},"Ϥ":{"ha":909,"x_min":-18,"x_max":904,"o":"m 435 753 l 435 753 l 435 753 l 435 753 l 435 753 l 435 753 q 327 743 385 753 q 237 567 229 701 q 542 359 246 321 q 615 476 618 370 l 621 969 l 899 939 q 904 -118 871 345 l 643 -162 l 616 153 q 165 161 311 53 q 9 459 54 224 q 54 825 -18 695 q 254 968 134 963 l 370 970 l 435 753 z "},"ϥ":{"ha":758,"x_min":-21,"x_max":768,"o":"m 388 753 l 388 753 l 388 753 l 388 753 l 319 753 q 269 670 269 739 l 272 441 q 406 359 279 355 q 479 476 483 370 l 485 969 l 763 939 q 768 -118 735 344 l 507 -162 l 481 153 q 111 154 256 46 q 13 330 33 213 q 32 832 -21 703 q 227 968 77 953 l 322 970 l 388 753 z "},"Ϧ":{"ha":758,"x_min":-3,"x_max":793,"o":"m 113 -62 q 452 -60 336 -75 q 503 33 504 -44 l 494 290 q 359 383 486 388 q 286 252 283 371 l 274 -6 l 3 27 q -3 921 30 400 l 258 971 l 285 616 q 655 614 509 736 q 753 416 733 548 q 726 -153 793 -4 q 601 -277 708 -239 q 179 -305 479 -313 l 113 -62 z "},"ϧ":{"ha":803,"x_min":-20,"x_max":829,"o":"m 829 561 q 654 264 768 355 q 373 147 493 149 q 184 178 253 145 q 81 272 115 207 q 61 461 46 336 q 216 667 83 601 q 427 705 328 717 q 660 538 594 694 q 715 186 736 377 q 371 -167 694 -172 q 181 -113 265 -160 q 42 -143 121 -85 l -20 86 q 195 106 104 152 q 391 68 294 54 q 504 140 489 83 q 487 435 511 281 q 408 494 465 483 q 286 465 340 506 q 272 387 239 427 q 401 377 305 347 q 627 646 496 408 l 829 561 z "},"Ϩ":{"ha":555,"x_min":-16,"x_max":796,"o":"m 739 679 l 739 679 l 739 679 q 578 425 742 515 q 312 280 323 323 q 444 235 311 218 q 547 349 523 273 l 796 332 q 351 -7 753 -26 q 149 36 212 3 q -7 245 -11 118 q 324 578 -16 445 q 472 667 463 627 q 321 726 472 747 q 215 639 235 699 l 3 707 q 238 951 72 899 q 539 954 385 1003 q 739 679 753 846 z "},"ϩ":{"ha":555,"x_min":-16,"x_max":846,"o":"m 739 679 l 739 679 l 739 679 l 739 679 l 739 679 q 578 425 742 515 q 312 273 323 323 q 468 199 311 191 q 789 242 591 203 l 846 9 q 351 -34 573 -48 q 149 9 212 -24 q -7 232 -11 98 q 324 578 -16 445 q 472 667 463 627 q 321 726 472 747 q 215 639 235 699 l 3 707 q 238 951 72 899 q 539 954 385 1003 q 739 679 753 846 z "},"Ϫ":{"ha":907,"x_min":-13,"x_max":927,"o":"m 460 690 l 460 690 l 587 896 q 927 823 716 998 l 813 636 q 673 648 732 704 l 575 477 l 861 39 l 821 -9 l 57 -9 l 0 36 l 326 492 l 241 662 q 101 650 182 718 l -13 836 q 327 909 198 1011 l 460 690 m 457 302 l 376 172 l 525 171 l 457 302 z "},"ϫ":{"ha":703,"x_min":-13,"x_max":713,"o":"m 353 578 l 353 578 l 450 690 q 713 633 550 768 l 625 455 q 517 465 562 507 l 468 366 l 662 28 l 631 -9 l 41 -9 l -3 26 l 235 378 l 183 475 q 75 465 138 518 l -13 644 q 250 700 150 779 l 353 578 m 348 241 l 299 155 l 389 155 l 348 241 z "},"Ϭ":{"ha":781,"x_min":-28,"x_max":808,"o":"m 772 274 l 772 274 l 772 274 q 631 56 732 117 q 358 1 495 -14 q 34 233 125 16 q 23 666 -28 433 q 349 961 100 895 q 781 979 591 996 l 724 760 q 284 724 344 800 q 525 743 389 764 q 725 620 658 720 q 772 274 808 443 m 258 317 l 258 317 l 258 317 q 370 205 277 206 q 526 280 485 199 q 543 427 561 348 q 356 548 510 586 q 258 317 237 503 z "},"ϭ":{"ha":555,"x_min":-20,"x_max":576,"o":"m 230 471 q 416 461 338 490 q 526 376 489 435 q 555 183 576 277 q 454 39 527 84 q 258 1 356 -11 q 24 168 90 12 q 17 479 -20 311 q 251 691 72 644 q 562 703 425 716 l 520 502 q 234 486 257 528 q 201 265 166 430 q 266 197 231 199 q 350 231 321 194 q 356 290 368 264 q 248 312 336 324 l 230 471 z "},"Ϯ":{"ha":867,"x_min":-15,"x_max":881,"o":"m 544 971 l 544 971 l 544 971 l 547 814 q 683 814 626 814 q 859 633 827 800 q 869 427 881 522 l 665 448 l 665 526 q 619 549 662 553 l 556 549 l 559 494 q 543 1 565 176 l 326 1 q 309 494 304 176 l 313 549 l 249 549 q 204 526 207 553 l 203 458 l 5 442 q 8 650 -15 536 q 186 814 41 800 q 321 814 243 814 l 323 952 l 544 971 z "},"ϯ":{"ha":834,"x_min":5,"x_max":844,"o":"m 720 975 l 547 812 l 547 780 q 844 770 652 780 l 833 551 l 556 549 l 559 494 q 543 18 565 176 l 142 -3 l 317 174 q 309 494 304 250 l 313 549 l 5 555 l 30 904 l 201 762 q 321 780 268 780 l 323 959 l 720 975 z "},"ϰ":{"ha":852,"x_min":-4,"x_max":861,"o":"m 210 711 l 210 711 l 210 711 l 210 711 q 347 597 334 709 l 357 421 l 589 705 l 849 705 l 728 473 l 734 269 q 786 203 733 206 l 861 199 l 849 -2 q 631 1 739 -5 q 517 83 545 0 l 509 254 l 298 -1 l 45 -1 q 127 208 102 115 l 128 449 q 77 514 132 516 l 14 519 l -4 731 l 210 711 z "},"ϱ":{"ha":718,"x_min":-1,"x_max":734,"o":"m 7 479 l 7 479 l 7 479 l 7 479 q 414 701 64 713 q 663 512 595 687 q 679 260 689 418 q 547 39 679 130 q 248 85 425 -34 q 503 -50 218 -76 q 734 -132 606 -58 l 562 -292 q 428 -245 507 -239 q 264 -241 346 -248 q 7 6 4 -193 q -1 376 -1 273 l 7 479 m 242 441 l 242 441 l 242 441 l 243 263 q 459 290 448 172 q 370 505 471 478 q 242 441 267 532 z "},"ϲ":{"ha":569,"x_min":1,"x_max":602,"o":"m 311 697 q 602 588 492 705 l 465 445 q 350 490 412 491 q 236 370 251 488 q 322 239 229 257 q 454 296 382 228 l 574 181 q 242 -2 455 -4 q 36 136 100 -2 q 1 313 1 212 q 116 634 4 545 q 311 697 183 697 z "},"ϳ":{"ha":307,"x_min":-192,"x_max":316,"o":"m 300 687 q 311 446 313 568 q 165 -264 316 -180 q 24 -292 132 -290 q -192 -194 -134 -292 l -67 -47 q 22 -47 -33 -79 q 75 195 77 -15 q 58 648 72 404 l 300 687 m 219 930 q 307 860 298 924 q 132 696 309 726 l 109 696 q 33 784 37 705 q 219 930 28 918 z "},"ϴ":{"ha":907,"x_min":-73,"x_max":944,"o":"m 260 385 l 267 347 q 526 254 333 214 q 633 385 600 281 l 260 385 m 656 594 l 638 660 q 399 739 574 783 q 277 594 312 708 l 656 594 m 311 967 q 779 881 619 1044 q 863 716 833 812 q 858 243 944 496 q 580 1 777 73 q 109 144 262 -64 q 26 307 60 212 q 174 889 -73 661 q 311 967 243 942 z "},"ϵ":{"ha":555,"x_min":-22,"x_max":550,"o":"m 121 628 q 320 705 193 704 q 538 641 477 709 l 439 486 q 321 517 404 517 q 216 435 243 505 q 372 427 298 437 q 369 279 363 403 q 217 264 274 275 q 328 193 241 186 q 441 231 404 202 l 550 84 q 302 -14 471 -13 q 46 154 119 1 q 12 276 16 217 q 121 628 -22 506 l 121 628 l 121 628 z "},"϶":{"ha":555,"x_min":5,"x_max":577,"o":"m 435 628 l 435 628 l 435 628 q 544 276 577 506 q 510 154 539 217 q 254 -14 437 1 q 5 84 84 -13 l 115 231 q 228 193 152 202 q 338 264 314 186 q 186 279 281 275 q 184 427 192 403 q 339 435 258 437 q 235 517 312 505 q 117 486 152 517 l 17 641 q 235 705 79 709 q 435 628 363 704 z "},"Ϸ":{"ha":789,"x_min":5,"x_max":807,"o":"m 774 638 l 774 638 l 774 638 q 798 458 807 566 q 579 242 762 294 q 331 226 484 227 l 323 33 l 63 -5 l 5 931 q 295 967 177 960 l 302 798 q 532 806 427 814 q 774 638 703 778 m 312 584 l 312 584 l 313 426 q 538 494 532 414 q 490 586 545 567 q 312 584 414 601 z "},"ϸ":{"ha":750,"x_min":-1,"x_max":766,"o":"m 492 806 q 734 638 662 778 q 757 458 766 566 q 538 242 721 294 q 345 253 443 227 l 363 33 l 104 -5 l -1 931 q 288 967 170 960 l 302 751 q 492 806 387 814 m 319 536 l 327 433 q 498 494 492 414 q 449 586 505 567 q 319 536 373 601 z "},"Ϲ":{"ha":757,"x_min":-54,"x_max":776,"o":"m 414 972 l 414 972 l 414 972 q 771 803 643 1004 l 623 652 q 441 713 572 720 q 233 463 234 654 q 439 276 250 267 q 564 363 493 284 l 776 311 q 389 -2 689 35 q 42 225 173 -24 q -4 391 2 311 q 231 916 -54 745 q 414 972 321 963 z "},"Ϻ":{"ha":1022,"x_min":-8,"x_max":1179,"o":"m 52 972 l 52 972 l 400 951 l 573 705 l 800 972 l 1057 972 l 1179 141 l 895 12 l 833 613 l 627 359 l 481 365 l 307 624 l 260 -2 l -8 155 l 52 972 z "},"ϻ":{"ha":967,"x_min":1,"x_max":972,"o":"m 52 704 l 52 704 l 340 687 l 484 482 l 678 704 l 892 704 l 972 69 l 737 -38 l 705 406 l 528 196 l 408 201 l 262 416 l 224 -307 l 1 -177 l 52 704 z "},"ϼ":{"ha":675,"x_min":-54,"x_max":689,"o":"m 41 479 q 414 701 98 713 q 663 512 595 687 q 679 260 689 418 q 547 39 679 130 q 282 45 425 -34 q 244 -281 267 -281 q -4 -216 4 -231 q 33 376 34 168 l 41 479 m 276 441 l 277 265 l 277 222 q 459 290 448 172 q 386 505 471 478 q 276 441 301 532 m -54 -158 l -40 5 l 474 -52 l 460 -207 l -54 -158 z "},"Ͻ":{"ha":757,"x_min":-54,"x_max":776,"o":"m 308 972 q -43 803 79 1004 l 158 637 q 286 688 222 697 q 455 463 454 654 q 303 323 424 309 q 178 410 249 332 l -54 311 q 332 -2 33 35 q 680 225 549 -24 q 726 391 720 311 q 424 938 776 745 q 308 972 386 961 z "},"Ͼ":{"ha":757,"x_min":-54,"x_max":776,"o":"m 414 972 q 764 803 643 1004 l 564 637 q 436 688 500 697 q 267 463 268 654 q 418 323 298 309 q 544 410 473 332 l 776 311 q 389 -2 689 35 q 42 225 173 -24 q -4 391 2 311 q 298 938 -54 745 q 414 972 336 961 m 360 509 l 407 558 q 421 567 413 564 q 439 571 429 571 q 455 567 448 571 q 469 557 463 564 l 517 507 q 523 498 522 503 q 525 488 525 494 q 523 478 524 482 q 516 468 522 473 l 468 416 q 453 404 458 408 q 439 401 447 401 q 419 404 428 401 q 406 414 411 408 l 356 472 q 351 480 352 476 q 349 490 349 484 q 352 499 349 494 q 360 509 354 504 z "},"Ͽ":{"ha":777,"x_min":0,"x_max":830,"o":"m 362 972 q 12 803 133 1004 l 212 637 q 340 688 276 697 q 509 463 508 654 q 357 323 478 309 q 232 410 303 332 l 0 311 q 387 -2 87 35 q 734 225 603 -24 q 780 391 774 311 q 478 938 830 745 q 362 972 440 961 m 416 509 l 369 558 q 355 567 363 564 q 337 571 347 571 q 320 567 328 571 q 307 557 313 564 l 259 507 q 253 498 254 503 q 251 488 251 494 q 253 478 252 482 q 260 468 254 473 l 308 416 q 323 404 317 408 q 337 401 329 401 q 356 404 348 401 q 370 414 365 408 l 420 472 q 425 480 424 476 q 427 490 427 484 q 424 499 427 494 q 416 509 422 504 z "},"₽":{"ha":789,"x_min":-15,"x_max":799,"o":"m 353 695 l 361 589 q 532 647 526 602 q 483 707 538 692 q 353 695 420 715 m 62 243 l -15 931 q 484 964 350 983 q 782 750 696 934 q 791 645 799 705 q 543 398 766 473 q 378 375 448 374 l 382 296 l 494 307 l 524 132 l 391 121 l 395 28 l 90 -5 l 80 87 l 3 78 l 18 235 l 62 243 z "},"₸":{"ha":730,"x_min":-29,"x_max":777,"o":"m 728 677 l 728 677 l 728 677 l 743 450 q 509 456 614 456 q 509 1 520 171 l 258 1 q 241 332 236 176 l 240 454 q -9 444 121 454 l 3 672 q 728 677 312 677 m -9 727 l -29 941 l 777 976 l 732 757 l -9 727 z "},"₩":{"ha":1009,"x_min":-14,"x_max":1025,"o":"m 529 115 l 461 -1 l 274 -1 l 232 119 l 32 122 l 43 278 l 176 278 l 151 353 l 24 353 l 35 509 l 96 510 l -14 823 l 300 972 l 459 517 l 484 518 l 566 603 l 615 521 l 652 522 l 742 911 l 1023 758 l 960 528 l 1025 529 l 1015 359 l 913 359 l 890 278 l 1021 278 l 1010 109 l 844 111 l 814 -1 l 593 -1 l 560 115 l 529 115 z "},"₨":{"ha":3155,"x_min":1866,"x_max":3168,"o":"m 2351 966 q 2662 775 2550 954 q 2679 667 2683 727 q 2515 432 2673 543 q 2738 155 2543 407 l 2509 3 l 2288 320 l 2302 42 l 2006 1 l 1866 913 q 2280 970 1949 942 l 2351 966 m 2252 695 l 2262 592 q 2424 658 2422 605 q 2382 699 2426 691 q 2252 695 2330 705 m 2882 705 q 3158 548 3023 708 l 3038 427 q 2861 519 2920 519 q 2821 486 2821 512 q 3004 384 2830 454 q 3157 146 3168 285 q 2982 -3 3127 14 q 2844 -7 2928 -14 q 2597 141 2703 14 l 2706 279 q 2867 193 2819 193 q 2907 216 2897 193 q 2762 301 2907 252 q 2620 507 2620 372 q 2882 705 2627 693 z "},"₲":{"ha":747,"x_min":-9,"x_max":795,"o":"m 239 4 q 12 273 94 43 q -9 451 -9 342 q 273 945 -4 798 q 338 960 308 954 l 349 1034 l 486 1048 l 481 979 q 795 818 699 978 l 590 646 q 460 698 530 696 l 426 255 l 431 255 q 528 362 526 295 l 463 385 l 481 500 l 767 545 q 783 390 783 464 q 467 1 783 83 q 406 -3 450 -2 l 401 -69 l 234 -41 l 239 4 m 306 648 q 232 488 245 596 q 271 319 224 376 l 306 648 z "},"₪":{"ha":1020,"x_min":-1,"x_max":1023,"o":"m 32 748 l 32 748 l 725 707 l 739 290 l 554 273 l 546 530 l 233 541 l 208 1 l -1 33 l 32 748 m 983 15 l 983 15 l 304 1 l 304 473 l 488 435 l 496 206 l 789 215 l 814 687 l 1023 717 l 983 15 z "},"₺":{"ha":724,"x_min":-24,"x_max":749,"o":"m 332 441 q 346 273 338 359 q 587 481 510 317 q 749 374 674 446 q 186 -71 587 -38 l 126 438 l -24 436 l -17 592 l 108 597 l 100 665 l -17 654 l -10 810 l 82 821 l 66 959 l 302 979 q 307 848 304 917 l 497 871 l 490 702 l 316 686 q 321 606 319 646 l 490 612 l 484 443 l 332 441 z "},"₭":{"ha":753,"x_min":-22,"x_max":787,"o":"m 45 601 l 70 920 q 298 963 88 920 l 315 719 l 532 974 l 665 787 l 517 610 l 687 614 l 654 468 l 566 469 l 787 251 l 543 28 l 315 315 l 298 -5 l 6 96 l 35 472 l -22 473 l -10 600 l 45 601 z "},"₹":{"ha":783,"x_min":0,"x_max":797,"o":"m 749 987 l 754 825 l 677 819 q 732 746 719 797 q 730 643 743 693 l 770 650 l 793 492 l 666 475 q 585 390 635 430 l 797 155 l 589 3 l 255 354 l 313 425 l 56 389 l 29 583 l 427 614 q 503 688 499 629 q 407 780 496 770 q 20 745 279 775 l 0 943 l 749 987 z "},"₾":{"ha":921,"x_min":-50,"x_max":954,"o":"m 662 882 q 779 840 726 867 q 926 635 892 772 q 917 381 954 536 l 730 408 q 663 629 736 570 l 664 407 l 521 426 l 502 677 q 451 674 478 677 l 470 420 l 328 401 l 304 581 q 249 367 246 498 q 336 210 261 245 l 924 195 l 898 -42 q 28 -47 427 -14 l -12 173 l 75 199 q 81 726 -50 473 q 269 862 155 823 l 256 959 l 431 948 l 435 892 q 486 895 460 894 l 482 951 l 662 961 l 662 882 z "},"₡":{"ha":792,"x_min":-54,"x_max":812,"o":"m 227 384 l 271 652 q 212 471 217 587 q 227 384 214 422 m 323 275 q 397 257 355 260 l 487 732 q 441 733 465 734 q 415 730 427 732 l 323 275 m 348 -4 q 269 8 307 -3 l 257 -52 l 158 -33 l 173 59 q 42 225 100 116 q -4 391 2 311 q 231 916 -54 745 q 320 953 275 939 l 340 1075 l 479 1048 l 465 976 q 532 972 499 977 l 545 1040 l 684 1013 l 665 928 q 812 803 743 884 l 664 652 q 612 693 640 676 l 519 287 q 598 363 564 314 l 810 311 q 456 8 732 64 l 438 -68 l 339 -49 l 348 -4 z "},"֏":{"ha":1041,"x_min":-6,"x_max":1063,"o":"m 590 319 l 589 492 q 427 673 593 663 q 264 451 279 668 l 264 286 l -2 290 l -6 530 q 134 865 3 765 q 532 939 286 969 q 860 648 825 877 q 880 340 876 538 l 1051 353 l 1063 156 l 880 142 q 880 65 880 105 l 1034 71 l 1013 -115 l 875 -123 q 872 -199 873 -161 l 594 -229 l 593 -140 l 460 -147 l 440 48 l 592 54 l 591 121 l 408 108 l 410 307 l 590 319 z "},"元":{"ha":968,"x_min":-21,"x_max":1006,"o":"m 53 648 l 915 687 l 926 493 l 728 466 l 714 243 q 798 180 701 160 l 1006 212 l 900 -7 l 613 -26 q 457 150 439 -49 l 530 453 l 376 433 l 223 -26 l -21 -47 l 184 425 l 38 410 l 53 648 m 104 703 l 58 868 l 886 979 l 840 762 l 104 703 z "},"₼":{"ha":1053,"x_min":-1,"x_max":1065,"o":"m -1 66 q 550 866 78 887 q 1065 53 1022 845 l 827 9 q 540 632 784 644 q 235 1 296 621 l -1 66 m 646 954 l 604 14 l 412 -4 l 417 952 l 646 954 z "},"₵":{"ha":747,"x_min":-54,"x_max":776,"o":"m 288 3 q 42 225 140 37 q -4 391 2 311 q 231 916 -54 745 q 386 968 307 956 l 396 1065 l 540 1037 l 532 972 q 771 803 678 949 l 623 652 q 498 712 584 704 l 441 276 q 564 363 494 286 l 776 311 q 405 0 691 43 l 393 -93 l 281 -57 l 288 3 m 357 679 q 233 463 234 610 q 318 300 243 343 l 357 679 z "},"₦":{"ha":925,"x_min":-13,"x_max":940,"o":"m 534 694 l 606 951 l 882 972 q 856 715 868 833 l 940 720 l 910 547 l 838 545 q 829 454 833 497 l 914 456 l 890 286 l 810 286 q 772 -1 781 22 l 591 -1 l 427 287 l 361 287 l 332 -1 l 88 -1 q 92 288 87 130 l 35 288 l 14 438 l 96 439 q 100 515 98 477 l 5 512 l -13 658 l 107 666 q 123 935 114 794 l 360 935 l 484 690 l 534 694 z "},"ƒ":{"ha":555,"x_min":-48,"x_max":580,"o":"m 71 -194 l 71 -194 l 71 -194 q -48 -165 -13 -198 l -15 -54 q 73 -70 39 -79 q 127 7 106 -61 l 169 201 l 208 509 l 214 551 q 291 838 235 742 q 490 978 383 978 q 580 959 550 978 l 551 844 l 498 848 q 416 754 435 838 l 387 546 l 336 217 q 254 -62 311 45 q 71 -194 176 -194 m 134 412 l 120 561 l 557 578 l 543 437 l 134 412 z "},"฿":{"ha":555,"x_min":-14,"x_max":819,"o":"m 286 340 q 257 334 272 338 l 265 227 q 296 229 281 228 l 286 340 m 259 656 l 250 753 q 229 747 240 751 l 245 654 q 259 656 252 655 m 353 963 q 449 955 402 962 q 637 719 650 894 q 532 568 618 640 l 587 555 q 812 317 798 481 q 766 122 819 208 q 406 -4 673 16 l 409 -57 l 322 -70 l 317 -8 q 105 -3 220 -10 l -14 881 q 233 954 116 936 l 227 1020 l 350 1029 l 353 963 m 393 240 q 530 303 526 260 q 484 346 541 336 q 387 352 437 353 l 393 240 m 368 687 q 427 743 418 710 q 387 767 422 760 q 364 769 376 768 l 368 687 z "},"₫":{"ha":740,"x_min":-14,"x_max":770,"o":"m 201 458 l 201 428 q 298 345 206 345 l 366 348 l 359 516 q 257 529 323 536 q 201 458 199 515 m 29 -65 l 9 93 l 770 151 l 725 -31 l 29 -65 m 373 900 q 379 993 376 941 l 625 958 l 618 910 l 724 915 l 705 751 l 606 752 q 610 187 583 396 l 395 153 l 390 201 q 252 168 317 168 l 222 168 q 7 315 59 168 q -8 393 -3 356 l -12 448 q 62 663 -14 602 q 239 720 139 725 q 361 673 304 718 q 363 756 360 699 l 254 758 l 240 895 l 373 900 z "},"₴":{"ha":555,"x_min":-24,"x_max":769,"o":"m 456 617 q 472 667 474 642 q 126 685 431 830 l 29 842 q 539 954 282 1021 q 739 679 753 846 q 716 617 732 647 l 769 617 l 748 501 l 619 501 q 559 458 592 479 l 745 463 l 718 338 l 342 339 q 298 270 292 298 q 624 296 321 160 l 714 109 q 351 -7 511 -12 q 149 36 212 3 q -7 225 -11 118 q 34 339 -5 285 l -8 339 l -24 441 l 153 446 q 250 500 196 475 l -3 500 l -16 617 l 456 617 z "}}}
